AnekDevanagari-Medium.ufo
<glyph name="parenleft" format="2">
  <advance width="597"/>
  <unicode hex="0028"/>
  <outline>
    <contour>
      <point x="319" y="608" type="line" smooth="yes"/>
      <point x="319" y="903"/>
      <point x="392" y="1139"/>
      <point x="557" y="1351" type="curve"/>
      <point x="355" y="1351" type="line"/>
      <point x="201" y="1150"/>
      <point x="130" y="920"/>
      <point x="130" y="613" type="curve" smooth="yes"/>
      <point x="130" y="495" type="line" smooth="yes"/>
      <point x="130" y="185"/>
      <point x="198" y="-44"/>
      <point x="353" y="-244" type="curve"/>
      <point x="557" y="-244" type="line"/>
      <point x="392" y="-30"/>
      <point x="319" y="205"/>
      <point x="319" y="501" type="curve" smooth="yes"/>
    </contour>
  </outline>
</glyph>
<glyph name="comma" format="2">
  <advance width="397"/>
  <unicode hex="002C"/>
  <outline>
    <contour>
      <point x="107" y="284" type="line"/>
      <point x="112" y="242"/>
      <point x="114" y="204"/>
      <point x="114" y="160" type="curve" smooth="yes"/>
      <point x="114" y="10"/>
      <point x="82" y="-109"/>
      <point x="15" y="-219" type="curve"/>
      <point x="152" y="-259" type="line"/>
      <point x="262" y="-130"/>
      <point x="305" y="5"/>
      <point x="305" y="168" type="curve" smooth="yes"/>
      <point x="305" y="214"/>
      <point x="299" y="257"/>
      <point x="295" y="284" type="curve"/>
    </contour>
  </outline>
</glyph>
<glyph name="four" format="2">
  <advance width="1065"/>
  <unicode hex="0034"/>
  <outline>
    <contour>
      <point x="871" y="0" type="line"/>
      <point x="871" y="1278" type="line"/>
      <point x="541" y="1278" type="line"/>
      <point x="54" y="434" type="line"/>
      <point x="54" y="238" type="line"/>
      <point x="1034" y="238" type="line"/>
      <point x="1034" y="406" type="line"/>
      <point x="176" y="406" type="line"/>
      <point x="253" y="333" type="line"/>
      <point x="253" y="421" type="line"/>
      <point x="661" y="1139" type="line"/>
      <point x="687" y="1139" type="line"/>
      <point x="680" y="848" type="line"/>
      <point x="680" y="0" type="line"/>
    </contour>
  </outline>
</glyph>
<glyph name="less" format="2">
  <advance width="1029"/>
  <unicode hex="003C"/>
  <outline>
    <contour>
      <point x="905" y="795" type="line"/>
      <point x="905" y="965" type="line"/>
      <point x="99" y="750" type="line"/>
      <point x="99" y="490" type="line"/>
      <point x="905" y="275" type="line"/>
      <point x="905" y="445" type="line"/>
      <point x="241" y="611" type="line"/>
      <point x="241" y="629" type="line"/>
    </contour>
  </outline>
</glyph>
<glyph name="greater" format="2">
  <advance width="1029"/>
  <unicode hex="003E"/>
  <outline>
    <contour>
      <point x="788" y="611" type="line"/>
      <point x="124" y="445" type="line"/>
      <point x="124" y="275" type="line"/>
      <point x="930" y="490" type="line"/>
      <point x="930" y="750" type="line"/>
      <point x="124" y="965" type="line"/>
      <point x="124" y="795" type="line"/>
      <point x="788" y="629" type="line"/>
    </contour>
  </outline>
</glyph>
<glyph name="G" format="2">
  <advance width="1196"/>
  <unicode hex="0047"/>
  <anchor x="596" y="0" name="bottom"/>
  <anchor x="596" y="1278" name="top"/>
  <outline>
    <contour>
      <point x="540" y="-26" type="curve" smooth="yes"/>
      <point x="752" y="-26"/>
      <point x="839" y="78"/>
      <point x="872" y="201" type="curve"/>
      <point x="1071" y="200" type="line"/>
      <point x="1071" y="724" type="line"/>
      <point x="622" y="724" type="line"/>
      <point x="622" y="558" type="line"/>
      <point x="905" y="558" type="line"/>
      <point x="875" y="628" type="line"/>
      <point x="875" y="330" type="line"/>
      <point x="843" y="229"/>
      <point x="755" y="146"/>
      <point x="605" y="146" type="curve" smooth="yes"/>
      <point x="401" y="146"/>
      <point x="302" y="267"/>
      <point x="302" y="482" type="curve" smooth="yes"/>
      <point x="302" y="766" type="line" smooth="yes"/>
      <point x="302" y="1003"/>
      <point x="419" y="1131"/>
      <point x="664" y="1131" type="curve" smooth="yes"/>
      <point x="825" y="1131"/>
      <point x="949" y="1082"/>
      <point x="1043" y="1027" type="curve"/>
      <point x="1025" y="1206" type="line"/>
      <point x="940" y="1255"/>
      <point x="807" y="1303"/>
      <point x="628" y="1303" type="curve" smooth="yes"/>
      <point x="280" y="1303"/>
      <point x="98" y="1113"/>
      <point x="98" y="770" type="curve" smooth="yes"/>
      <point x="98" y="481" type="line" smooth="yes"/>
      <point x="98" y="159"/>
      <point x="247" y="-26"/>
    </contour>
    <contour>
      <point x="875" y="0" type="line"/>
      <point x="1071" y="0" type="line"/>
      <point x="1071" y="264" type="line"/>
      <point x="884" y="264" type="line"/>
    </contour>
  </outline>
</glyph>
<glyph name="j" format="2">
  <advance width="475"/>
  <unicode hex="006A"/>
  <outline>
    <contour>
      <point x="348" y="170" type="line"/>
      <point x="348" y="978" type="line"/>
      <point x="152" y="978" type="line"/>
      <point x="152" y="170" type="line"/>
    </contour>
    <contour>
      <point x="250" y="1122" type="curve" smooth="yes"/>
      <point x="327" y="1122"/>
      <point x="365" y="1162"/>
      <point x="365" y="1233" type="curve" smooth="yes"/>
      <point x="365" y="1237" type="line" smooth="yes"/>
      <point x="365" y="1306"/>
      <point x="327" y="1348"/>
      <point x="250" y="1348" type="curve" smooth="yes"/>
      <point x="172" y="1348"/>
      <point x="135" y="1306"/>
      <point x="135" y="1237" type="curve" smooth="yes"/>
      <point x="135" y="1233" type="line" smooth="yes"/>
      <point x="135" y="1163"/>
      <point x="172" y="1122"/>
    </contour>
    <contour>
      <point x="52" y="-358" type="curve" smooth="yes"/>
      <point x="270" y="-358"/>
      <point x="348" y="-234"/>
      <point x="348" y="-31" type="curve" smooth="yes"/>
      <point x="348" y="261" type="line"/>
      <point x="152" y="261" type="line"/>
      <point x="152" y="-21" type="line" smooth="yes"/>
      <point x="152" y="-135"/>
      <point x="118" y="-198"/>
      <point x="3" y="-198" type="curve" smooth="yes"/>
      <point x="-38" y="-198"/>
      <point x="-76" y="-190"/>
      <point x="-111" y="-175" type="curve"/>
      <point x="-95" y="-334" type="line"/>
      <point x="-59" y="-348"/>
      <point x="-6" y="-358"/>
    </contour>
  </outline>
</glyph>
<glyph name="braceleft" format="2">
  <advance width="678"/>
  <unicode hex="007B"/>
  <outline>
    <contour>
      <point x="625" y="1330" type="line"/>
      <point x="580" y="1344"/>
      <point x="525" y="1354"/>
      <point x="467" y="1354" type="curve" smooth="yes"/>
      <point x="284" y="1354"/>
      <point x="199" y="1272"/>
      <point x="199" y="1080" type="curve" smooth="yes"/>
      <point x="199" y="1001"/>
      <point x="213" y="864"/>
      <point x="213" y="791" type="curve" smooth="yes"/>
      <point x="213" y="695"/>
      <point x="179" y="645"/>
      <point x="62" y="638" type="curve"/>
      <point x="62" y="473" type="line"/>
      <point x="179" y="465"/>
      <point x="213" y="415"/>
      <point x="213" y="318" type="curve" smooth="yes"/>
      <point x="213" y="246"/>
      <point x="199" y="108"/>
      <point x="199" y="26" type="curve" smooth="yes"/>
      <point x="199" y="-166"/>
      <point x="284" y="-249"/>
      <point x="467" y="-249" type="curve" smooth="yes"/>
      <point x="525" y="-249"/>
      <point x="580" y="-239"/>
      <point x="625" y="-225" type="curve"/>
      <point x="625" y="-80" type="line"/>
      <point x="596" y="-90"/>
      <point x="560" y="-98"/>
      <point x="519" y="-98" type="curve" smooth="yes"/>
      <point x="423" y="-98"/>
      <point x="385" y="-56"/>
      <point x="385" y="46" type="curve" smooth="yes"/>
      <point x="385" y="115"/>
      <point x="399" y="249"/>
      <point x="399" y="328" type="curve" smooth="yes"/>
      <point x="399" y="452"/>
      <point x="362" y="535"/>
      <point x="223" y="552" type="curve"/>
      <point x="231" y="542" type="line"/>
      <point x="231" y="561" type="line"/>
      <point x="362" y="581"/>
      <point x="399" y="658"/>
      <point x="399" y="781" type="curve" smooth="yes"/>
      <point x="399" y="859"/>
      <point x="385" y="992"/>
      <point x="385" y="1061" type="curve" smooth="yes"/>
      <point x="385" y="1162"/>
      <point x="423" y="1204"/>
      <point x="517" y="1204" type="curve" smooth="yes"/>
      <point x="559" y="1204"/>
      <point x="596" y="1196"/>
      <point x="625" y="1187" type="curve"/>
    </contour>
  </outline>
</glyph>
<glyph name="exclamdown" format="2">
  <advance width="474"/>
  <unicode hex="00A1"/>
  <outline>
    <contour>
      <point x="155" y="576" type="line"/>
      <point x="132" y="-300" type="line"/>
      <point x="342" y="-300" type="line"/>
      <point x="319" y="576" type="line"/>
    </contour>
    <contour>
      <point x="237" y="999" type="curve" smooth="yes"/>
      <point x="157" y="999"/>
      <point x="120" y="954"/>
      <point x="120" y="876" type="curve" smooth="yes"/>
      <point x="120" y="866" type="line" smooth="yes"/>
      <point x="120" y="789"/>
      <point x="157" y="744"/>
      <point x="237" y="744" type="curve" smooth="yes"/>
      <point x="316" y="744"/>
      <point x="354" y="789"/>
      <point x="354" y="866" type="curve" smooth="yes"/>
      <point x="354" y="876" type="line" smooth="yes"/>
      <point x="354" y="954"/>
      <point x="316" y="999"/>
    </contour>
  </outline>
</glyph>
<glyph name="dieresis" format="2">
  <advance width="714"/>
  <unicode hex="00A8"/>
  <anchor x="357" y="978" name="_top"/>
  <anchor x="357" y="1320" name="top"/>
  <outline>
    <contour>
      <point x="199" y="1122" type="curve" smooth="yes"/>
      <point x="267" y="1122"/>
      <point x="299" y="1160"/>
      <point x="299" y="1227" type="curve" smooth="yes"/>
      <point x="299" y="1234" type="line" smooth="yes"/>
      <point x="299" y="1300"/>
      <point x="267" y="1338"/>
      <point x="199" y="1338" type="curve" smooth="yes"/>
      <point x="133" y="1338"/>
      <point x="100" y="1300"/>
      <point x="100" y="1234" type="curve" smooth="yes"/>
      <point x="100" y="1227" type="line" smooth="yes"/>
      <point x="100" y="1160"/>
      <point x="133" y="1122"/>
    </contour>
    <contour>
      <point x="515" y="1122" type="curve" smooth="yes"/>
      <point x="581" y="1122"/>
      <point x="614" y="1160"/>
      <point x="614" y="1227" type="curve" smooth="yes"/>
      <point x="614" y="1234" type="line" smooth="yes"/>
      <point x="614" y="1300"/>
      <point x="581" y="1338"/>
      <point x="515" y="1338" type="curve" smooth="yes"/>
      <point x="448" y="1338"/>
      <point x="416" y="1300"/>
      <point x="416" y="1234" type="curve" smooth="yes"/>
      <point x="416" y="1227" type="line" smooth="yes"/>
      <point x="416" y="1160"/>
      <point x="448" y="1122"/>
    </contour>
  </outline>
</glyph>
<glyph name="guillemetleft" format="2">
  <advance width="999"/>
  <unicode hex="00AB"/>
  <outline>
    <contour>
      <point x="958" y="886" type="line"/>
      <point x="766" y="886" type="line"/>
      <point x="494" y="512" type="line"/>
      <point x="494" y="468" type="line"/>
      <point x="766" y="88" type="line"/>
      <point x="958" y="88" type="line"/>
      <point x="675" y="490" type="line"/>
    </contour>
    <contour>
      <point x="529" y="886" type="line"/>
      <point x="337" y="886" type="line"/>
      <point x="65" y="512" type="line"/>
      <point x="65" y="468" type="line"/>
      <point x="337" y="88" type="line"/>
      <point x="529" y="88" type="line"/>
      <point x="246" y="490" type="line"/>
    </contour>
  </outline>
</glyph>
<glyph name="periodcentered" format="2">
  <advance width="387"/>
  <unicode hex="00B7"/>
  <anchor x="194" y="276" name="_top"/>
  <anchor x="194" y="618" name="top"/>
  <outline>
    <contour>
      <point x="193" y="420" type="curve" smooth="yes"/>
      <point x="267" y="420"/>
      <point x="303" y="459"/>
      <point x="303" y="527" type="curve" smooth="yes"/>
      <point x="303" y="533" type="line" smooth="yes"/>
      <point x="303" y="600"/>
      <point x="267" y="641"/>
      <point x="193" y="641" type="curve" smooth="yes"/>
      <point x="120" y="641"/>
      <point x="84" y="600"/>
      <point x="84" y="533" type="curve" smooth="yes"/>
      <point x="84" y="527" type="line" smooth="yes"/>
      <point x="84" y="459"/>
      <point x="120" y="420"/>
    </contour>
  </outline>
</glyph>
<glyph name="onequarter" format="2">
  <advance width="1397"/>
  <unicode hex="00BC"/>
  <outline>
    <contour>
      <point x="350" y="600" type="line"/>
      <point x="350" y="1278" type="line"/>
      <point x="215" y="1278" type="line"/>
      <point x="32" y="1174" type="line"/>
      <point x="27" y="1036" type="line"/>
      <point x="200" y="1131" type="line"/>
      <point x="208" y="1131" type="line"/>
      <point x="208" y="600" type="line"/>
    </contour>
    <contour>
      <point x="294" y="0" type="line"/>
      <point x="1157" y="1278" type="line"/>
      <point x="1001" y="1278" type="line"/>
      <point x="136" y="0" type="line"/>
    </contour>
    <contour>
      <point x="1287" y="0" type="line"/>
      <point x="1287" y="678" type="line"/>
      <point x="1064" y="678" type="line"/>
      <point x="772" y="241" type="line"/>
      <point x="772" y="113" type="line"/>
      <point x="1380" y="113" type="line"/>
      <point x="1380" y="229" type="line"/>
      <point x="853" y="229" type="line"/>
      <point x="920" y="189" type="line"/>
      <point x="920" y="237" type="line"/>
      <point x="1142" y="579" type="line"/>
      <point x="1156" y="579" type="line"/>
      <point x="1151" y="408" type="line"/>
      <point x="1151" y="0" type="line"/>
    </contour>
  </outline>
</glyph>
<glyph name="onehalf" format="2">
  <advance width="1460"/>
  <unicode hex="00BD"/>
  <outline>
    <contour>
      <point x="350" y="600" type="line"/>
      <point x="350" y="1278" type="line"/>
      <point x="215" y="1278" type="line"/>
      <point x="32" y="1174" type="line"/>
      <point x="27" y="1036" type="line"/>
      <point x="200" y="1131" type="line"/>
      <point x="208" y="1131" type="line"/>
      <point x="208" y="600" type="line"/>
    </contour>
    <contour>
      <point x="294" y="0" type="line"/>
      <point x="1157" y="1278" type="line"/>
      <point x="1001" y="1278" type="line"/>
      <point x="136" y="0" type="line"/>
    </contour>
    <contour>
      <point x="1418" y="0" type="line"/>
      <point x="1418" y="122" type="line"/>
      <point x="1040" y="122" type="line"/>
      <point x="1105" y="99" type="line"/>
      <point x="1105" y="129" type="line"/>
      <point x="1226" y="220" type="line" smooth="yes"/>
      <point x="1341" y="309"/>
      <point x="1409" y="379"/>
      <point x="1409" y="487" type="curve" smooth="yes"/>
      <point x="1409" y="498" type="line" smooth="yes"/>
      <point x="1409" y="620"/>
      <point x="1319" y="693"/>
      <point x="1150" y="693" type="curve" smooth="yes"/>
      <point x="1064" y="693"/>
      <point x="977" y="670"/>
      <point x="924" y="642" type="curve"/>
      <point x="912" y="518" type="line"/>
      <point x="973" y="545"/>
      <point x="1042" y="570"/>
      <point x="1127" y="570" type="curve" smooth="yes"/>
      <point x="1221" y="570"/>
      <point x="1259" y="538"/>
      <point x="1259" y="482" type="curve" smooth="yes"/>
      <point x="1259" y="475" type="line" smooth="yes"/>
      <point x="1259" y="410"/>
      <point x="1199" y="355"/>
      <point x="1107" y="283" type="curve" smooth="yes"/>
      <point x="904" y="124" type="line"/>
      <point x="904" y="0" type="line"/>
    </contour>
  </outline>
</glyph>
<glyph name="threequarters" format="2">
  <advance width="1580"/>
  <unicode hex="00BE"/>
  <outline>
    <contour>
      <point x="280" y="584" type="curve" smooth="yes"/>
      <point x="478" y="584"/>
      <point x="566" y="668"/>
      <point x="566" y="785" type="curve" smooth="yes"/>
      <point x="566" y="794" type="line" smooth="yes"/>
      <point x="566" y="886"/>
      <point x="521" y="936"/>
      <point x="425" y="954" type="curve"/>
      <point x="430" y="943" type="line"/>
      <point x="430" y="959" type="line"/>
      <point x="519" y="974"/>
      <point x="561" y="1025"/>
      <point x="561" y="1104" type="curve" smooth="yes"/>
      <point x="561" y="1111" type="line" smooth="yes"/>
      <point x="561" y="1228"/>
      <point x="471" y="1292"/>
      <point x="288" y="1292" type="curve" smooth="yes"/>
      <point x="188" y="1292"/>
      <point x="109" y="1269"/>
      <point x="57" y="1242" type="curve"/>
      <point x="44" y="1126" type="line"/>
      <point x="98" y="1149"/>
      <point x="176" y="1174"/>
      <point x="268" y="1174" type="curve" smooth="yes"/>
      <point x="379" y="1174"/>
      <point x="412" y="1144"/>
      <point x="412" y="1092" type="curve" smooth="yes"/>
      <point x="412" y="1086" type="line" smooth="yes"/>
      <point x="412" y="1032"/>
      <point x="372" y="1004"/>
      <point x="271" y="1002" type="curve" smooth="yes"/>
      <point x="139" y="999" type="line"/>
      <point x="139" y="893" type="line"/>
      <point x="271" y="890" type="line" smooth="yes"/>
      <point x="380" y="888"/>
      <point x="415" y="857"/>
      <point x="415" y="803" type="curve" smooth="yes"/>
      <point x="415" y="798" type="line" smooth="yes"/>
      <point x="415" y="744"/>
      <point x="382" y="705"/>
      <point x="259" y="705" type="curve" smooth="yes"/>
      <point x="175" y="705"/>
      <point x="96" y="728"/>
      <point x="40" y="752" type="curve"/>
      <point x="53" y="627" type="line"/>
      <point x="99" y="607"/>
      <point x="185" y="584"/>
    </contour>
    <contour>
      <point x="477" y="0" type="line"/>
      <point x="1340" y="1278" type="line"/>
      <point x="1184" y="1278" type="line"/>
      <point x="319" y="0" type="line"/>
    </contour>
    <contour>
      <point x="1470" y="0" type="line"/>
      <point x="1470" y="678" type="line"/>
      <point x="1247" y="678" type="line"/>
      <point x="955" y="241" type="line"/>
      <point x="955" y="113" type="line"/>
      <point x="1563" y="113" type="line"/>
      <point x="1563" y="229" type="line"/>
      <point x="1036" y="229" type="line"/>
      <point x="1103" y="189" type="line"/>
      <point x="1103" y="237" type="line"/>
      <point x="1325" y="579" type="line"/>
      <point x="1339" y="579" type="line"/>
      <point x="1334" y="408" type="line"/>
      <point x="1334" y="0" type="line"/>
    </contour>
  </outline>
</glyph>
<glyph name="Acircumflex" format="2">
  <advance width="1179"/>
  <unicode hex="00C2"/>
  <anchor x="590" y="0" name="bottom"/>
  <anchor x="1176" y="0" name="ogonek"/>
  <anchor x="591" y="1610" name="top"/>
  <outline>
    <contour>
      <point x="245" y="0" type="line"/>
      <point x="577" y="1144" type="line"/>
      <point x="602" y="1144" type="line"/>
      <point x="934" y="0" type="line"/>
      <point x="1137" y="0" type="line"/>
      <point x="745" y="1278" type="line"/>
      <point x="434" y="1278" type="line"/>
      <point x="42" y="0" type="line"/>
    </contour>
    <contour>
      <point x="879" y="357" type="line"/>
      <point x="879" y="523" type="line"/>
      <point x="298" y="523" type="line"/>
      <point x="298" y="357" type="line"/>
    </contour>
    <contour>
      <point x="270" y="1399" type="line"/>
      <point x="270" y="1396" type="line"/>
      <point x="435" y="1396" type="line"/>
      <point x="586" y="1544" type="line"/>
      <point x="594" y="1544" type="line"/>
      <point x="745" y="1396" type="line"/>
      <point x="910" y="1396" type="line"/>
      <point x="910" y="1399" type="line"/>
      <point x="693" y="1651" type="line"/>
      <point x="487" y="1651" type="line"/>
    </contour>
  </outline>
</glyph>
<glyph name="Aring" format="2">
  <advance width="1179"/>
  <unicode hex="00C5"/>
  <anchor x="590" y="0" name="bottom"/>
  <anchor x="1176" y="0" name="ogonek"/>
  <anchor x="590" y="1667" name="top"/>
  <outline>
    <contour>
      <point x="245" y="0" type="line"/>
      <point x="577" y="1144" type="line"/>
      <point x="602" y="1144" type="line"/>
      <point x="934" y="0" type="line"/>
      <point x="1137" y="0" type="line"/>
      <point x="745" y="1278" type="line"/>
      <point x="434" y="1278" type="line"/>
      <point x="42" y="0" type="line"/>
    </contour>
    <contour>
      <point x="879" y="357" type="line"/>
      <point x="879" y="523" type="line"/>
      <point x="298" y="523" type="line"/>
      <point x="298" y="357" type="line"/>
    </contour>
    <contour>
      <point x="391" y="1524" type="line" smooth="yes"/>
      <point x="391" y="1424"/>
      <point x="456" y="1356"/>
      <point x="590" y="1356" type="curve" smooth="yes"/>
      <point x="722" y="1356"/>
      <point x="788" y="1424"/>
      <point x="788" y="1524" type="curve" smooth="yes"/>
      <point x="788" y="1528" type="line" smooth="yes"/>
      <point x="788" y="1630"/>
      <point x="722" y="1697"/>
      <point x="590" y="1697" type="curve" smooth="yes"/>
      <point x="456" y="1697"/>
      <point x="391" y="1630"/>
      <point x="391" y="1528" type="curve" smooth="yes"/>
    </contour>
    <contour>
      <point x="506" y="1528" type="line" smooth="yes"/>
      <point x="506" y="1575"/>
      <point x="535" y="1601"/>
      <point x="590" y="1601" type="curve" smooth="yes"/>
      <point x="644" y="1601"/>
      <point x="673" y="1575"/>
      <point x="673" y="1528" type="curve" smooth="yes"/>
      <point x="673" y="1525" type="line" smooth="yes"/>
      <point x="673" y="1478"/>
      <point x="644" y="1452"/>
      <point x="590" y="1452" type="curve" smooth="yes"/>
      <point x="535" y="1452"/>
      <point x="506" y="1478"/>
      <point x="506" y="1525" type="curve" smooth="yes"/>
    </contour>
  </outline>
</glyph>
<glyph name="Egrave" format="2">
  <advance width="1055"/>
  <unicode hex="00C8"/>
  <anchor x="556" y="0" name="bottom"/>
  <anchor x="987" y="0" name="ogonek"/>
  <anchor x="449" y="1615" name="top"/>
  <anchor x="20" y="1278" name="topleft"/>
  <outline>
    <contour>
      <point x="340" y="0" type="line"/>
      <point x="340" y="1278" type="line"/>
      <point x="142" y="1278" type="line"/>
      <point x="142" y="0" type="line"/>
    </contour>
    <contour>
      <point x="962" y="0" type="line"/>
      <point x="962" y="168" type="line"/>
      <point x="201" y="168" type="line"/>
      <point x="201" y="0" type="line"/>
    </contour>
    <contour>
      <point x="940" y="568" type="line"/>
      <point x="940" y="734" type="line"/>
      <point x="256" y="734" type="line"/>
      <point x="256" y="568" type="line"/>
    </contour>
    <contour>
      <point x="955" y="1111" type="line"/>
      <point x="955" y="1278" type="line"/>
      <point x="200" y="1278" type="line"/>
      <point x="200" y="1111" type="line"/>
    </contour>
    <contour>
      <point x="183" y="1651" type="line"/>
      <point x="183" y="1648" type="line"/>
      <point x="458" y="1396" type="line"/>
      <point x="644" y="1396" type="line"/>
      <point x="644" y="1398" type="line"/>
      <point x="408" y="1651" type="line"/>
    </contour>
  </outline>
</glyph>
<glyph name="Ecircumflex" format="2">
  <advance width="1055"/>
  <unicode hex="00CA"/>
  <anchor x="556" y="0" name="bottom"/>
  <anchor x="987" y="0" name="ogonek"/>
  <anchor x="557" y="1610" name="top"/>
  <anchor x="20" y="1278" name="topleft"/>
  <outline>
    <contour>
      <point x="340" y="0" type="line"/>
      <point x="340" y="1278" type="line"/>
      <point x="142" y="1278" type="line"/>
      <point x="142" y="0" type="line"/>
    </contour>
    <contour>
      <point x="962" y="0" type="line"/>
      <point x="962" y="168" type="line"/>
      <point x="201" y="168" type="line"/>
      <point x="201" y="0" type="line"/>
    </contour>
    <contour>
      <point x="940" y="568" type="line"/>
      <point x="940" y="734" type="line"/>
      <point x="256" y="734" type="line"/>
      <point x="256" y="568" type="line"/>
    </contour>
    <contour>
      <point x="955" y="1111" type="line"/>
      <point x="955" y="1278" type="line"/>
      <point x="200" y="1278" type="line"/>
      <point x="200" y="1111" type="line"/>
    </contour>
    <contour>
      <point x="236" y="1399" type="line"/>
      <point x="236" y="1396" type="line"/>
      <point x="401" y="1396" type="line"/>
      <point x="552" y="1544" type="line"/>
      <point x="560" y="1544" type="line"/>
      <point x="711" y="1396" type="line"/>
      <point x="876" y="1396" type="line"/>
      <point x="876" y="1399" type="line"/>
      <point x="659" y="1651" type="line"/>
      <point x="453" y="1651" type="line"/>
    </contour>
  </outline>
</glyph>
<glyph name="Igrave" format="2">
  <advance width="487"/>
  <unicode hex="00CC"/>
  <anchor x="243" y="0" name="bottom"/>
  <anchor x="384" y="0" name="ogonek"/>
  <anchor x="136" y="1615" name="top"/>
  <anchor x="20" y="1278" name="topleft"/>
  <outline>
    <contour>
      <point x="344" y="1278" type="line"/>
      <point x="143" y="1278" type="line"/>
      <point x="143" y="0" type="line"/>
      <point x="344" y="0" type="line"/>
    </contour>
    <contour>
      <point x="-130" y="1651" type="line"/>
      <point x="-130" y="1648" type="line"/>
      <point x="145" y="1396" type="line"/>
      <point x="331" y="1396" type="line"/>
      <point x="331" y="1398" type="line"/>
      <point x="95" y="1651" type="line"/>
    </contour>
  </outline>
</glyph>
<glyph name="Icircumflex" format="2">
  <advance width="487"/>
  <unicode hex="00CE"/>
  <anchor x="243" y="0" name="bottom"/>
  <anchor x="384" y="0" name="ogonek"/>
  <anchor x="244" y="1610" name="top"/>
  <anchor x="20" y="1278" name="topleft"/>
  <outline>
    <contour>
      <point x="344" y="1278" type="line"/>
      <point x="143" y="1278" type="line"/>
      <point x="143" y="0" type="line"/>
      <point x="344" y="0" type="line"/>
    </contour>
    <contour>
      <point x="-77" y="1399" type="line"/>
      <point x="-77" y="1396" type="line"/>
      <point x="88" y="1396" type="line"/>
      <point x="239" y="1544" type="line"/>
      <point x="247" y="1544" type="line"/>
      <point x="398" y="1396" type="line"/>
      <point x="563" y="1396" type="line"/>
      <point x="563" y="1399" type="line"/>
      <point x="346" y="1651" type="line"/>
      <point x="140" y="1651" type="line"/>
    </contour>
  </outline>
</glyph>
<glyph name="Idieresis" format="2">
  <advance width="487"/>
  <unicode hex="00CF"/>
  <anchor x="243" y="0" name="bottom"/>
  <anchor x="384" y="0" name="ogonek"/>
  <anchor x="243" y="1602" name="top"/>
  <anchor x="20" y="1278" name="topleft"/>
  <outline>
    <contour>
      <point x="344" y="1278" type="line"/>
      <point x="143" y="1278" type="line"/>
      <point x="143" y="0" type="line"/>
      <point x="344" y="0" type="line"/>
    </contour>
    <contour>
      <point x="85" y="1419" type="curve" smooth="yes"/>
      <point x="153" y="1419"/>
      <point x="185" y="1457"/>
      <point x="185" y="1524" type="curve" smooth="yes"/>
      <point x="185" y="1531" type="line" smooth="yes"/>
      <point x="185" y="1597"/>
      <point x="153" y="1635"/>
      <point x="85" y="1635" type="curve" smooth="yes"/>
      <point x="19" y="1635"/>
      <point x="-14" y="1597"/>
      <point x="-14" y="1531" type="curve" smooth="yes"/>
      <point x="-14" y="1524" type="line" smooth="yes"/>
      <point x="-14" y="1457"/>
      <point x="19" y="1419"/>
    </contour>
    <contour>
      <point x="401" y="1419" type="curve" smooth="yes"/>
      <point x="467" y="1419"/>
      <point x="500" y="1457"/>
      <point x="500" y="1524" type="curve" smooth="yes"/>
      <point x="500" y="1531" type="line" smooth="yes"/>
      <point x="500" y="1597"/>
      <point x="467" y="1635"/>
      <point x="401" y="1635" type="curve" smooth="yes"/>
      <point x="334" y="1635"/>
      <point x="302" y="1597"/>
      <point x="302" y="1531" type="curve" smooth="yes"/>
      <point x="302" y="1524" type="line" smooth="yes"/>
      <point x="302" y="1457"/>
      <point x="334" y="1419"/>
    </contour>
  </outline>
</glyph>
<glyph name="Oacute" format="2">
  <advance width="1214"/>
  <unicode hex="00D3"/>
  <anchor x="607" y="0" name="bottom"/>
  <anchor x="607" y="639" name="center"/>
  <anchor x="876" y="5" name="ogonek"/>
  <anchor x="607" y="1615" name="top"/>
  <anchor x="6" y="1278" name="topleft"/>
  <anchor x="1059" y="1278" name="topright"/>
  <outline>
    <contour>
      <point x="607" y="-26" type="curve" smooth="yes"/>
      <point x="940" y="-26"/>
      <point x="1116" y="162"/>
      <point x="1116" y="499" type="curve" smooth="yes"/>
      <point x="1116" y="780" type="line" smooth="yes"/>
      <point x="1116" y="1116"/>
      <point x="940" y="1304"/>
      <point x="607" y="1304" type="curve" smooth="yes"/>
      <point x="273" y="1304"/>
      <point x="98" y="1116"/>
      <point x="98" y="780" type="curve" smooth="yes"/>
      <point x="98" y="499" type="line" smooth="yes"/>
      <point x="98" y="162"/>
      <point x="273" y="-26"/>
    </contour>
    <contour>
      <point x="607" y="141" type="curve" smooth="yes"/>
      <point x="404" y="141"/>
      <point x="302" y="268"/>
      <point x="302" y="491" type="curve" smooth="yes"/>
      <point x="302" y="788" type="line" smooth="yes"/>
      <point x="302" y="1012"/>
      <point x="404" y="1137"/>
      <point x="607" y="1137" type="curve" smooth="yes"/>
      <point x="809" y="1137"/>
      <point x="912" y="1012"/>
      <point x="912" y="788" type="curve" smooth="yes"/>
      <point x="912" y="491" type="line" smooth="yes"/>
      <point x="912" y="268"/>
      <point x="809" y="141"/>
    </contour>
    <contour>
      <point x="517" y="1398" type="line"/>
      <point x="517" y="1396" type="line"/>
      <point x="703" y="1396" type="line"/>
      <point x="978" y="1648" type="line"/>
      <point x="978" y="1651" type="line"/>
      <point x="753" y="1651" type="line"/>
    </contour>
  </outline>
</glyph>
<glyph name="Otilde" format="2">
  <advance width="1214"/>
  <unicode hex="00D5"/>
  <anchor x="607" y="0" name="bottom"/>
  <anchor x="607" y="639" name="center"/>
  <anchor x="876" y="5" name="ogonek"/>
  <anchor x="607" y="1611" name="top"/>
  <anchor x="6" y="1278" name="topleft"/>
  <anchor x="1059" y="1278" name="topright"/>
  <outline>
    <contour>
      <point x="607" y="-26" type="curve" smooth="yes"/>
      <point x="940" y="-26"/>
      <point x="1116" y="162"/>
      <point x="1116" y="499" type="curve" smooth="yes"/>
      <point x="1116" y="780" type="line" smooth="yes"/>
      <point x="1116" y="1116"/>
      <point x="940" y="1304"/>
      <point x="607" y="1304" type="curve" smooth="yes"/>
      <point x="273" y="1304"/>
      <point x="98" y="1116"/>
      <point x="98" y="780" type="curve" smooth="yes"/>
      <point x="98" y="499" type="line" smooth="yes"/>
      <point x="98" y="162"/>
      <point x="273" y="-26"/>
    </contour>
    <contour>
      <point x="607" y="141" type="curve" smooth="yes"/>
      <point x="404" y="141"/>
      <point x="302" y="268"/>
      <point x="302" y="491" type="curve" smooth="yes"/>
      <point x="302" y="788" type="line" smooth="yes"/>
      <point x="302" y="1012"/>
      <point x="404" y="1137"/>
      <point x="607" y="1137" type="curve" smooth="yes"/>
      <point x="809" y="1137"/>
      <point x="912" y="1012"/>
      <point x="912" y="788" type="curve" smooth="yes"/>
      <point x="912" y="491" type="line" smooth="yes"/>
      <point x="912" y="268"/>
      <point x="809" y="141"/>
    </contour>
    <contour>
      <point x="747" y="1415" type="curve" smooth="yes"/>
      <point x="859" y="1415"/>
      <point x="902" y="1483"/>
      <point x="902" y="1597" type="curve" smooth="yes"/>
      <point x="902" y="1628" type="line"/>
      <point x="779" y="1628" type="line"/>
      <point x="779" y="1619" type="line" smooth="yes"/>
      <point x="779" y="1575"/>
      <point x="766" y="1553"/>
      <point x="728" y="1553" type="curve" smooth="yes"/>
      <point x="660" y="1553"/>
      <point x="572" y="1617"/>
      <point x="467" y="1617" type="curve" smooth="yes"/>
      <point x="354" y="1617"/>
      <point x="311" y="1547"/>
      <point x="311" y="1434" type="curve" smooth="yes"/>
      <point x="311" y="1404" type="line"/>
      <point x="434" y="1404" type="line"/>
      <point x="434" y="1413" type="line" smooth="yes"/>
      <point x="434" y="1455"/>
      <point x="448" y="1478"/>
      <point x="486" y="1478" type="curve" smooth="yes"/>
      <point x="554" y="1478"/>
      <point x="646" y="1415"/>
    </contour>
  </outline>
</glyph>
<glyph name="Udieresis" format="2">
  <advance width="1234"/>
  <unicode hex="00DC"/>
  <anchor x="617" y="0" name="bottom"/>
  <anchor x="876" y="5" name="ogonek"/>
  <anchor x="617" y="1602" name="top"/>
  <anchor x="1213" y="1278" name="topright"/>
  <outline>
    <contour>
      <point x="617" y="-26" type="curve" smooth="yes"/>
      <point x="950" y="-26"/>
      <point x="1102" y="144"/>
      <point x="1102" y="466" type="curve" smooth="yes"/>
      <point x="1102" y="1278" type="line"/>
      <point x="901" y="1278" type="line"/>
      <point x="901" y="460" type="line" smooth="yes"/>
      <point x="901" y="254"/>
      <point x="818" y="145"/>
      <point x="617" y="145" type="curve" smooth="yes"/>
      <point x="416" y="145"/>
      <point x="333" y="254"/>
      <point x="333" y="460" type="curve" smooth="yes"/>
      <point x="333" y="1278" type="line"/>
      <point x="132" y="1278" type="line"/>
      <point x="132" y="466" type="line" smooth="yes"/>
      <point x="132" y="144"/>
      <point x="285" y="-26"/>
    </contour>
    <contour>
      <point x="459" y="1419" type="curve" smooth="yes"/>
      <point x="527" y="1419"/>
      <point x="559" y="1457"/>
      <point x="559" y="1524" type="curve" smooth="yes"/>
      <point x="559" y="1531" type="line" smooth="yes"/>
      <point x="559" y="1597"/>
      <point x="527" y="1635"/>
      <point x="459" y="1635" type="curve" smooth="yes"/>
      <point x="393" y="1635"/>
      <point x="360" y="1597"/>
      <point x="360" y="1531" type="curve" smooth="yes"/>
      <point x="360" y="1524" type="line" smooth="yes"/>
      <point x="360" y="1457"/>
      <point x="393" y="1419"/>
    </contour>
    <contour>
      <point x="775" y="1419" type="curve" smooth="yes"/>
      <point x="841" y="1419"/>
      <point x="874" y="1457"/>
      <point x="874" y="1524" type="curve" smooth="yes"/>
      <point x="874" y="1531" type="line" smooth="yes"/>
      <point x="874" y="1597"/>
      <point x="841" y="1635"/>
      <point x="775" y="1635" type="curve" smooth="yes"/>
      <point x="708" y="1635"/>
      <point x="676" y="1597"/>
      <point x="676" y="1531" type="curve" smooth="yes"/>
      <point x="676" y="1524" type="line" smooth="yes"/>
      <point x="676" y="1457"/>
      <point x="708" y="1419"/>
    </contour>
  </outline>
</glyph>
<glyph name="Yacute" format="2">
  <advance width="1112"/>
  <unicode hex="00DD"/>
  <anchor x="556" y="0" name="bottom"/>
  <anchor x="556" y="1615" name="top"/>
  <anchor x="20" y="1278" name="topleft"/>
  <outline>
    <contour>
      <point x="643" y="372" type="line"/>
      <point x="1082" y="1278" type="line"/>
      <point x="870" y="1278" type="line"/>
      <point x="653" y="813" type="line"/>
      <point x="563" y="602" type="line"/>
      <point x="550" y="602" type="line"/>
      <point x="460" y="813" type="line"/>
      <point x="242" y="1278" type="line"/>
      <point x="30" y="1278" type="line"/>
      <point x="470" y="372" type="line"/>
    </contour>
    <contour>
      <point x="655" y="0" type="line"/>
      <point x="655" y="558" type="line"/>
      <point x="458" y="558" type="line"/>
      <point x="458" y="0" type="line"/>
    </contour>
    <contour>
      <point x="466" y="1398" type="line"/>
      <point x="466" y="1396" type="line"/>
      <point x="652" y="1396" type="line"/>
      <point x="927" y="1648" type="line"/>
      <point x="927" y="1651" type="line"/>
      <point x="702" y="1651" type="line"/>
    </contour>
  </outline>
</glyph>
<glyph name="aring" format="2">
  <advance width="1002"/>
  <unicode hex="00E5"/>
  <anchor x="494" y="0" name="bottom"/>
  <anchor x="932" y="0" name="ogonek"/>
  <anchor x="494" y="1394" name="top"/>
  <outline>
    <contour>
      <point x="894" y="0" type="line"/>
      <point x="894" y="622" type="line" smooth="yes"/>
      <point x="894" y="852"/>
      <point x="788" y="1001"/>
      <point x="492" y="1001" type="curve" smooth="yes"/>
      <point x="330" y="1001"/>
      <point x="207" y="952"/>
      <point x="127" y="906" type="curve"/>
      <point x="109" y="742" type="line"/>
      <point x="203" y="792"/>
      <point x="321" y="838"/>
      <point x="459" y="838" type="curve" smooth="yes"/>
      <point x="628" y="838"/>
      <point x="701" y="769"/>
      <point x="701" y="619" type="curve"/>
      <point x="700" y="570" type="line"/>
      <point x="700" y="262" type="line"/>
      <point x="707" y="232" type="line"/>
      <point x="699" y="0" type="line"/>
    </contour>
    <contour>
      <point x="368" y="-22" type="curve" smooth="yes"/>
      <point x="578" y="-22"/>
      <point x="664" y="81"/>
      <point x="696" y="202" type="curve"/>
      <point x="732" y="202" type="line"/>
      <point x="705" y="333" type="line"/>
      <point x="679" y="227"/>
      <point x="587" y="141"/>
      <point x="432" y="141" type="curve" smooth="yes"/>
      <point x="319" y="141"/>
      <point x="264" y="191"/>
      <point x="264" y="280" type="curve" smooth="yes"/>
      <point x="264" y="294" type="line" smooth="yes"/>
      <point x="264" y="383"/>
      <point x="316" y="425"/>
      <point x="451" y="444" type="curve" smooth="yes"/>
      <point x="733" y="484" type="line"/>
      <point x="722" y="626" type="line"/>
      <point x="428" y="584" type="line" smooth="yes"/>
      <point x="180" y="549"/>
      <point x="69" y="469"/>
      <point x="69" y="283" type="curve" smooth="yes"/>
      <point x="69" y="253" type="line" smooth="yes"/>
      <point x="69" y="77"/>
      <point x="175" y="-22"/>
    </contour>
    <contour>
      <point x="295" y="1246" type="line" smooth="yes"/>
      <point x="295" y="1146"/>
      <point x="360" y="1078"/>
      <point x="494" y="1078" type="curve" smooth="yes"/>
      <point x="626" y="1078"/>
      <point x="692" y="1146"/>
      <point x="692" y="1246" type="curve" smooth="yes"/>
      <point x="692" y="1250" type="line" smooth="yes"/>
      <point x="692" y="1352"/>
      <point x="626" y="1419"/>
      <point x="494" y="1419" type="curve" smooth="yes"/>
      <point x="360" y="1419"/>
      <point x="295" y="1352"/>
      <point x="295" y="1250" type="curve" smooth="yes"/>
    </contour>
    <contour>
      <point x="410" y="1250" type="line" smooth="yes"/>
      <point x="410" y="1297"/>
      <point x="439" y="1323"/>
      <point x="494" y="1323" type="curve" smooth="yes"/>
      <point x="548" y="1323"/>
      <point x="577" y="1297"/>
      <point x="577" y="1250" type="curve" smooth="yes"/>
      <point x="577" y="1247" type="line" smooth="yes"/>
      <point x="577" y="1200"/>
      <point x="548" y="1174"/>
      <point x="494" y="1174" type="curve" smooth="yes"/>
      <point x="439" y="1174"/>
      <point x="410" y="1200"/>
      <point x="410" y="1247" type="curve" smooth="yes"/>
    </contour>
  </outline>
</glyph>
<glyph name="ccedilla" format="2">
  <advance width="873"/>
  <unicode hex="00E7"/>
  <anchor x="531" y="-389" name="bottom"/>
  <anchor x="487" y="978" name="top"/>
  <outline>
    <contour>
      <point x="515" y="-23" type="curve" smooth="yes"/>
      <point x="638" y="-23"/>
      <point x="735" y="15"/>
      <point x="796" y="54" type="curve"/>
      <point x="813" y="224" type="line"/>
      <point x="744" y="179"/>
      <point x="659" y="143"/>
      <point x="546" y="143" type="curve" smooth="yes"/>
      <point x="367" y="143"/>
      <point x="283" y="244"/>
      <point x="283" y="424" type="curve" smooth="yes"/>
      <point x="283" y="556" type="line" smooth="yes"/>
      <point x="283" y="740"/>
      <point x="367" y="839"/>
      <point x="546" y="839" type="curve" smooth="yes"/>
      <point x="658" y="839"/>
      <point x="740" y="803"/>
      <point x="804" y="758" type="curve"/>
      <point x="787" y="926" type="line"/>
      <point x="729" y="964"/>
      <point x="634" y="1002"/>
      <point x="515" y="1002" type="curve" smooth="yes"/>
      <point x="225" y="1002"/>
      <point x="86" y="842"/>
      <point x="86" y="560" type="curve" smooth="yes"/>
      <point x="86" y="419" type="line" smooth="yes"/>
      <point x="86" y="138"/>
      <point x="224" y="-23"/>
    </contour>
    <contour>
      <point x="426" y="21" type="line"/>
      <point x="404" y="-156" type="line"/>
      <point x="404" y="-156"/>
      <point x="409" y="-156"/>
      <point x="422" y="-157" type="curve" smooth="yes"/>
      <point x="535" y="-164"/>
      <point x="575" y="-177"/>
      <point x="575" y="-217" type="curve"/>
      <point x="575" y="-219" type="line"/>
      <point x="575" y="-253"/>
      <point x="539" y="-270"/>
      <point x="474" y="-270" type="curve" smooth="yes"/>
      <point x="421" y="-270"/>
      <point x="371" y="-261"/>
      <point x="330" y="-248" type="curve"/>
      <point x="352" y="-368" type="line"/>
      <point x="390" y="-378"/>
      <point x="444" y="-387"/>
      <point x="499" y="-387" type="curve" smooth="yes"/>
      <point x="642" y="-387"/>
      <point x="720" y="-338"/>
      <point x="720" y="-233" type="curve" smooth="yes"/>
      <point x="720" y="-227" type="line" smooth="yes"/>
      <point x="720" y="-134"/>
      <point x="656" y="-85"/>
      <point x="523" y="-79" type="curve" smooth="yes"/>
      <point x="500" y="-78"/>
      <point x="478" y="-79"/>
      <point x="455" y="-80" type="curve"/>
      <point x="537" y="-135" type="line"/>
      <point x="559" y="21" type="line"/>
    </contour>
  </outline>
</glyph>
<glyph name="iacute" format="2">
  <advance width="449"/>
  <unicode hex="00ED"/>
  <anchor x="225" y="0" name="bottom"/>
  <anchor x="361" y="0" name="ogonek"/>
  <anchor x="203" y="1333" name="top"/>
  <outline>
    <contour>
      <point x="323" y="0" type="line"/>
      <point x="323" y="978" type="line"/>
      <point x="127" y="978" type="line"/>
      <point x="127" y="0" type="line"/>
    </contour>
    <contour>
      <point x="147" y="1095" type="line"/>
      <point x="147" y="1093" type="line"/>
      <point x="308" y="1093" type="line"/>
      <point x="453" y="1366" type="line"/>
      <point x="453" y="1368" type="line"/>
      <point x="253" y="1368" type="line"/>
    </contour>
  </outline>
</glyph>
<glyph name="otilde" format="2">
  <advance width="1051"/>
  <unicode hex="00F5"/>
  <anchor x="526" y="0" name="bottom"/>
  <anchor x="531" y="400" name="center"/>
  <anchor x="772" y="5" name="ogonek"/>
  <anchor x="526" y="1320" name="top"/>
  <anchor x="953" y="978" name="topright"/>
  <outline>
    <contour>
      <point x="526" y="-25" type="curve" smooth="yes"/>
      <point x="814" y="-25"/>
      <point x="965" y="133"/>
      <point x="965" y="421" type="curve" smooth="yes"/>
      <point x="965" y="560" type="line" smooth="yes"/>
      <point x="965" y="847"/>
      <point x="814" y="1004"/>
      <point x="526" y="1004" type="curve" smooth="yes"/>
      <point x="238" y="1004"/>
      <point x="86" y="847"/>
      <point x="86" y="560" type="curve" smooth="yes"/>
      <point x="86" y="421" type="line" smooth="yes"/>
      <point x="86" y="133"/>
      <point x="238" y="-25"/>
    </contour>
    <contour>
      <point x="526" y="134" type="curve" smooth="yes"/>
      <point x="367" y="134"/>
      <point x="283" y="231"/>
      <point x="283" y="409" type="curve" smooth="yes"/>
      <point x="283" y="572" type="line" smooth="yes"/>
      <point x="283" y="748"/>
      <point x="367" y="845"/>
      <point x="526" y="845" type="curve" smooth="yes"/>
      <point x="685" y="845"/>
      <point x="769" y="748"/>
      <point x="769" y="572" type="curve" smooth="yes"/>
      <point x="769" y="409" type="line" smooth="yes"/>
      <point x="769" y="231"/>
      <point x="685" y="134"/>
    </contour>
    <contour>
      <point x="657" y="1117" type="curve" smooth="yes"/>
      <point x="769" y="1117"/>
      <point x="812" y="1186"/>
      <point x="812" y="1303" type="curve" smooth="yes"/>
      <point x="812" y="1338" type="line"/>
      <point x="689" y="1338" type="line"/>
      <point x="689" y="1324" type="line" smooth="yes"/>
      <point x="689" y="1278"/>
      <point x="676" y="1255"/>
      <point x="639" y="1255" type="curve" smooth="yes"/>
      <point x="575" y="1255"/>
      <point x="491" y="1327"/>
      <point x="393" y="1327" type="curve" smooth="yes"/>
      <point x="280" y="1327"/>
      <point x="237" y="1256"/>
      <point x="237" y="1140" type="curve" smooth="yes"/>
      <point x="237" y="1106" type="line"/>
      <point x="360" y="1106" type="line"/>
      <point x="360" y="1120" type="line" smooth="yes"/>
      <point x="360" y="1165"/>
      <point x="374" y="1188"/>
      <point x="410" y="1188" type="curve" smooth="yes"/>
      <point x="474" y="1188"/>
      <point x="562" y="1117"/>
    </contour>
  </outline>
</glyph>
<glyph name="odieresis" format="2">
  <advance width="1051"/>
  <unicode hex="00F6"/>
  <anchor x="526" y="0" name="bottom"/>
  <anchor x="531" y="400" name="center"/>
  <anchor x="772" y="5" name="ogonek"/>
  <anchor x="526" y="1320" name="top"/>
  <anchor x="953" y="978" name="topright"/>
  <outline>
    <contour>
      <point x="526" y="-25" type="curve" smooth="yes"/>
      <point x="814" y="-25"/>
      <point x="965" y="133"/>
      <point x="965" y="421" type="curve" smooth="yes"/>
      <point x="965" y="560" type="line" smooth="yes"/>
      <point x="965" y="847"/>
      <point x="814" y="1004"/>
      <point x="526" y="1004" type="curve" smooth="yes"/>
      <point x="238" y="1004"/>
      <point x="86" y="847"/>
      <point x="86" y="560" type="curve" smooth="yes"/>
      <point x="86" y="421" type="line" smooth="yes"/>
      <point x="86" y="133"/>
      <point x="238" y="-25"/>
    </contour>
    <contour>
      <point x="526" y="134" type="curve" smooth="yes"/>
      <point x="367" y="134"/>
      <point x="283" y="231"/>
      <point x="283" y="409" type="curve" smooth="yes"/>
      <point x="283" y="572" type="line" smooth="yes"/>
      <point x="283" y="748"/>
      <point x="367" y="845"/>
      <point x="526" y="845" type="curve" smooth="yes"/>
      <point x="685" y="845"/>
      <point x="769" y="748"/>
      <point x="769" y="572" type="curve" smooth="yes"/>
      <point x="769" y="409" type="line" smooth="yes"/>
      <point x="769" y="231"/>
      <point x="685" y="134"/>
    </contour>
    <contour>
      <point x="368" y="1122" type="curve" smooth="yes"/>
      <point x="436" y="1122"/>
      <point x="468" y="1160"/>
      <point x="468" y="1227" type="curve" smooth="yes"/>
      <point x="468" y="1234" type="line" smooth="yes"/>
      <point x="468" y="1300"/>
      <point x="436" y="1338"/>
      <point x="368" y="1338" type="curve" smooth="yes"/>
      <point x="302" y="1338"/>
      <point x="269" y="1300"/>
      <point x="269" y="1234" type="curve" smooth="yes"/>
      <point x="269" y="1227" type="line" smooth="yes"/>
      <point x="269" y="1160"/>
      <point x="302" y="1122"/>
    </contour>
    <contour>
      <point x="684" y="1122" type="curve" smooth="yes"/>
      <point x="750" y="1122"/>
      <point x="783" y="1160"/>
      <point x="783" y="1227" type="curve" smooth="yes"/>
      <point x="783" y="1234" type="line" smooth="yes"/>
      <point x="783" y="1300"/>
      <point x="750" y="1338"/>
      <point x="684" y="1338" type="curve" smooth="yes"/>
      <point x="617" y="1338"/>
      <point x="585" y="1300"/>
      <point x="585" y="1234" type="curve" smooth="yes"/>
      <point x="585" y="1227" type="line" smooth="yes"/>
      <point x="585" y="1160"/>
      <point x="617" y="1122"/>
    </contour>
  </outline>
</glyph>
<glyph name="ucircumflex" format="2">
  <advance width="1080"/>
  <unicode hex="00FB"/>
  <anchor x="541" y="0" name="bottom"/>
  <anchor x="994" y="0" name="ogonek"/>
  <anchor x="541" y="1327" name="top"/>
  <anchor x="1064" y="978" name="topright"/>
  <outline>
    <contour>
      <point x="112" y="978" type="line"/>
      <point x="112" y="352" type="line" smooth="yes"/>
      <point x="112" y="111"/>
      <point x="207" y="-22"/>
      <point x="436" y="-22" type="curve" smooth="yes"/>
      <point x="628" y="-22"/>
      <point x="723" y="78"/>
      <point x="757" y="201" type="curve"/>
      <point x="799" y="201" type="line"/>
      <point x="767" y="337" type="line"/>
      <point x="740" y="226"/>
      <point x="656" y="141"/>
      <point x="513" y="141" type="curve" smooth="yes"/>
      <point x="360" y="141"/>
      <point x="308" y="233"/>
      <point x="308" y="374" type="curve" smooth="yes"/>
      <point x="308" y="978" type="line"/>
    </contour>
    <contour>
      <point x="760" y="978" type="line"/>
      <point x="760" y="241" type="line"/>
      <point x="768" y="229" type="line"/>
      <point x="760" y="0" type="line"/>
      <point x="956" y="0" type="line"/>
      <point x="956" y="978" type="line"/>
    </contour>
    <contour>
      <point x="249" y="1096" type="line"/>
      <point x="249" y="1093" type="line"/>
      <point x="403" y="1093" type="line"/>
      <point x="537" y="1261" type="line"/>
      <point x="545" y="1261" type="line"/>
      <point x="679" y="1093" type="line"/>
      <point x="833" y="1093" type="line"/>
      <point x="833" y="1096" type="line"/>
      <point x="646" y="1368" type="line"/>
      <point x="436" y="1368" type="line"/>
    </contour>
  </outline>
</glyph>
<glyph name="udieresis" format="2">
  <advance width="1080"/>
  <unicode hex="00FC"/>
  <anchor x="541" y="0" name="bottom"/>
  <anchor x="994" y="0" name="ogonek"/>
  <anchor x="541" y="1320" name="top"/>
  <anchor x="1064" y="978" name="topright"/>
  <outline>
    <contour>
      <point x="112" y="978" type="line"/>
      <point x="112" y="352" type="line" smooth="yes"/>
      <point x="112" y="111"/>
      <point x="207" y="-22"/>
      <point x="436" y="-22" type="curve" smooth="yes"/>
      <point x="628" y="-22"/>
      <point x="723" y="78"/>
      <point x="757" y="201" type="curve"/>
      <point x="799" y="201" type="line"/>
      <point x="767" y="337" type="line"/>
      <point x="740" y="226"/>
      <point x="656" y="141"/>
      <point x="513" y="141" type="curve" smooth="yes"/>
      <point x="360" y="141"/>
      <point x="308" y="233"/>
      <point x="308" y="374" type="curve" smooth="yes"/>
      <point x="308" y="978" type="line"/>
    </contour>
    <contour>
      <point x="760" y="978" type="line"/>
      <point x="760" y="241" type="line"/>
      <point x="768" y="229" type="line"/>
      <point x="760" y="0" type="line"/>
      <point x="956" y="0" type="line"/>
      <point x="956" y="978" type="line"/>
    </contour>
    <contour>
      <point x="383" y="1122" type="curve" smooth="yes"/>
      <point x="451" y="1122"/>
      <point x="483" y="1160"/>
      <point x="483" y="1227" type="curve" smooth="yes"/>
      <point x="483" y="1234" type="line" smooth="yes"/>
      <point x="483" y="1300"/>
      <point x="451" y="1338"/>
      <point x="383" y="1338" type="curve" smooth="yes"/>
      <point x="317" y="1338"/>
      <point x="284" y="1300"/>
      <point x="284" y="1234" type="curve" smooth="yes"/>
      <point x="284" y="1227" type="line" smooth="yes"/>
      <point x="284" y="1160"/>
      <point x="317" y="1122"/>
    </contour>
    <contour>
      <point x="699" y="1122" type="curve" smooth="yes"/>
      <point x="765" y="1122"/>
      <point x="798" y="1160"/>
      <point x="798" y="1227" type="curve" smooth="yes"/>
      <point x="798" y="1234" type="line" smooth="yes"/>
      <point x="798" y="1300"/>
      <point x="765" y="1338"/>
      <point x="699" y="1338" type="curve" smooth="yes"/>
      <point x="632" y="1338"/>
      <point x="600" y="1300"/>
      <point x="600" y="1234" type="curve" smooth="yes"/>
      <point x="600" y="1227" type="line" smooth="yes"/>
      <point x="600" y="1160"/>
      <point x="632" y="1122"/>
    </contour>
  </outline>
</glyph>
<glyph name="gravecomb" format="2">
  <advance width="595"/>
  <unicode hex="0300"/>
  <anchor x="416" y="978" name="_top"/>
  <anchor x="304" y="1333" name="top"/>
  <outline>
    <contour>
      <point x="96" y="1368" type="line"/>
      <point x="96" y="1365" type="line"/>
      <point x="329" y="1093" type="line"/>
      <point x="501" y="1093" type="line"/>
      <point x="501" y="1096" type="line"/>
      <point x="312" y="1368" type="line"/>
    </contour>
  </outline>
</glyph>
<glyph name="uni0900" format="2">
  <unicode hex="0900"/>
  <anchor x="-265.25" y="1238" name="_top"/>
  <outline>
    <contour>
      <point x="-269.518" y="1617.75" type="curve" smooth="yes"/>
      <point x="-200.214" y="1617.75"/>
      <point x="-171.572" y="1574.55"/>
      <point x="-171.572" y="1505.36" type="curve" smooth="yes"/>
      <point x="-171.572" y="1495.44" type="line" smooth="yes"/>
      <point x="-171.572" y="1427.67"/>
      <point x="-200.214" y="1384.23"/>
      <point x="-269.518" y="1384.23" type="curve" smooth="yes"/>
      <point x="-339.821" y="1384.23"/>
      <point x="-367.178" y="1427.67"/>
      <point x="-367.178" y="1495.44" type="curve" smooth="yes"/>
      <point x="-367.178" y="1505.36" type="line" smooth="yes"/>
      <point x="-367.178" y="1574.55"/>
      <point x="-339.821" y="1617.75"/>
    </contour>
    <contour>
      <point x="-624.5" y="1514" type="line"/>
      <point x="-627.25" y="1539.5"/>
      <point x="-627.25" y="1552"/>
      <point x="-627.25" y="1561.5" type="curve" smooth="yes"/>
      <point x="-627.25" y="1758.9"/>
      <point x="-505.592" y="1861"/>
      <point x="-268.617" y="1861" type="curve" smooth="yes"/>
      <point x="-35.143" y="1861"/>
      <point x="88.75" y="1758.58"/>
      <point x="88.75" y="1562" type="curve" smooth="yes"/>
      <point x="88.75" y="1552.62"/>
      <point x="88.75" y="1539.49"/>
      <point x="85.75" y="1514" type="curve"/>
      <point x="-67.25" y="1514" type="line"/>
      <point x="-67.25" y="1544.2" type="line" smooth="yes"/>
      <point x="-67.25" y="1668.56"/>
      <point x="-130.699" y="1726.75"/>
      <point x="-268.57" y="1726.75" type="curve" smooth="yes"/>
      <point x="-406.441" y="1726.75"/>
      <point x="-471.75" y="1667.47"/>
      <point x="-471.75" y="1543.75" type="curve" smooth="yes"/>
      <point x="-471.75" y="1513.5" type="line"/>
    </contour>
  </outline>
  <guideline angle="90" x="-169" y="0"/>
  <guideline angle="0" x="0" y="1262"/>
</glyph>
<glyph name="Bindu.dv" format="2">
  <unicode hex="0902"/>
  <anchor x="-265.25" y="1238" name="_top"/>
  <outline>
    <contour>
      <point x="-263.75" y="1452.75" type="curve" smooth="yes"/>
      <point x="-348.669" y="1452.75"/>
      <point x="-386.846" y="1499.6"/>
      <point x="-386.846" y="1575.21" type="curve" smooth="yes"/>
      <point x="-386.846" y="1584.92" type="line" smooth="yes"/>
      <point x="-386.846" y="1659.26"/>
      <point x="-347.419" y="1706.88"/>
      <point x="-263.75" y="1706.88" type="curve" smooth="yes"/>
      <point x="-179.824" y="1706.88"/>
      <point x="-140.654" y="1660.51"/>
      <point x="-140.654" y="1584.92" type="curve" smooth="yes"/>
      <point x="-140.654" y="1575.21" type="line" smooth="yes"/>
      <point x="-140.654" y="1499.6"/>
      <point x="-177.824" y="1452.75"/>
    </contour>
  </outline>
</glyph>
<glyph name="vowelA.dv" format="2">
  <advance width="1518"/>
  <unicode hex="0905"/>
  <anchor x="1253.25" y="1238" name="top"/>
  <outline>
    <contour>
      <point x="1560" y="1124" type="line"/>
      <point x="973.5" y="1124" type="line"/>
      <point x="961.5" y="1269" type="line"/>
      <point x="1548.5" y="1269" type="line"/>
    </contour>
    <contour>
      <point x="1158.5" y="0" type="line"/>
      <point x="1158.5" y="1177.5" type="line"/>
      <point x="1348" y="1177.5" type="line"/>
      <point x="1348" y="0" type="line"/>
    </contour>
    <contour>
      <point x="54" y="280.5" type="line"/>
      <point x="163.961" y="215.5"/>
      <point x="276.461" y="177"/>
      <point x="415" y="177" type="curve" smooth="yes"/>
      <point x="579.978" y="177"/>
      <point x="660" y="237.219"/>
      <point x="660" y="376" type="curve" smooth="yes"/>
      <point x="660" y="396" type="line" smooth="yes"/>
      <point x="660" y="523.658"/>
      <point x="580.511" y="578.35"/>
      <point x="381.5" y="584" type="curve" smooth="yes"/>
      <point x="223" y="588.5" type="line"/>
      <point x="223" y="738" type="line"/>
      <point x="372" y="741.996" type="line" smooth="yes"/>
      <point x="575.028" y="747.441"/>
      <point x="646.5" y="802.12"/>
      <point x="646.5" y="926.254" type="curve" smooth="yes"/>
      <point x="646.5" y="940.749" type="line" smooth="yes"/>
      <point x="646.5" y="1066.6"/>
      <point x="585.091" y="1127.5"/>
      <point x="418.5" y="1127.5" type="curve" smooth="yes"/>
      <point x="308.193" y="1127.5"/>
      <point x="201.332" y="1101"/>
      <point x="99" y="1050.5" type="curve"/>
      <point x="110.5" y="1218.5" type="line"/>
      <point x="196.989" y="1258.65"/>
      <point x="306.004" y="1285"/>
      <point x="440" y="1285" type="curve" smooth="yes"/>
      <point x="717.349" y="1285"/>
      <point x="836" y="1168.15"/>
      <point x="836" y="969.063" type="curve" smooth="yes"/>
      <point x="836" y="956" type="line" smooth="yes"/>
      <point x="836" y="804.702"/>
      <point x="756.75" y="703.88"/>
      <point x="547.5" y="694" type="curve"/>
      <point x="550" y="629" type="line"/>
      <point x="772.616" y="594.022"/>
      <point x="850.5" y="500.426"/>
      <point x="850.5" y="352" type="curve" smooth="yes"/>
      <point x="850.5" y="339" type="line" smooth="yes"/>
      <point x="850.5" y="126.15"/>
      <point x="717.629" y="17"/>
      <point x="433.5" y="17" type="curve" smooth="yes"/>
      <point x="282.6" y="17"/>
      <point x="159.053" y="48.1561"/>
      <point x="65" y="102" type="curve"/>
    </contour>
    <contour>
      <point x="537.5" y="710" type="line"/>
      <point x="679.5" y="726.5" type="line"/>
      <point x="682" y="709.5" type="line"/>
      <point x="769.506" y="720.245"/>
      <point x="824.258" y="724"/>
      <point x="948.5" y="724" type="curve" smooth="yes"/>
      <point x="1227" y="724" type="line"/>
      <point x="1227" y="569" type="line"/>
      <point x="952.5" y="569" type="line" smooth="yes"/>
      <point x="827.208" y="569"/>
      <point x="768.615" y="581"/>
      <point x="683" y="604.5" type="curve"/>
      <point x="678" y="582" type="line"/>
      <point x="537.5" y="613" type="line"/>
    </contour>
  </outline>
  <guideline angle="90" x="1684" y="0"/>
  <guideline angle="90" x="446" y="0"/>
</glyph>
<glyph name="vowelU.dv" format="2">
  <advance width="1006"/>
  <unicode hex="0909"/>
  <anchor x="882.5" y="23" name="bottom3"/>
  <anchor x="483.25" y="42.5" name="bottom5"/>
  <anchor x="541.75" y="1238" name="top"/>
  <outline>
    <contour>
      <point x="-33" y="1124" type="line"/>
      <point x="-45" y="1269" type="line"/>
      <point x="1037" y="1269" type="line"/>
      <point x="1049" y="1124" type="line"/>
    </contour>
    <contour>
      <point x="760" y="1156.5" type="line"/>
      <point x="832.072" y="1117.78"/>
      <point x="862.5" y="1038.03"/>
      <point x="862.5" y="944.5" type="curve" smooth="yes"/>
      <point x="862.5" y="933.246" type="line" smooth="yes"/>
      <point x="862.5" y="782.415"/>
      <point x="798.358" y="686"/>
      <point x="604" y="660.5" type="curve"/>
      <point x="604" y="652.5" type="line"/>
      <point x="801.417" y="632.352"/>
      <point x="892" y="522.745"/>
      <point x="892" y="352.211" type="curve" smooth="yes"/>
      <point x="892" y="339.349" type="line" smooth="yes"/>
      <point x="892" y="101.287"/>
      <point x="748" y="-12.5"/>
      <point x="444" y="-12.5" type="curve" smooth="yes"/>
      <point x="295.5" y="-12.5"/>
      <point x="177.892" y="19"/>
      <point x="82.6622" y="72.1302" type="curve"/>
      <point x="70.5" y="250" type="line"/>
      <point x="177.667" y="185.5"/>
      <point x="302.333" y="147"/>
      <point x="434" y="147" type="curve" smooth="yes"/>
      <point x="618.15" y="147"/>
      <point x="696" y="212.839"/>
      <point x="696" y="352.964" type="curve" smooth="yes"/>
      <point x="696" y="366.733" type="line" smooth="yes"/>
      <point x="696" y="502.882"/>
      <point x="630.769" y="564.335"/>
      <point x="372.5" y="569.961" type="curve" smooth="yes"/>
      <point x="210" y="573.5" type="line"/>
      <point x="210" y="738" type="line"/>
      <point x="371.5" y="740.5" type="line" smooth="yes"/>
      <point x="609.764" y="744.188"/>
      <point x="667.5" y="812"/>
      <point x="667.5" y="943.5" type="curve" smooth="yes"/>
      <point x="667.5" y="955" type="line" smooth="yes"/>
      <point x="667.5" y="1045.5"/>
      <point x="639.706" y="1108.31"/>
      <point x="557" y="1156.5" type="curve"/>
    </contour>
  </outline>
  <guideline angle="90" x="692" y="0"/>
</glyph>
<glyph name="vowelUu.dv" format="2">
  <advance width="1536"/>
  <unicode hex="090A"/>
  <anchor x="882.5" y="23" name="bottom3"/>
  <anchor x="483.25" y="42.5" name="bottom5"/>
  <anchor x="690" y="1238" name="top"/>
  <outline>
    <contour>
      <point x="930.75" y="1124" type="line"/>
      <point x="918.75" y="1268.75" type="line"/>
      <point x="1565.75" y="1268.75" type="line"/>
      <point x="1578" y="1124" type="line"/>
    </contour>
    <contour>
      <point x="1093" y="5.5" type="line"/>
      <point x="1207.29" y="112.591"/>
      <point x="1247.75" y="228.332"/>
      <point x="1247.75" y="335.578" type="curve" smooth="yes"/>
      <point x="1247.75" y="347.243" type="line" smooth="yes"/>
      <point x="1247.75" y="483.493"/>
      <point x="1198.34" y="550.25"/>
      <point x="1087.83" y="550.25" type="curve" smooth="yes"/>
      <point x="986.622" y="550.25"/>
      <point x="914.936" y="481.117"/>
      <point x="885" y="354.25" type="curve"/>
      <point x="782.25" y="481.878" type="line"/>
      <point x="825.123" y="617.772"/>
      <point x="926.377" y="710.5"/>
      <point x="1106.83" y="710.5" type="curve" smooth="yes"/>
      <point x="1338.23" y="710.5"/>
      <point x="1442.75" y="572.23"/>
      <point x="1442.75" y="361.251" type="curve" smooth="yes"/>
      <point x="1442.75" y="349.087" type="line" smooth="yes"/>
      <point x="1442.75" y="208.634"/>
      <point x="1409.91" y="100.067"/>
      <point x="1322.2" y="5.49437" type="curve"/>
    </contour>
    <contour>
      <point x="-33" y="1124" type="line"/>
      <point x="-45" y="1269" type="line"/>
      <point x="1037" y="1269" type="line"/>
      <point x="1049" y="1124" type="line"/>
    </contour>
    <contour>
      <point x="760" y="1156.5" type="line"/>
      <point x="832.072" y="1117.78"/>
      <point x="862.5" y="1038.03"/>
      <point x="862.5" y="944.5" type="curve" smooth="yes"/>
      <point x="862.5" y="933.246" type="line" smooth="yes"/>
      <point x="862.5" y="782.415"/>
      <point x="798.358" y="686"/>
      <point x="604" y="660.5" type="curve"/>
      <point x="604" y="652.5" type="line"/>
      <point x="801.417" y="632.352"/>
      <point x="892" y="522.745"/>
      <point x="892" y="352.211" type="curve" smooth="yes"/>
      <point x="892" y="339.349" type="line" smooth="yes"/>
      <point x="892" y="101.287"/>
      <point x="748" y="-12.5"/>
      <point x="444" y="-12.5" type="curve" smooth="yes"/>
      <point x="295.5" y="-12.5"/>
      <point x="177.892" y="19"/>
      <point x="82.6622" y="72.1302" type="curve"/>
      <point x="70.5" y="250" type="line"/>
      <point x="177.667" y="185.5"/>
      <point x="302.333" y="147"/>
      <point x="434" y="147" type="curve" smooth="yes"/>
      <point x="618.15" y="147"/>
      <point x="696" y="212.839"/>
      <point x="696" y="352.964" type="curve" smooth="yes"/>
      <point x="696" y="366.733" type="line" smooth="yes"/>
      <point x="696" y="502.882"/>
      <point x="630.769" y="564.335"/>
      <point x="372.5" y="569.961" type="curve" smooth="yes"/>
      <point x="210" y="573.5" type="line"/>
      <point x="210" y="738" type="line"/>
      <point x="371.5" y="740.5" type="line" smooth="yes"/>
      <point x="609.764" y="744.188"/>
      <point x="667.5" y="812"/>
      <point x="667.5" y="943.5" type="curve" smooth="yes"/>
      <point x="667.5" y="955" type="line" smooth="yes"/>
      <point x="667.5" y="1045.5"/>
      <point x="639.706" y="1108.31"/>
      <point x="557" y="1156.5" type="curve"/>
    </contour>
  </outline>
</glyph>
<glyph name="vowelRu.dv" format="2">
  <advance width="1670"/>
  <unicode hex="090B"/>
  <anchor x="1260.75" y="23" name="bottom3"/>
  <anchor x="853" y="42.5" name="bottom5"/>
  <anchor x="852.75" y="1238" name="top"/>
  <outline>
    <contour>
      <point x="1705.5" y="1124" type="line"/>
      <point x="-30" y="1124" type="line"/>
      <point x="-41.5" y="1269" type="line"/>
      <point x="1693.5" y="1269" type="line"/>
    </contour>
    <contour>
      <point x="1336.5" y="721.5" type="line"/>
      <point x="1390.5" y="580.5" type="line"/>
      <point x="907.5" y="387.5" type="line"/>
      <point x="905.5" y="554.5" type="line"/>
    </contour>
    <contour>
      <point x="1407" y="941" type="line"/>
      <point x="1436" y="863.349"/>
      <point x="1454.5" y="788.642"/>
      <point x="1467" y="698.5" type="curve"/>
      <point x="1401.24" y="592.5" type="line"/>
      <point x="1232" y="574.5" type="line"/>
      <point x="1232" y="941" type="line"/>
    </contour>
    <contour>
      <point x="1151.37" y="45" type="curve"/>
      <point x="1139.5" y="202" type="line"/>
      <point x="1176.11" y="185"/>
      <point x="1218.12" y="174.5"/>
      <point x="1265.19" y="174.5" type="curve" smooth="yes"/>
      <point x="1354.82" y="174.5"/>
      <point x="1404" y="216.75"/>
      <point x="1404" y="325.5" type="curve" smooth="yes"/>
      <point x="1404" y="342.5" type="line" smooth="yes"/>
      <point x="1404" y="443.5"/>
      <point x="1364.6" y="515.5"/>
      <point x="1269" y="567.5" type="curve"/>
      <point x="1391.57" y="636" type="line"/>
      <point x="1527.54" y="566.783"/>
      <point x="1587" y="466.95"/>
      <point x="1587" y="322.5" type="curve" smooth="yes"/>
      <point x="1587" y="303.5" type="line" smooth="yes"/>
      <point x="1587" y="95"/>
      <point x="1477.28" y="17"/>
      <point x="1293.64" y="17" type="curve" smooth="yes"/>
      <point x="1241.24" y="17"/>
      <point x="1193.05" y="26.2059"/>
    </contour>
    <contour>
      <point x="948.5" y="0.5" type="line"/>
      <point x="758.5" y="0.5" type="line"/>
      <point x="758.5" y="1168.5" type="line"/>
      <point x="948.5" y="1168.5" type="line"/>
    </contour>
    <contour>
      <point x="796" y="349" type="line"/>
      <point x="94.5" y="49.5" type="line"/>
      <point x="94.5" y="227.202" type="line"/>
      <point x="387.5" y="352" type="line"/>
      <point x="406" y="345" type="line"/>
      <point x="463.5" y="376.911"/>
      <point x="518.425" y="406.145"/>
      <point x="577.5" y="429.759" type="curve" smooth="yes"/>
      <point x="794.5" y="516.5" type="line"/>
    </contour>
    <contour>
      <point x="458" y="355" type="line"/>
      <point x="274" y="295" type="line"/>
      <point x="357.788" y="368.714"/>
      <point x="381" y="428.11"/>
      <point x="381" y="570.218" type="curve" smooth="yes"/>
      <point x="381" y="595.715" type="line" smooth="yes"/>
      <point x="381" y="720.751"/>
      <point x="338.622" y="779.5"/>
      <point x="238.251" y="779.5" type="curve" smooth="yes"/>
      <point x="181.041" y="779.5"/>
      <point x="132.809" y="765.5"/>
      <point x="85" y="742.5" type="curve"/>
      <point x="98" y="901.5" type="line"/>
      <point x="145.02" y="925"/>
      <point x="206.433" y="938"/>
      <point x="273.673" y="938" type="curve" smooth="yes"/>
      <point x="473.852" y="938"/>
      <point x="563" y="831.556"/>
      <point x="563" y="639" type="curve" smooth="yes"/>
      <point x="563" y="624" type="line" smooth="yes"/>
      <point x="563" y="511.5"/>
      <point x="529" y="439.5"/>
      <point x="448" y="382.5" type="curve"/>
    </contour>
  </outline>
  <guideline angle="90" x="-280" y="0"/>
  <guideline angle="90" x="-30" y="0"/>
  <guideline angle="90" x="486" y="0"/>
</glyph>
<glyph name="vowelLru.dv" format="2">
  <advance width="1437"/>
  <unicode hex="090C"/>
  <anchor x="1170" y="-181" name="bottom3"/>
  <anchor x="1043.25" y="1238" name="top"/>
  <outline>
    <contour>
      <point x="1337.75" y="529.263" type="line" smooth="yes"/>
      <point x="1337.75" y="375.222"/>
      <point x="1303.35" y="296.8"/>
      <point x="1200.87" y="184.114" type="curve" smooth="yes"/>
      <point x="1101.17" y="74.4887"/>
      <point x="1063.5" y="42.3414"/>
      <point x="1063.5" y="-23.2129" type="curve" smooth="yes"/>
      <point x="1063.5" y="-81.6628"/>
      <point x="1107.7" y="-114"/>
      <point x="1194.75" y="-114" type="curve" smooth="yes"/>
      <point x="1261.16" y="-114"/>
      <point x="1317.89" y="-93.9038"/>
      <point x="1367" y="-62.75" type="curve"/>
      <point x="1356.74" y="-223.004" type="line"/>
      <point x="1311.11" y="-251.739"/>
      <point x="1248.58" y="-268"/>
      <point x="1165.14" y="-268" type="curve" smooth="yes"/>
      <point x="995.608" y="-268"/>
      <point x="878.25" y="-181.375"/>
      <point x="878.25" y="-26.1999" type="curve" smooth="yes"/>
      <point x="878.25" y="80.5957"/>
      <point x="919.226" y="144.117"/>
      <point x="1026.9" y="261.226" type="curve" smooth="yes"/>
      <point x="1115.51" y="357.606"/>
      <point x="1144.5" y="407.583"/>
      <point x="1144.5" y="516.408" type="curve" smooth="yes"/>
      <point x="1144.5" y="546.134" type="line"/>
      <point x="1337.75" y="556.319" type="line"/>
    </contour>
    <contour>
      <point x="852.75" y="1124" type="line"/>
      <point x="840.75" y="1268.75" type="line"/>
      <point x="1311.75" y="1268.75" type="line"/>
      <point x="1323.75" y="1124" type="line"/>
    </contour>
    <contour>
      <point x="1137" y="1174.75" type="line"/>
      <point x="1137" y="950.5" type="line"/>
      <point x="954.75" y="951.5" type="line"/>
      <point x="954.75" y="1174.75" type="line"/>
    </contour>
    <contour>
      <point x="-29.5" y="1123.5" type="line"/>
      <point x="-41.5" y="1268.75" type="line"/>
      <point x="1466.25" y="1268.75" type="line"/>
      <point x="1478.5" y="1123.5" type="line"/>
    </contour>
    <contour>
      <point x="1137" y="1152.5" type="line"/>
      <point x="1137" y="853.75" type="line"/>
      <point x="952.75" y="853.75" type="line"/>
      <point x="952.75" y="1152.5" type="line"/>
    </contour>
    <contour>
      <point x="109.25" y="465.375" type="curve" smooth="yes"/>
      <point x="109.25" y="499.9" type="line" smooth="yes"/>
      <point x="109.25" y="765.675"/>
      <point x="230.908" y="889.75"/>
      <point x="456.24" y="889.75" type="curve" smooth="yes"/>
      <point x="615.335" y="889.75"/>
      <point x="694.697" y="821.144"/>
      <point x="722.5" y="707" type="curve"/>
      <point x="730.5" y="707" type="line"/>
      <point x="758.887" y="821.196"/>
      <point x="848.59" y="889.75"/>
      <point x="1010.49" y="889.75" type="curve" smooth="yes"/>
      <point x="1223.82" y="889.75"/>
      <point x="1337.75" y="772.025"/>
      <point x="1337.75" y="544.75" type="curve" smooth="yes"/>
      <point x="1337.75" y="535" type="line"/>
      <point x="1143.5" y="522.989" type="line"/>
      <point x="1143.5" y="535.132" type="line" smooth="yes"/>
      <point x="1143.5" y="666.868"/>
      <point x="1093.81" y="730.5"/>
      <point x="985.711" y="730.5" type="curve" smooth="yes"/>
      <point x="880.604" y="730.5"/>
      <point x="828.371" y="670.211"/>
      <point x="824.859" y="534.349" type="curve" smooth="yes"/>
      <point x="818.75" y="298" type="line"/>
      <point x="633.75" y="298" type="line"/>
      <point x="628.765" y="534.491" type="line" smooth="yes"/>
      <point x="625.914" y="669.755"/>
      <point x="583.639" y="729.5"/>
      <point x="477.18" y="729.5" type="curve" smooth="yes"/>
      <point x="365.292" y="729.5"/>
      <point x="304.5" y="663.835"/>
      <point x="304.5" y="491.905" type="curve" smooth="yes"/>
      <point x="304.5" y="463.717" type="line" smooth="yes"/>
      <point x="304.5" y="267.047"/>
      <point x="370.052" y="147.085"/>
      <point x="537.75" y="5.25001" type="curve"/>
      <point x="537.75" y="0" type="line"/>
      <point x="301.98" y="0" type="line"/>
      <point x="164.387" y="115.309"/>
      <point x="109.25" y="259.802"/>
    </contour>
  </outline>
</glyph>
<glyph name="vowelChandraE.dv" format="2">
  <advance width="1140"/>
  <unicode hex="090D"/>
  <outline>
    <contour>
      <point x="913" y="1759.75" type="line"/>
      <point x="914.75" y="1738"/>
      <point x="915" y="1726.75"/>
      <point x="915" y="1716.25" type="curve" smooth="yes"/>
      <point x="915" y="1507.75"/>
      <point x="798.814" y="1411"/>
      <point x="573.744" y="1411" type="curve" smooth="yes"/>
      <point x="349.698" y="1411"/>
      <point x="233" y="1507.75"/>
      <point x="233" y="1716.25" type="curve" smooth="yes"/>
      <point x="233" y="1726"/>
      <point x="233" y="1737.5"/>
      <point x="235" y="1759.75" type="curve"/>
      <point x="398.25" y="1759.75" type="line"/>
      <point x="398.25" y="1756.26"/>
      <point x="398.25" y="1731.63"/>
      <point x="398.25" y="1729.61" type="curve" smooth="yes"/>
      <point x="398.25" y="1604.53"/>
      <point x="453.257" y="1550.5"/>
      <point x="573.751" y="1550.5" type="curve" smooth="yes"/>
      <point x="694.245" y="1550.5"/>
      <point x="749.75" y="1605.01"/>
      <point x="749.75" y="1729.61" type="curve" smooth="yes"/>
      <point x="749.75" y="1731.83"/>
      <point x="749.75" y="1757.04"/>
      <point x="749.75" y="1759.75" type="curve"/>
    </contour>
    <contour>
      <point x="-30" y="1124" type="line"/>
      <point x="-42" y="1269" type="line"/>
      <point x="1169.5" y="1269" type="line"/>
      <point x="1182" y="1124" type="line"/>
    </contour>
    <contour>
      <point x="347.5" y="583.5" type="line" smooth="yes"/>
      <point x="347.5" y="263.671"/>
      <point x="482.113" y="150.5"/>
      <point x="729" y="150.5" type="curve" smooth="yes"/>
      <point x="810.314" y="150.5"/>
      <point x="896.212" y="163.901"/>
      <point x="964.5" y="187" type="curve"/>
      <point x="947" y="24.5" type="line"/>
      <point x="881.491" y="1.26923"/>
      <point x="801.567" y="-8.5"/>
      <point x="713" y="-8.5" type="curve" smooth="yes"/>
      <point x="362.473" y="-8.5"/>
      <point x="156.5" y="170"/>
      <point x="156.5" y="581.5" type="curve" smooth="yes"/>
      <point x="156.5" y="1172.5" type="line"/>
      <point x="347.5" y="1172.5" type="line"/>
    </contour>
    <contour>
      <point x="997" y="805.5" type="line" smooth="yes"/>
      <point x="997" y="525.811"/>
      <point x="893" y="418"/>
      <point x="679.5" y="418" type="curve" smooth="yes"/>
      <point x="654.5" y="418"/>
      <point x="625" y="421.2"/>
      <point x="604" y="425.5" type="curve"/>
      <point x="604" y="576" type="line"/>
      <point x="607.607" y="576"/>
      <point x="618.892" y="576"/>
      <point x="622.5" y="576" type="curve" smooth="yes"/>
      <point x="762" y="576"/>
      <point x="807" y="631.825"/>
      <point x="807" y="810.5" type="curve" smooth="yes"/>
      <point x="807" y="1168" type="line"/>
      <point x="997" y="1168.5" type="line"/>
    </contour>
  </outline>
  <guideline angle="90" x="171" y="0"/>
</glyph>
<glyph name="vowelE.dv" format="2">
  <advance width="1140"/>
  <unicode hex="090F"/>
  <anchor x="999.75" y="23" name="bottom3"/>
  <anchor x="587" y="1238" name="top"/>
  <outline>
    <contour>
      <point x="-30" y="1124" type="line"/>
      <point x="-42" y="1269" type="line"/>
      <point x="1169.5" y="1269" type="line"/>
      <point x="1182" y="1124" type="line"/>
    </contour>
    <contour>
      <point x="347.5" y="583.5" type="line" smooth="yes"/>
      <point x="347.5" y="263.671"/>
      <point x="482.113" y="150.5"/>
      <point x="729" y="150.5" type="curve" smooth="yes"/>
      <point x="810.314" y="150.5"/>
      <point x="896.212" y="163.901"/>
      <point x="964.5" y="187" type="curve"/>
      <point x="947" y="24.5" type="line"/>
      <point x="881.491" y="1.26923"/>
      <point x="801.567" y="-8.5"/>
      <point x="713" y="-8.5" type="curve" smooth="yes"/>
      <point x="362.473" y="-8.5"/>
      <point x="156.5" y="170"/>
      <point x="156.5" y="581.5" type="curve" smooth="yes"/>
      <point x="156.5" y="1172.5" type="line"/>
      <point x="347.5" y="1172.5" type="line"/>
    </contour>
    <contour>
      <point x="997" y="805.5" type="line" smooth="yes"/>
      <point x="997" y="525.811"/>
      <point x="893" y="418"/>
      <point x="679.5" y="418" type="curve" smooth="yes"/>
      <point x="654.5" y="418"/>
      <point x="625" y="421.2"/>
      <point x="604" y="425.5" type="curve"/>
      <point x="604" y="576" type="line"/>
      <point x="607.607" y="576"/>
      <point x="618.892" y="576"/>
      <point x="622.5" y="576" type="curve" smooth="yes"/>
      <point x="762" y="576"/>
      <point x="807" y="631.825"/>
      <point x="807" y="810.5" type="curve" smooth="yes"/>
      <point x="807" y="1168" type="line"/>
      <point x="997" y="1168.5" type="line"/>
    </contour>
  </outline>
</glyph>
<glyph name="vowelAi.dv" format="2">
  <advance width="1140"/>
  <unicode hex="0910"/>
  <anchor x="999.75" y="23" name="bottom3"/>
  <anchor x="836" y="1238" name="top"/>
  <outline>
    <contour>
      <point x="-30" y="1124" type="line"/>
      <point x="-42" y="1269" type="line"/>
      <point x="1169.5" y="1269" type="line"/>
      <point x="1182" y="1124" type="line"/>
    </contour>
    <contour>
      <point x="347.5" y="583.5" type="line" smooth="yes"/>
      <point x="347.5" y="263.671"/>
      <point x="482.113" y="150.5"/>
      <point x="729" y="150.5" type="curve" smooth="yes"/>
      <point x="810.314" y="150.5"/>
      <point x="896.212" y="163.901"/>
      <point x="964.5" y="187" type="curve"/>
      <point x="947" y="24.5" type="line"/>
      <point x="881.491" y="1.26923"/>
      <point x="801.567" y="-8.5"/>
      <point x="713" y="-8.5" type="curve" smooth="yes"/>
      <point x="362.473" y="-8.5"/>
      <point x="156.5" y="170"/>
      <point x="156.5" y="581.5" type="curve" smooth="yes"/>
      <point x="156.5" y="1172.5" type="line"/>
      <point x="347.5" y="1172.5" type="line"/>
    </contour>
    <contour>
      <point x="997" y="805.5" type="line" smooth="yes"/>
      <point x="997" y="525.811"/>
      <point x="893" y="418"/>
      <point x="679.5" y="418" type="curve" smooth="yes"/>
      <point x="654.5" y="418"/>
      <point x="625" y="421.2"/>
      <point x="604" y="425.5" type="curve"/>
      <point x="604" y="576" type="line"/>
      <point x="607.607" y="576"/>
      <point x="618.892" y="576"/>
      <point x="622.5" y="576" type="curve" smooth="yes"/>
      <point x="762" y="576"/>
      <point x="807" y="631.825"/>
      <point x="807" y="810.5" type="curve" smooth="yes"/>
      <point x="807" y="1168" type="line"/>
      <point x="997" y="1168.5" type="line"/>
    </contour>
    <contour>
      <point x="178" y="1776.25" type="line"/>
      <point x="426.396" y="1776.25" type="line"/>
      <point x="538.666" y="1669.67"/>
      <point x="863.825" y="1361.51"/>
      <point x="971.25" y="1260.75" type="curve"/>
      <point x="971.25" y="1238" type="line"/>
      <point x="793.5" y="1238" type="line"/>
      <point x="793.5" y="1275.5" type="line"/>
      <point x="634.45" y="1358.59"/>
      <point x="541.698" y="1421.92"/>
      <point x="410.25" y="1542.5" type="curve" smooth="yes"/>
      <point x="178" y="1755.54" type="line"/>
    </contour>
  </outline>
</glyph>
<glyph name="Ka.dv" format="2">
  <advance width="1624"/>
  <unicode hex="0915"/>
  <anchor x="819" y="23.25" name="bottom"/>
  <anchor x="812" y="23.25" name="bottom2"/>
  <anchor x="1218.75" y="23.25" name="bottom3"/>
  <anchor x="818" y="42.75" name="bottom5"/>
  <anchor x="818" y="1238.25" name="top"/>
  <outline>
    <contour>
      <point x="-29.5" y="1124" type="line"/>
      <point x="-41.5" y="1269" type="line"/>
      <point x="1652" y="1269" type="line"/>
      <point x="1664" y="1124" type="line"/>
    </contour>
    <contour>
      <point x="104" y="540" type="curve" smooth="yes"/>
      <point x="104" y="565.5" type="line" smooth="yes"/>
      <point x="104" y="815.825"/>
      <point x="227.5" y="936.5"/>
      <point x="452" y="936.5" type="curve" smooth="yes"/>
      <point x="511" y="936.5"/>
      <point x="560" y="930.352"/>
      <point x="605" y="916.5" type="curve"/>
      <point x="617" y="764.5" type="line"/>
      <point x="576.688" y="775.5"/>
      <point x="538.336" y="781.5"/>
      <point x="494.533" y="781.5" type="curve" smooth="yes"/>
      <point x="368.178" y="781.5"/>
      <point x="298" y="715.54"/>
      <point x="298" y="564.207" type="curve" smooth="yes"/>
      <point x="298" y="546.002" type="line" smooth="yes"/>
      <point x="298" y="387.992"/>
      <point x="367.434" y="328.5"/>
      <point x="498.772" y="328.5" type="curve" smooth="yes"/>
      <point x="631.395" y="328.5"/>
      <point x="704.471" y="387.336"/>
      <point x="727.5" y="495" type="curve"/>
      <point x="736" y="327.5" type="line"/>
      <point x="712.5" y="327.5" type="line"/>
      <point x="680.634" y="230.911"/>
      <point x="592" y="169"/>
      <point x="445" y="169" type="curve" smooth="yes"/>
      <point x="227.947" y="169"/>
      <point x="104" y="287.319"/>
    </contour>
    <contour>
      <point x="1521" y="562.5" type="curve" smooth="yes"/>
      <point x="1521" y="540.613" type="line" smooth="yes"/>
      <point x="1521" y="285.191"/>
      <point x="1406.73" y="169"/>
      <point x="1179.7" y="169" type="curve" smooth="yes"/>
      <point x="1123.31" y="169"/>
      <point x="1069.92" y="176.5"/>
      <point x="1030.5" y="191.5" type="curve"/>
      <point x="1018.5" y="346" type="line"/>
      <point x="1057.69" y="332"/>
      <point x="1101.86" y="324"/>
      <point x="1145.51" y="324" type="curve" smooth="yes"/>
      <point x="1265.97" y="324"/>
      <point x="1326" y="388.693"/>
      <point x="1326" y="541.528" type="curve" smooth="yes"/>
      <point x="1326" y="557.726" type="line" smooth="yes"/>
      <point x="1326" y="707.71"/>
      <point x="1266.02" y="777"/>
      <point x="1134.18" y="777" type="curve" smooth="yes"/>
      <point x="1011.15" y="777"/>
      <point x="941.204" y="719.614"/>
      <point x="907.5" y="609.5" type="curve"/>
      <point x="900" y="774" type="line"/>
      <point x="922.5" y="774" type="line"/>
      <point x="959.309" y="873.708"/>
      <point x="1049.79" y="937.5"/>
      <point x="1191.04" y="937.5" type="curve" smooth="yes"/>
      <point x="1408.67" y="937.5"/>
      <point x="1521" y="805"/>
    </contour>
    <contour>
      <point x="912.5" y="1175.25" type="line"/>
      <point x="912.5" y="0.25" type="line"/>
      <point x="722.5" y="0.25" type="line"/>
      <point x="722.5" y="1175.25" type="line"/>
    </contour>
  </outline>
</glyph>
<glyph name="Ga.dv" format="2">
  <advance width="1196"/>
  <unicode hex="0917"/>
  <anchor x="931.25" y="23" name="bottom"/>
  <anchor x="924.25" y="23" name="bottom2"/>
  <anchor x="1025.25" y="23" name="bottom3"/>
  <anchor x="930.25" y="42.5" name="bottom5"/>
  <anchor x="930.25" y="1238" name="top"/>
  <outline>
    <contour>
      <point x="1025.25" y="1174.5" type="line"/>
      <point x="1025.25" y="0" type="line"/>
      <point x="836.25" y="0" type="line"/>
      <point x="836.25" y="1174.5" type="line"/>
    </contour>
    <contour>
      <point x="743" y="1123.5" type="line"/>
      <point x="731" y="1268.75" type="line"/>
      <point x="1226" y="1268.75" type="line"/>
      <point x="1238" y="1123.5" type="line"/>
    </contour>
    <contour>
      <point x="-28" y="1123.75" type="line"/>
      <point x="-40" y="1268.75" type="line"/>
      <point x="1170" y="1268.75" type="line"/>
      <point x="1182" y="1123.75" type="line"/>
    </contour>
    <contour>
      <point x="425.25" y="1146" type="line"/>
      <point x="510.208" y="1072.01"/>
      <point x="540.5" y="943.249"/>
      <point x="540.5" y="763.5" type="curve" smooth="yes"/>
      <point x="540.5" y="739.5" type="line" smooth="yes"/>
      <point x="540.5" y="428.113"/>
      <point x="414.433" y="302.75"/>
      <point x="178.537" y="302.75" type="curve" smooth="yes"/>
      <point x="135.39" y="302.75"/>
      <point x="91.6464" y="308.571"/>
      <point x="62" y="320" type="curve"/>
      <point x="50" y="491.25" type="line"/>
      <point x="76.3297" y="485.03"/>
      <point x="103.621" y="482.25"/>
      <point x="134.604" y="482.25" type="curve" smooth="yes"/>
      <point x="274.118" y="482.25"/>
      <point x="345.25" y="551.787"/>
      <point x="345.25" y="759.25" type="curve" smooth="yes"/>
      <point x="345.25" y="782.25" type="line" smooth="yes"/>
      <point x="345.25" y="946.151"/>
      <point x="315.173" y="1066.6"/>
      <point x="218.25" y="1146" type="curve"/>
    </contour>
  </outline>
</glyph>
<glyph name="Nga.dv" format="2">
  <advance width="1354"/>
  <unicode hex="0919"/>
  <anchor x="595.25" y="-4" name="bottom"/>
  <anchor x="503.75" y="-4" name="bottom2"/>
  <anchor x="970.5" y="-1" name="bottom3"/>
  <anchor x="562" y="15.75" name="bottom5"/>
  <anchor x="829.25" y="1238" name="top"/>
  <outline>
    <contour>
      <point x="1195.53" y="469.084" type="curve" smooth="yes"/>
      <point x="1106.88" y="469.084"/>
      <point x="1064.04" y="516.547"/>
      <point x="1064.04" y="599.687" type="curve" smooth="yes"/>
      <point x="1064.04" y="610.297" type="line" smooth="yes"/>
      <point x="1064.04" y="692.658"/>
      <point x="1106.88" y="740.916"/>
      <point x="1195.53" y="740.916" type="curve" smooth="yes"/>
      <point x="1283.66" y="740.916"/>
      <point x="1326.5" y="692.138"/>
      <point x="1326.5" y="610.297" type="curve" smooth="yes"/>
      <point x="1326.5" y="599.947" type="line" smooth="yes"/>
      <point x="1326.5" y="516.547"/>
      <point x="1283.66" y="469.084"/>
    </contour>
    <contour>
      <point x="1391" y="1124" type="line"/>
      <point x="1011.5" y="1124" type="line"/>
      <point x="999.25" y="1268.75" type="line"/>
      <point x="1379" y="1268.75" type="line"/>
    </contour>
    <contour>
      <point x="638.75" y="1124" type="line"/>
      <point x="626.75" y="1268.75" type="line"/>
      <point x="1097.75" y="1268.75" type="line"/>
      <point x="1109.75" y="1124" type="line"/>
    </contour>
    <contour>
      <point x="923" y="1174.75" type="line"/>
      <point x="923" y="950.5" type="line"/>
      <point x="740.75" y="951.5" type="line"/>
      <point x="740.75" y="1174.75" type="line"/>
    </contour>
    <contour>
      <point x="1128.5" y="1124" type="line"/>
      <point x="-24.5" y="1124" type="line"/>
      <point x="-36.5" y="1269" type="line"/>
      <point x="1116.5" y="1269" type="line"/>
    </contour>
    <contour>
      <point x="739" y="1173" type="line"/>
      <point x="923.5" y="1173" type="line"/>
      <point x="923.5" y="782" type="line"/>
      <point x="891.771" y="789.653"/>
      <point x="771.685" y="818.617"/>
      <point x="739" y="826.5" type="curve"/>
    </contour>
    <contour>
      <point x="96.5" y="262" type="line"/>
      <point x="230.373" y="178.62"/>
      <point x="374.165" y="130.5"/>
      <point x="531.813" y="130.5" type="curve" smooth="yes"/>
      <point x="732.202" y="130.5"/>
      <point x="804" y="179.17"/>
      <point x="804" y="280.971" type="curve" smooth="yes"/>
      <point x="804" y="288.944" type="line" smooth="yes"/>
      <point x="804" y="375.04"/>
      <point x="752.281" y="429.5"/>
      <point x="597.144" y="429.5" type="curve" smooth="yes"/>
      <point x="491.487" y="429.5"/>
      <point x="393.793" y="407.5"/>
      <point x="298.355" y="368.5" type="curve"/>
      <point x="178.99" y="440.281"/>
      <point x="112" y="531.422"/>
      <point x="112" y="654.431" type="curve" smooth="yes"/>
      <point x="112" y="660.951" type="line" smooth="yes"/>
      <point x="112" y="841.108"/>
      <point x="226.333" y="956"/>
      <point x="549.375" y="956" type="curve" smooth="yes"/>
      <point x="684.663" y="956"/>
      <point x="796" y="944"/>
      <point x="923.5" y="921" type="curve"/>
      <point x="923.5" y="778.5" type="line"/>
      <point x="814.529" y="796"/>
      <point x="704.255" y="803.5"/>
      <point x="593.539" y="803.5" type="curve" smooth="yes"/>
      <point x="380.417" y="803.5"/>
      <point x="304" y="750.352"/>
      <point x="304" y="653.059" type="curve" smooth="yes"/>
      <point x="304" y="648.144" type="line" smooth="yes"/>
      <point x="304" y="603.042"/>
      <point x="319.815" y="567.661"/>
      <point x="353.056" y="539.5" type="curve"/>
      <point x="434.324" y="567.5"/>
      <point x="520.783" y="584.5"/>
      <point x="628.147" y="584.5" type="curve" smooth="yes"/>
      <point x="893.709" y="584.5"/>
      <point x="996" y="470"/>
      <point x="996" y="288.5" type="curve" smooth="yes"/>
      <point x="996" y="277.5" type="line" smooth="yes"/>
      <point x="996" y="82.1537"/>
      <point x="873.907" y="-27"/>
      <point x="545.502" y="-27" type="curve" smooth="yes"/>
      <point x="368.592" y="-27"/>
      <point x="219.589" y="11.5234"/>
      <point x="109.955" y="78.5074" type="curve"/>
    </contour>
  </outline>
</glyph>
<glyph name="Cha.dv" format="2">
  <advance width="1450"/>
  <unicode hex="091B"/>
  <anchor x="760.25" y="3.25" name="bottom"/>
  <anchor x="684" y="3.25" name="bottom2"/>
  <anchor x="1126.75" y="3.25" name="bottom3"/>
  <anchor x="728" y="-42.5" name="bottom4"/>
  <anchor x="719.25" y="23.25" name="bottom5"/>
  <anchor x="1065.5" y="1238" name="top"/>
  <outline>
    <contour>
      <point x="875" y="1124" type="line"/>
      <point x="863" y="1268.75" type="line"/>
      <point x="1334" y="1268.75" type="line"/>
      <point x="1346" y="1124" type="line"/>
    </contour>
    <contour>
      <point x="1159.25" y="1174.75" type="line"/>
      <point x="1159.25" y="950.5" type="line"/>
      <point x="977" y="951.5" type="line"/>
      <point x="977" y="1174.75" type="line"/>
    </contour>
    <contour>
      <point x="1471.5" y="1269" type="line"/>
      <point x="1483.5" y="1124" type="line"/>
      <point x="-44" y="1124" type="line"/>
      <point x="-56" y="1269" type="line"/>
    </contour>
    <contour>
      <point x="974.5" y="906" type="line"/>
      <point x="974.5" y="1177.5" type="line"/>
      <point x="1159.5" y="1177.5" type="line"/>
      <point x="1159.5" y="906" type="line"/>
    </contour>
    <contour>
      <point x="700.5" y="-20" type="curve" smooth="yes"/>
      <point x="316.021" y="-20"/>
      <point x="122.5" y="117.5"/>
      <point x="122.5" y="364" type="curve" smooth="yes"/>
      <point x="122.5" y="377" type="line" smooth="yes"/>
      <point x="122.5" y="534.5"/>
      <point x="187.033" y="635"/>
      <point x="381" y="657" type="curve"/>
      <point x="381" y="665" type="line"/>
      <point x="190.017" y="691.099"/>
      <point x="125.5" y="785.482"/>
      <point x="125.5" y="943.5" type="curve" smooth="yes"/>
      <point x="125.5" y="959.5" type="line" smooth="yes"/>
      <point x="125.5" y="1042.57"/>
      <point x="144" y="1110"/>
      <point x="194" y="1150.5" type="curve"/>
      <point x="400.5" y="1150.5" type="line"/>
      <point x="344" y="1111"/>
      <point x="323.5" y="1046"/>
      <point x="323.5" y="957.202" type="curve" smooth="yes"/>
      <point x="323.5" y="945.171" type="line" smooth="yes"/>
      <point x="323.5" y="820.977"/>
      <point x="372.25" y="748.97"/>
      <point x="548.538" y="740" type="curve" smooth="yes"/>
      <point x="607.5" y="737" type="line"/>
      <point x="607.5" y="578" type="line"/>
      <point x="545.087" y="575.5" type="line" smooth="yes"/>
      <point x="371.269" y="568.538"/>
      <point x="320.5" y="506.587"/>
      <point x="320.5" y="389.395" type="curve" smooth="yes"/>
      <point x="320.5" y="377.365" type="line" smooth="yes"/>
      <point x="320.5" y="220.617"/>
      <point x="451.582" y="138.5"/>
      <point x="701.841" y="138.5" type="curve" smooth="yes"/>
      <point x="1005.83" y="138.5"/>
      <point x="1168.5" y="270"/>
      <point x="1168.5" y="498.554" type="curve" smooth="yes"/>
      <point x="1168.5" y="512.936" type="line"/>
      <point x="1165.5" y="535.019" type="line"/>
      <point x="1165.5" y="619.016" type="line" smooth="yes"/>
      <point x="1165.5" y="745.505"/>
      <point x="1127.49" y="797.5"/>
      <point x="1031.76" y="797.5" type="curve" smooth="yes"/>
      <point x="945.943" y="797.5"/>
      <point x="904.5" y="756.395"/>
      <point x="904.5" y="646.145" type="curve" smooth="yes"/>
      <point x="904.5" y="639.349" type="line" smooth="yes"/>
      <point x="904.5" y="535.301"/>
      <point x="948.8" y="498.5"/>
      <point x="1031.35" y="498.5" type="curve" smooth="yes"/>
      <point x="1099.6" y="498.5"/>
      <point x="1150.15" y="525.427"/>
      <point x="1169.5" y="575" type="curve"/>
      <point x="1176" y="469.5" type="line"/>
      <point x="1155" y="469.5" type="line"/>
      <point x="1129.2" y="394.787"/>
      <point x="1065.3" y="353.5"/>
      <point x="973.017" y="353.5" type="curve" smooth="yes"/>
      <point x="816.85" y="353.5"/>
      <point x="732.5" y="442.613"/>
      <point x="732.5" y="626.351" type="curve" smooth="yes"/>
      <point x="732.5" y="649.012" type="line" smooth="yes"/>
      <point x="732.5" y="844.621"/>
      <point x="831.229" y="943.5"/>
      <point x="1030.1" y="943.5" type="curve" smooth="yes"/>
      <point x="1267.79" y="943.5"/>
      <point x="1348.5" y="823"/>
      <point x="1348.5" y="596" type="curve" smooth="yes"/>
      <point x="1348.5" y="537.713" type="line" smooth="yes"/>
      <point x="1348.5" y="159.336"/>
      <point x="1122.5" y="-20"/>
    </contour>
  </outline>
</glyph>
<glyph name="Nya.dv" format="2">
  <advance width="1386"/>
  <unicode hex="091E"/>
  <anchor x="1121.25" y="23" name="bottom"/>
  <anchor x="1114.25" y="23" name="bottom2"/>
  <anchor x="1215.25" y="23" name="bottom3"/>
  <anchor x="1120.25" y="42.5" name="bottom5"/>
  <anchor x="1120.25" y="1238" name="top"/>
  <outline>
    <contour>
      <point x="-29.5" y="1123.5" type="line"/>
      <point x="-41.5" y="1268.75" type="line"/>
      <point x="1315" y="1268.75" type="line"/>
      <point x="1327" y="1123.5" type="line"/>
    </contour>
    <contour>
      <point x="124" y="900.75" type="line"/>
      <point x="193.445" y="927.422"/>
      <point x="275.557" y="941"/>
      <point x="371.25" y="941" type="curve" smooth="yes"/>
      <point x="629.901" y="941"/>
      <point x="758.75" y="828.361"/>
      <point x="758.75" y="560.334" type="curve" smooth="yes"/>
      <point x="758.75" y="542.56" type="line" smooth="yes"/>
      <point x="758.75" y="271.886"/>
      <point x="629.563" y="153.5"/>
      <point x="362.75" y="153.5" type="curve" smooth="yes"/>
      <point x="256.029" y="153.5"/>
      <point x="163.953" y="173.276"/>
      <point x="92.5" y="208.5" type="curve"/>
      <point x="81.75" y="376.75" type="line"/>
      <point x="151.75" y="339.75"/>
      <point x="241.463" y="313.5"/>
      <point x="331.25" y="313.5" type="curve" smooth="yes"/>
      <point x="496.75" y="313.5"/>
      <point x="570.75" y="372.021"/>
      <point x="570.75" y="544.101" type="curve" smooth="yes"/>
      <point x="570.75" y="556.586" type="line" smooth="yes"/>
      <point x="570.75" y="725.413"/>
      <point x="501.75" y="784.25"/>
      <point x="339.5" y="784.25" type="curve" smooth="yes"/>
      <point x="256.466" y="784.25"/>
      <point x="181.629" y="769.597"/>
      <point x="110.75" y="741" type="curve"/>
    </contour>
    <contour>
      <point x="717.5" y="631.25" type="line"/>
      <point x="1066.25" y="631.25" type="line"/>
      <point x="1066.25" y="475" type="line"/>
      <point x="717.25" y="475" type="line"/>
    </contour>
    <contour>
      <point x="1215.25" y="1174.5" type="line"/>
      <point x="1215.25" y="0" type="line"/>
      <point x="1026.25" y="0" type="line"/>
      <point x="1026.25" y="1174.5" type="line"/>
    </contour>
    <contour>
      <point x="933" y="1123.5" type="line"/>
      <point x="921" y="1268.75" type="line"/>
      <point x="1416" y="1268.75" type="line"/>
      <point x="1428" y="1123.5" type="line"/>
    </contour>
  </outline>
  <guideline angle="90" x="1018.25" y="0"/>
  <guideline angle="0" x="0" y="9"/>
  <guideline angle="90" x="1023.25" y="0"/>
  <guideline angle="90" x="1006.25" y="0"/>
  <guideline angle="0" x="0" y="1262"/>
  <guideline angle="90" x="1120.25" y="0"/>
  <guideline angle="0" x="0" y="30"/>
</glyph>
<glyph name="Tta.dv" format="2">
  <advance width="1050"/>
  <unicode hex="091F"/>
  <anchor x="611" y="9" name="bottom"/>
  <anchor x="521.5" y="9" name="bottom2"/>
  <anchor x="983.25" y="9" name="bottom3"/>
  <anchor x="583" y="-42.5" name="bottom4"/>
  <anchor x="573.25" y="28.25" name="bottom5"/>
  <anchor x="805.5" y="1238" name="top"/>
  <outline>
    <contour>
      <point x="615" y="1124" type="line"/>
      <point x="603" y="1268.75" type="line"/>
      <point x="1074" y="1268.75" type="line"/>
      <point x="1086" y="1124" type="line"/>
    </contour>
    <contour>
      <point x="899.25" y="1174.75" type="line"/>
      <point x="899.25" y="950.5" type="line"/>
      <point x="717" y="951.5" type="line"/>
      <point x="717" y="1174.75" type="line"/>
    </contour>
    <contour>
      <point x="-22" y="1124" type="line"/>
      <point x="-34" y="1269" type="line"/>
      <point x="1095" y="1269" type="line"/>
      <point x="1106.5" y="1124" type="line"/>
    </contour>
    <contour>
      <point x="715" y="770.5" type="line"/>
      <point x="715" y="1178" type="line"/>
      <point x="899.5" y="1178" type="line"/>
      <point x="899.5" y="715.5" type="line"/>
    </contour>
    <contour>
      <point x="936.5" y="66.0263" type="line"/>
      <point x="854.247" y="15.9738"/>
      <point x="740.426" y="-14"/>
      <point x="597" y="-14" type="curve" smooth="yes"/>
      <point x="279.646" y="-14"/>
      <point x="108" y="125.5"/>
      <point x="108" y="424.5" type="curve" smooth="yes"/>
      <point x="108" y="456.5" type="line" smooth="yes"/>
      <point x="108" y="750"/>
      <point x="260.656" y="886.5"/>
      <point x="584.5" y="886.5" type="curve" smooth="yes"/>
      <point x="685.422" y="886.5"/>
      <point x="780.727" y="879"/>
      <point x="899.5" y="858.5" type="curve"/>
      <point x="899.5" y="710.5" type="line"/>
      <point x="795.36" y="727.293"/>
      <point x="710.156" y="733"/>
      <point x="616" y="733" type="curve" smooth="yes"/>
      <point x="399.292" y="733"/>
      <point x="304" y="645.736"/>
      <point x="304" y="452.72" type="curve" smooth="yes"/>
      <point x="304" y="431.236" type="line" smooth="yes"/>
      <point x="304" y="234.231"/>
      <point x="403" y="152"/>
      <point x="613.5" y="152" type="curve" smooth="yes"/>
      <point x="731.5" y="152"/>
      <point x="851" y="186.5"/>
      <point x="948" y="244" type="curve"/>
    </contour>
  </outline>
</glyph>
<glyph name="Ddha.dv" format="2">
  <advance width="1182"/>
  <unicode hex="0922"/>
  <anchor x="661.25" y="-3.75" name="bottom"/>
  <anchor x="585.5" y="-3.75" name="bottom2"/>
  <anchor x="1033" y="-3.75" name="bottom3"/>
  <anchor x="622.25" y="16" name="bottom5"/>
  <anchor x="903.5" y="1238" name="top"/>
  <outline>
    <contour>
      <point x="713" y="1124" type="line"/>
      <point x="701" y="1268.75" type="line"/>
      <point x="1172" y="1268.75" type="line"/>
      <point x="1184" y="1124" type="line"/>
    </contour>
    <contour>
      <point x="997.25" y="1174.75" type="line"/>
      <point x="997.25" y="950.5" type="line"/>
      <point x="815" y="951.5" type="line"/>
      <point x="815" y="1174.75" type="line"/>
    </contour>
    <contour>
      <point x="-22.5" y="1124" type="line"/>
      <point x="-34.5" y="1269" type="line"/>
      <point x="1220.5" y="1269" type="line"/>
      <point x="1232" y="1124" type="line"/>
    </contour>
    <contour>
      <point x="813" y="1177" type="line"/>
      <point x="997.5" y="1177" type="line"/>
      <point x="997.5" y="754" type="line"/>
      <point x="813" y="817.5" type="line"/>
    </contour>
    <contour>
      <point x="108" y="477" type="line" smooth="yes"/>
      <point x="108" y="787.985"/>
      <point x="273.273" y="929.5"/>
      <point x="642.147" y="929.5" type="curve" smooth="yes"/>
      <point x="767.844" y="929.5"/>
      <point x="870.491" y="919.5"/>
      <point x="998.5" y="897.5" type="curve"/>
      <point x="998.5" y="754" type="line"/>
      <point x="877.947" y="773.333"/>
      <point x="777.716" y="779"/>
      <point x="675.551" y="779" type="curve" smooth="yes"/>
      <point x="412.718" y="779"/>
      <point x="298.5" y="688.598"/>
      <point x="298.5" y="471.6" type="curve" smooth="yes"/>
      <point x="298.5" y="437.946" type="line" smooth="yes"/>
      <point x="298.5" y="214.006"/>
      <point x="413.693" y="120.5"/>
      <point x="655.598" y="120.5" type="curve" smooth="yes"/>
      <point x="842.414" y="120.5"/>
      <point x="918.5" y="169.865"/>
      <point x="918.5" y="301" type="curve" smooth="yes"/>
      <point x="918.5" y="318.264" type="line" smooth="yes"/>
      <point x="918.5" y="403.696"/>
      <point x="889.045" y="448.5"/>
      <point x="797.451" y="448.5" type="curve" smooth="yes"/>
      <point x="709.772" y="448.5"/>
      <point x="674" y="403.126"/>
      <point x="674" y="315" type="curve" smooth="yes"/>
      <point x="674" y="299" type="line" smooth="yes"/>
      <point x="674" y="194.705"/>
      <point x="708.569" y="159.143"/>
      <point x="791" y="128.5" type="curve"/>
      <point x="651" y="110" type="line"/>
      <point x="651" y="130" type="line"/>
      <point x="540.838" y="167.152"/>
      <point x="508" y="219.259"/>
      <point x="508" y="333.564" type="curve" smooth="yes"/>
      <point x="508" y="347.5" type="line" smooth="yes"/>
      <point x="508" y="506.614"/>
      <point x="601.068" y="592.5"/>
      <point x="797.534" y="592.5" type="curve" smooth="yes"/>
      <point x="997.116" y="592.5"/>
      <point x="1091" y="499.608"/>
      <point x="1091" y="327.486" type="curve" smooth="yes"/>
      <point x="1091" y="303.382" type="line" smooth="yes"/>
      <point x="1091" y="86.9283"/>
      <point x="943.637" y="-27"/>
      <point x="643.419" y="-27" type="curve" smooth="yes"/>
      <point x="306.121" y="-27"/>
      <point x="108" y="115.867"/>
      <point x="108" y="432" type="curve" smooth="yes"/>
    </contour>
  </outline>
</glyph>
<glyph name="Nna.dv" format="2">
  <advance width="1599"/>
  <unicode hex="0923"/>
  <anchor x="1334.25" y="23" name="bottom"/>
  <anchor x="1327.25" y="23" name="bottom2"/>
  <anchor x="1428.25" y="23" name="bottom3"/>
  <anchor x="1333.25" y="42.5" name="bottom5"/>
  <anchor x="1333.25" y="1238" name="top"/>
  <outline>
    <contour>
      <point x="1428.25" y="1174.5" type="line"/>
      <point x="1428.25" y="0" type="line"/>
      <point x="1239.25" y="0" type="line"/>
      <point x="1239.25" y="1174.5" type="line"/>
    </contour>
    <contour>
      <point x="1146" y="1123.5" type="line"/>
      <point x="1134" y="1268.75" type="line"/>
      <point x="1629" y="1268.75" type="line"/>
      <point x="1641" y="1123.5" type="line"/>
    </contour>
    <contour>
      <point x="-33" y="1123.5" type="line"/>
      <point x="-44.75" y="1268.75" type="line"/>
      <point x="1528" y="1268.75" type="line"/>
      <point x="1539.75" y="1123.5" type="line"/>
    </contour>
    <contour>
      <point x="539" y="266.75" type="curve" smooth="yes"/>
      <point x="278" y="266.75"/>
      <point x="144" y="392.881"/>
      <point x="144" y="667" type="curve" smooth="yes"/>
      <point x="144" y="1175.5" type="line"/>
      <point x="334.25" y="1175.5" type="line"/>
      <point x="334.25" y="662.25" type="line" smooth="yes"/>
      <point x="334.25" y="497.969"/>
      <point x="397.051" y="425"/>
      <point x="537.254" y="425" type="curve" smooth="yes"/>
      <point x="677.707" y="425"/>
      <point x="741.5" y="497.969"/>
      <point x="741.5" y="662.25" type="curve" smooth="yes"/>
      <point x="741.5" y="1175.5" type="line"/>
      <point x="932" y="1175.5" type="line"/>
      <point x="932" y="667" type="line" smooth="yes"/>
      <point x="932" y="392.881"/>
      <point x="799.5" y="266.75"/>
    </contour>
  </outline>
  <guideline angle="90" x="1231.25" y="0"/>
  <guideline angle="0" x="0" y="9"/>
  <guideline angle="90" x="1236.25" y="0"/>
  <guideline angle="90" x="1219.25" y="0"/>
  <guideline angle="0" x="0" y="1262"/>
  <guideline angle="90" x="1333.25" y="0"/>
  <guideline angle="0" x="0" y="30"/>
</glyph>
<glyph name="Ta.dv" format="2">
  <advance width="1179"/>
  <unicode hex="0924"/>
  <anchor x="914" y="23" name="bottom"/>
  <anchor x="907" y="23" name="bottom2"/>
  <anchor x="1008" y="23" name="bottom3"/>
  <anchor x="913" y="42.5" name="bottom5"/>
  <anchor x="913" y="1238" name="top"/>
  <outline>
    <contour>
      <point x="1008" y="1174.5" type="line"/>
      <point x="1008" y="0" type="line"/>
      <point x="819" y="0" type="line"/>
      <point x="819" y="1174.5" type="line"/>
    </contour>
    <contour>
      <point x="725.75" y="1123.5" type="line"/>
      <point x="713.75" y="1268.75" type="line"/>
      <point x="1208.75" y="1268.75" type="line"/>
      <point x="1220.75" y="1123.5" type="line"/>
    </contour>
    <contour>
      <point x="-37" y="1123.75" type="line"/>
      <point x="-49" y="1268.75" type="line"/>
      <point x="1108" y="1268.75" type="line"/>
      <point x="1120" y="1123.75" type="line"/>
    </contour>
    <contour>
      <point x="271.972" y="0" type="line"/>
      <point x="163.312" y="187"/>
      <point x="108.5" y="356"/>
      <point x="108.5" y="525" type="curve" smooth="yes"/>
      <point x="108.5" y="741.5"/>
      <point x="226.46" y="869"/>
      <point x="496.5" y="869" type="curve" smooth="yes"/>
      <point x="892.5" y="869" type="line"/>
      <point x="892.5" y="712.5" type="line"/>
      <point x="529.159" y="712.5" type="line" smooth="yes"/>
      <point x="371.539" y="712.5"/>
      <point x="308.5" y="648.5"/>
      <point x="308.5" y="507.5" type="curve" smooth="yes"/>
      <point x="308.5" y="360.5"/>
      <point x="366.639" y="202.5"/>
      <point x="481.5" y="0" type="curve"/>
    </contour>
  </outline>
  <guideline angle="90" x="811" y="0"/>
  <guideline angle="0" x="0" y="9"/>
  <guideline angle="90" x="816" y="0"/>
  <guideline angle="90" x="799" y="0"/>
  <guideline angle="0" x="0" y="1262"/>
  <guideline angle="90" x="913" y="0"/>
  <guideline angle="0" x="0" y="30"/>
</glyph>
<glyph name="Tha.dv" format="2">
  <advance width="1380"/>
  <unicode hex="0925"/>
  <anchor x="1114.75" y="23" name="bottom"/>
  <anchor x="1107.75" y="23" name="bottom2"/>
  <anchor x="1208.75" y="23" name="bottom3"/>
  <anchor x="1113.75" y="42.5" name="bottom5"/>
  <anchor x="1113.75" y="1238" name="top"/>
  <outline>
    <contour>
      <point x="1208.75" y="1174.5" type="line"/>
      <point x="1208.75" y="0" type="line"/>
      <point x="1019.75" y="0" type="line"/>
      <point x="1019.75" y="1174.5" type="line"/>
    </contour>
    <contour>
      <point x="926.5" y="1123.5" type="line"/>
      <point x="914.5" y="1268.75" type="line"/>
      <point x="1409.5" y="1268.75" type="line"/>
      <point x="1421.5" y="1123.5" type="line"/>
    </contour>
    <contour>
      <point x="897" y="1269" type="line"/>
      <point x="1308" y="1269" type="line"/>
      <point x="1320.5" y="1124" type="line"/>
      <point x="909" y="1124" type="line"/>
    </contour>
    <contour>
      <point x="151" y="858" type="line"/>
      <point x="139.5" y="910.5"/>
      <point x="133.5" y="963"/>
      <point x="133.5" y="1010.5" type="curve" smooth="yes"/>
      <point x="133.5" y="1191.5"/>
      <point x="246.686" y="1293.5"/>
      <point x="463.745" y="1293.5" type="curve" smooth="yes"/>
      <point x="679.811" y="1293.5"/>
      <point x="795.5" y="1186.99"/>
      <point x="795.5" y="962.542" type="curve" smooth="yes"/>
      <point x="795.5" y="922.81" type="line" smooth="yes"/>
      <point x="795.5" y="675.982"/>
      <point x="662.179" y="564"/>
      <point x="358.96" y="564" type="curve" smooth="yes"/>
      <point x="197" y="564" type="line"/>
      <point x="124" y="710.5" type="line"/>
      <point x="313.035" y="709.5" type="line" smooth="yes"/>
      <point x="528.987" y="708.358"/>
      <point x="608" y="774.075"/>
      <point x="608" y="933.579" type="curve" smooth="yes"/>
      <point x="608" y="964.942" type="line" smooth="yes"/>
      <point x="608" y="1094.75"/>
      <point x="557.494" y="1141.5"/>
      <point x="462.87" y="1141.5" type="curve" smooth="yes"/>
      <point x="362.621" y="1141.5"/>
      <point x="316.5" y="1088.9"/>
      <point x="316.5" y="968.612" type="curve" smooth="yes"/>
      <point x="316.5" y="858" type="line"/>
    </contour>
    <contour>
      <point x="114.5" y="579.647" type="line" smooth="yes"/>
      <point x="114.5" y="623.921"/>
      <point x="118" y="664.751"/>
      <point x="124" y="710.5" type="curve"/>
      <point x="300.5" y="665.5" type="line"/>
      <point x="300.5" y="566.123" type="line" smooth="yes"/>
      <point x="300.5" y="398.546"/>
      <point x="410.5" y="324.5"/>
      <point x="637.5" y="324.5" type="curve" smooth="yes"/>
      <point x="864" y="324.5"/>
      <point x="985.201" y="401.5"/>
      <point x="1023.5" y="539" type="curve"/>
      <point x="1033.5" y="367.5" type="line"/>
      <point x="1009" y="367.5" type="line"/>
      <point x="959.142" y="234.815"/>
      <point x="845.18" y="162"/>
      <point x="612.5" y="162" type="curve" smooth="yes"/>
      <point x="283" y="162"/>
      <point x="114.5" y="295.313"/>
      <point x="114.5" y="574.236" type="curve" smooth="yes"/>
    </contour>
  </outline>
</glyph>
<glyph name="Da.dv" format="2">
  <advance width="1115"/>
  <unicode hex="0926"/>
  <anchor x="901" y="-101.75" name="bottom"/>
  <anchor x="635.5" y="-114.25" name="bottom2"/>
  <anchor x="991.75" y="-114.25" name="bottom3"/>
  <anchor x="292.25" y="72.25" name="bottom4"/>
  <anchor x="598" y="-98.5" name="bottom5"/>
  <anchor x="856.75" y="1238" name="top"/>
  <outline>
    <contour>
      <point x="666.25" y="1124" type="line"/>
      <point x="654.25" y="1268.75" type="line"/>
      <point x="1125.25" y="1268.75" type="line"/>
      <point x="1137.25" y="1124" type="line"/>
    </contour>
    <contour>
      <point x="950.5" y="1174.75" type="line"/>
      <point x="950.5" y="950.5" type="line"/>
      <point x="768.25" y="951.5" type="line"/>
      <point x="768.25" y="1174.75" type="line"/>
    </contour>
    <contour>
      <point x="-24.25" y="1124" type="line"/>
      <point x="-36.25" y="1268.75" type="line"/>
      <point x="1149.75" y="1268.75" type="line"/>
      <point x="1161.75" y="1124" type="line"/>
    </contour>
    <contour>
      <point x="763.75" y="803.75" type="line"/>
      <point x="763.75" y="1177.5" type="line"/>
      <point x="951" y="1177.5" type="line"/>
      <point x="951" y="753.25" type="line"/>
    </contour>
    <contour>
      <point x="965.5" y="535.5" type="line"/>
      <point x="965.5" y="236" type="line"/>
      <point x="1024.25" y="-140.75" type="line"/>
      <point x="839.75" y="-140.75" type="line"/>
      <point x="793.5" y="221.75" type="line"/>
      <point x="778.5" y="244.75" type="line"/>
      <point x="778.5" y="535.5" type="line"/>
    </contour>
    <contour>
      <point x="561.284" y="243.75" type="curve" smooth="yes"/>
      <point x="656.856" y="243.75"/>
      <point x="733.14" y="268.015"/>
      <point x="789" y="310.5" type="curve"/>
      <point x="821.75" y="175.183" type="line"/>
      <point x="763.569" y="119.063"/>
      <point x="669.508" y="84.75"/>
      <point x="541.5" y="84.75" type="curve" smooth="yes"/>
      <point x="275.055" y="84.75"/>
      <point x="105.75" y="220.418"/>
      <point x="105.75" y="489.114" type="curve" smooth="yes"/>
      <point x="105.75" y="507.776" type="line" smooth="yes"/>
      <point x="105.75" y="783.446"/>
      <point x="256.567" y="923.75"/>
      <point x="589.965" y="923.75" type="curve" smooth="yes"/>
      <point x="700.03" y="923.75"/>
      <point x="827.434" y="913.658"/>
      <point x="951" y="892.75" type="curve"/>
      <point x="951" y="748.75" type="line"/>
      <point x="825.642" y="763.75"/>
      <point x="718.287" y="770.5"/>
      <point x="608.551" y="770.5" type="curve" smooth="yes"/>
      <point x="398.478" y="770.5"/>
      <point x="301.5" y="682.923"/>
      <point x="301.5" y="507.046" type="curve" smooth="yes"/>
      <point x="301.5" y="493.703" type="line" smooth="yes"/>
      <point x="301.5" y="325.698"/>
      <point x="395.794" y="243.75"/>
    </contour>
  </outline>
</glyph>
<glyph name="Dha.dv" format="2">
  <advance width="1359"/>
  <unicode hex="0927"/>
  <anchor x="1094" y="23" name="bottom"/>
  <anchor x="1087" y="23" name="bottom2"/>
  <anchor x="1188" y="23" name="bottom3"/>
  <anchor x="1093" y="42.5" name="bottom5"/>
  <anchor x="1093" y="1238" name="top"/>
  <outline>
    <contour>
      <point x="1188" y="1174.5" type="line"/>
      <point x="1188" y="0" type="line"/>
      <point x="999" y="0" type="line"/>
      <point x="999" y="1174.5" type="line"/>
    </contour>
    <contour>
      <point x="905.75" y="1123.5" type="line"/>
      <point x="893.75" y="1268.75" type="line"/>
      <point x="1388.75" y="1268.75" type="line"/>
      <point x="1400.75" y="1123.5" type="line"/>
    </contour>
    <contour>
      <point x="885" y="1124" type="line"/>
      <point x="873" y="1269" type="line"/>
      <point x="1287.5" y="1269" type="line"/>
      <point x="1299.5" y="1124" type="line"/>
    </contour>
    <contour>
      <point x="119" y="438.331" type="line" smooth="yes"/>
      <point x="119" y="568.117"/>
      <point x="181.635" y="650.239"/>
      <point x="388" y="664" type="curve"/>
      <point x="388" y="672" type="line"/>
      <point x="184.295" y="698.049"/>
      <point x="94.5" y="779.717"/>
      <point x="94.5" y="965" type="curve" smooth="yes"/>
      <point x="94.5" y="980" type="line" smooth="yes"/>
      <point x="94.5" y="1185.9"/>
      <point x="207.695" y="1294"/>
      <point x="437.906" y="1294" type="curve" smooth="yes"/>
      <point x="663.339" y="1294"/>
      <point x="763" y="1197"/>
      <point x="763" y="1016" type="curve" smooth="yes"/>
      <point x="763" y="977.161"/>
      <point x="758.5" y="932.849"/>
      <point x="748.5" y="890.5" type="curve"/>
      <point x="582.5" y="890.5" type="line"/>
      <point x="582.5" y="976.28" type="line" smooth="yes"/>
      <point x="582.5" y="1097.44"/>
      <point x="535.758" y="1142"/>
      <point x="436.803" y="1142" type="curve" smooth="yes"/>
      <point x="332.816" y="1142"/>
      <point x="281.5" y="1088.84"/>
      <point x="281.5" y="968.345" type="curve" smooth="yes"/>
      <point x="281.5" y="951.739" type="line" smooth="yes"/>
      <point x="281.5" y="803.407"/>
      <point x="355.598" y="750.554"/>
      <point x="577.889" y="743.506" type="curve" smooth="yes"/>
      <point x="720" y="739" type="line"/>
      <point x="720" y="588" type="line"/>
      <point x="574.144" y="585.103" type="line" smooth="yes"/>
      <point x="369.376" y="581.035"/>
      <point x="317" y="540.192"/>
      <point x="317" y="456.65" type="curve" smooth="yes"/>
      <point x="317" y="447.474" type="line" smooth="yes"/>
      <point x="317" y="354.756"/>
      <point x="402.505" y="305.5"/>
      <point x="628.694" y="305.5" type="curve" smooth="yes"/>
      <point x="830.92" y="305.5"/>
      <point x="953.105" y="355.303"/>
      <point x="1003.5" y="491.5" type="curve"/>
      <point x="1009.5" y="325" type="line"/>
      <point x="987" y="325" type="line"/>
      <point x="942.098" y="208.763"/>
      <point x="818.691" y="143"/>
      <point x="591.331" y="143" type="curve" smooth="yes"/>
      <point x="271.799" y="143"/>
      <point x="119" y="241.607"/>
      <point x="119" y="427.048" type="curve" smooth="yes"/>
    </contour>
  </outline>
</glyph>
<glyph name="Na.dv" format="2">
  <advance width="1160"/>
  <unicode hex="0928"/>
  <anchor x="895" y="23" name="bottom"/>
  <anchor x="888" y="23" name="bottom2"/>
  <anchor x="989" y="23" name="bottom3"/>
  <anchor x="894" y="42.5" name="bottom5"/>
  <anchor x="894" y="1238" name="top"/>
  <outline>
    <contour>
      <point x="989" y="1174.5" type="line"/>
      <point x="989" y="0" type="line"/>
      <point x="800" y="0" type="line"/>
      <point x="800" y="1174.5" type="line"/>
    </contour>
    <contour>
      <point x="706.75" y="1123.5" type="line"/>
      <point x="694.75" y="1268.75" type="line"/>
      <point x="1189.75" y="1268.75" type="line"/>
      <point x="1201.75" y="1123.5" type="line"/>
    </contour>
    <contour>
      <point x="1101.5" y="1123.75" type="line"/>
      <point x="-30" y="1123.75" type="line"/>
      <point x="-42" y="1268.75" type="line"/>
      <point x="1089.5" y="1268.75" type="line"/>
    </contour>
    <contour>
      <point x="876.25" y="786.75" type="line"/>
      <point x="876.25" y="631" type="line"/>
      <point x="290.75" y="631" type="line"/>
      <point x="290.75" y="786.75" type="line"/>
    </contour>
    <contour>
      <point x="198.25" y="257.75" type="line"/>
      <point x="146.5" y="406.75"/>
      <point x="111.5" y="537.25"/>
      <point x="95.5" y="715.5" type="curve"/>
      <point x="196.5" y="786.75" type="line"/>
      <point x="362.25" y="786.75" type="line"/>
      <point x="362.25" y="257.75" type="line"/>
    </contour>
  </outline>
</glyph>
<glyph name="Pa.dv" format="2">
  <advance width="1188"/>
  <unicode hex="092A"/>
  <anchor x="922.5" y="23" name="bottom"/>
  <anchor x="915.5" y="23" name="bottom2"/>
  <anchor x="1016.5" y="23" name="bottom3"/>
  <anchor x="921.5" y="42.5" name="bottom5"/>
  <anchor x="921.5" y="1238" name="top"/>
  <outline>
    <contour>
      <point x="1016.5" y="1174.5" type="line"/>
      <point x="1016.5" y="0" type="line"/>
      <point x="827.5" y="0" type="line"/>
      <point x="827.5" y="1174.5" type="line"/>
    </contour>
    <contour>
      <point x="734.25" y="1123.5" type="line"/>
      <point x="722.25" y="1268.75" type="line"/>
      <point x="1217.25" y="1268.75" type="line"/>
      <point x="1229.25" y="1123.5" type="line"/>
    </contour>
    <contour>
      <point x="-29.75" y="1123.75" type="line"/>
      <point x="-41.75" y="1268.75" type="line"/>
      <point x="1166.25" y="1268.75" type="line"/>
      <point x="1178.25" y="1123.75" type="line"/>
    </contour>
    <contour>
      <point x="512.25" y="298.25" type="curve" smooth="yes"/>
      <point x="277.63" y="298.25"/>
      <point x="143.25" y="422"/>
      <point x="143.25" y="704" type="curve" smooth="yes"/>
      <point x="143.25" y="1174.5" type="line"/>
      <point x="333" y="1174.5" type="line"/>
      <point x="333" y="722.5" type="line" smooth="yes"/>
      <point x="333" y="528.986"/>
      <point x="417.5" y="460.75"/>
      <point x="567.25" y="460.75" type="curve" smooth="yes"/>
      <point x="716.75" y="460.75"/>
      <point x="802.596" y="529.753"/>
      <point x="830.25" y="642" type="curve"/>
      <point x="840.25" y="482" type="line"/>
      <point x="816" y="482" type="line"/>
      <point x="779.941" y="368.86"/>
      <point x="683.456" y="298.25"/>
    </contour>
  </outline>
</glyph>
<glyph name="Pha.dv" format="2">
  <advance width="1663"/>
  <unicode hex="092B"/>
  <anchor x="850" y="23" name="bottom"/>
  <anchor x="845.25" y="23" name="bottom2"/>
  <anchor x="1260.75" y="23" name="bottom3"/>
  <anchor x="851.25" y="42.5" name="bottom5"/>
  <anchor x="851.25" y="1238" name="top"/>
  <outline>
    <contour>
      <point x="-29.75" y="1123.5" type="line"/>
      <point x="-41.75" y="1268.75" type="line"/>
      <point x="1691.5" y="1268.75" type="line"/>
      <point x="1703.25" y="1123.5" type="line"/>
    </contour>
    <contour>
      <point x="485" y="298.25" type="curve" smooth="yes"/>
      <point x="266.008" y="298.25"/>
      <point x="143.5" y="413.222"/>
      <point x="143.5" y="684" type="curve" smooth="yes"/>
      <point x="143.5" y="1173.75" type="line"/>
      <point x="333.5" y="1173.75" type="line"/>
      <point x="333.5" y="702.25" type="line" smooth="yes"/>
      <point x="333.5" y="524.772"/>
      <point x="404.826" y="461"/>
      <point x="539.25" y="461" type="curve" smooth="yes"/>
      <point x="663.696" y="461"/>
      <point x="729.526" y="516.481"/>
      <point x="759" y="610.5" type="curve"/>
      <point x="764.25" y="452.25" type="line"/>
      <point x="744" y="452.25" type="line"/>
      <point x="712.987" y="359.873"/>
      <point x="635.371" y="298.25"/>
    </contour>
    <contour>
      <point x="1170.03" y="751.75" type="curve" smooth="yes"/>
      <point x="1054.34" y="751.75"/>
      <point x="972.084" y="693.5"/>
      <point x="937" y="585.25" type="curve"/>
      <point x="931" y="744.75" type="line"/>
      <point x="952.5" y="744.75" type="line"/>
      <point x="991.388" y="844.112"/>
      <point x="1082.32" y="911.5"/>
      <point x="1232.57" y="911.5" type="curve" smooth="yes"/>
      <point x="1450.76" y="911.5"/>
      <point x="1560.5" y="774.005"/>
      <point x="1560.5" y="531.43" type="curve" smooth="yes"/>
      <point x="1560.5" y="504.842" type="line" smooth="yes"/>
      <point x="1560.5" y="238.831"/>
      <point x="1454.05" y="128"/>
      <point x="1233.54" y="128" type="curve" smooth="yes"/>
      <point x="1181.22" y="128"/>
      <point x="1128.52" y="136.461"/>
      <point x="1091.75" y="149.5" type="curve"/>
      <point x="1079" y="306.5" type="line"/>
      <point x="1110.51" y="293.5"/>
      <point x="1153.32" y="285"/>
      <point x="1196.88" y="285" type="curve" smooth="yes"/>
      <point x="1317.74" y="285"/>
      <point x="1367.25" y="345.792"/>
      <point x="1367.25" y="510.108" type="curve" smooth="yes"/>
      <point x="1367.25" y="529.783" type="line" smooth="yes"/>
      <point x="1367.25" y="679.161"/>
      <point x="1308.45" y="751.75"/>
    </contour>
    <contour>
      <point x="944.25" y="1174.5" type="line"/>
      <point x="944.25" y="0" type="line"/>
      <point x="753.5" y="0" type="line"/>
      <point x="753.5" y="1174.5" type="line"/>
    </contour>
  </outline>
</glyph>
<glyph name="Ba.dv" format="2">
  <advance width="1249"/>
  <unicode hex="092C"/>
  <anchor x="984" y="23" name="bottom"/>
  <anchor x="977" y="23" name="bottom2"/>
  <anchor x="1078" y="23" name="bottom3"/>
  <anchor x="983" y="42.5" name="bottom5"/>
  <anchor x="983" y="1238" name="top"/>
  <outline>
    <contour>
      <point x="1078" y="1174.5" type="line"/>
      <point x="1078" y="0" type="line"/>
      <point x="889" y="0" type="line"/>
      <point x="889" y="1174.5" type="line"/>
    </contour>
    <contour>
      <point x="795.75" y="1123.5" type="line"/>
      <point x="783.75" y="1268.75" type="line"/>
      <point x="1278.75" y="1268.75" type="line"/>
      <point x="1290.75" y="1123.5" type="line"/>
    </contour>
    <contour>
      <point x="-27" y="1124" type="line"/>
      <point x="-39" y="1269" type="line"/>
      <point x="1080" y="1269" type="line"/>
      <point x="1092" y="1124" type="line"/>
    </contour>
    <contour>
      <point x="297" y="777.5" type="line"/>
      <point x="422" y="838.5" type="line"/>
      <point x="852.5" y="363.5" type="line"/>
      <point x="744.5" y="288.5" type="line"/>
    </contour>
    <contour>
      <point x="104.5" y="542.578" type="curve" smooth="yes"/>
      <point x="104.5" y="559.877" type="line" smooth="yes"/>
      <point x="104.5" y="808.342"/>
      <point x="254" y="944.5"/>
      <point x="535" y="944.5" type="curve" smooth="yes"/>
      <point x="618" y="944.5"/>
      <point x="691" y="937"/>
      <point x="758" y="918.5" type="curve"/>
      <point x="772" y="766.5" type="line"/>
      <point x="703.814" y="783.154"/>
      <point x="634.112" y="791.5"/>
      <point x="557.5" y="791.5" type="curve" smooth="yes"/>
      <point x="379.5" y="791.5"/>
      <point x="295" y="718.654"/>
      <point x="295" y="556.385" type="curve" smooth="yes"/>
      <point x="295" y="547.165" type="line" smooth="yes"/>
      <point x="295" y="387.174"/>
      <point x="389.689" y="307"/>
      <point x="566.5" y="307" type="curve" smooth="yes"/>
      <point x="758.395" y="307"/>
      <point x="860.709" y="377.696"/>
      <point x="895" y="500" type="curve"/>
      <point x="903" y="331.5" type="line"/>
      <point x="878" y="331.5" type="line"/>
      <point x="836" y="224.076"/>
      <point x="733" y="150.5"/>
      <point x="535.217" y="150.5" type="curve" smooth="yes"/>
      <point x="262.161" y="150.5"/>
      <point x="104.5" y="285.2"/>
    </contour>
  </outline>
</glyph>
<glyph name="Bha.dv" format="2">
  <advance width="1210"/>
  <unicode hex="092D"/>
  <anchor x="944.75" y="23" name="bottom"/>
  <anchor x="937.75" y="23" name="bottom2"/>
  <anchor x="1038.75" y="23" name="bottom3"/>
  <anchor x="943.75" y="42.5" name="bottom5"/>
  <anchor x="943.75" y="1238" name="top"/>
  <outline>
    <contour>
      <point x="1038.75" y="1174.5" type="line"/>
      <point x="1038.75" y="0" type="line"/>
      <point x="849.75" y="0" type="line"/>
      <point x="849.75" y="1174.5" type="line"/>
    </contour>
    <contour>
      <point x="756.5" y="1123.5" type="line"/>
      <point x="744.5" y="1268.75" type="line"/>
      <point x="1239.5" y="1268.75" type="line"/>
      <point x="1251.5" y="1123.5" type="line"/>
    </contour>
    <contour>
      <point x="700.5" y="1123.5" type="line"/>
      <point x="688.5" y="1268.75" type="line"/>
      <point x="1143.25" y="1268.75" type="line"/>
      <point x="1155.25" y="1123.5" type="line"/>
    </contour>
    <contour>
      <point x="267.25" y="496.5" type="line"/>
      <point x="267.25" y="652.25" type="line"/>
      <point x="926.5" y="652.25" type="line"/>
      <point x="926.5" y="496.5" type="line"/>
    </contour>
    <contour>
      <point x="220.75" y="167.5" type="line"/>
      <point x="168.5" y="302.5"/>
      <point x="132.75" y="421.25"/>
      <point x="117.25" y="585.5" type="curve"/>
      <point x="209.75" y="640.5" type="line"/>
      <point x="397.75" y="640.5" type="line"/>
      <point x="397.75" y="167.5" type="line"/>
    </contour>
    <contour>
      <point x="209.75" y="528" type="line"/>
      <point x="209.75" y="963.33" type="line" smooth="yes"/>
      <point x="209.75" y="1085.57"/>
      <point x="180.25" y="1123.5"/>
      <point x="72" y="1123.5" type="curve" smooth="yes"/>
      <point x="-29" y="1123.5" type="line"/>
      <point x="-41" y="1268.75" type="line"/>
      <point x="101.75" y="1268.75" type="line" smooth="yes"/>
      <point x="321.5" y="1268.75"/>
      <point x="397.75" y="1182.33"/>
      <point x="397.75" y="968.261" type="curve" smooth="yes"/>
      <point x="397.75" y="528" type="line"/>
    </contour>
  </outline>
  <guideline angle="90" x="421" y="0"/>
  <guideline angle="90" x="841.75" y="0"/>
  <guideline angle="0" x="0" y="9"/>
  <guideline angle="90" x="846.75" y="0"/>
  <guideline angle="90" x="829.75" y="0"/>
  <guideline angle="0" x="0" y="1262"/>
  <guideline angle="90" x="943.75" y="0"/>
  <guideline angle="0" x="0" y="30"/>
</glyph>
<glyph name="Ma.dv" format="2">
  <advance width="1221"/>
  <unicode hex="092E"/>
  <anchor x="956.25" y="23" name="bottom"/>
  <anchor x="949.25" y="23" name="bottom2"/>
  <anchor x="1050.25" y="23" name="bottom3"/>
  <anchor x="955.25" y="42.5" name="bottom5"/>
  <anchor x="955.25" y="1238" name="top"/>
  <outline>
    <contour>
      <point x="1050.25" y="1174.5" type="line"/>
      <point x="1050.25" y="0" type="line"/>
      <point x="861.25" y="0" type="line"/>
      <point x="861.25" y="1174.5" type="line"/>
    </contour>
    <contour>
      <point x="768" y="1123.5" type="line"/>
      <point x="756" y="1268.75" type="line"/>
      <point x="1251" y="1268.75" type="line"/>
      <point x="1263" y="1123.5" type="line"/>
    </contour>
    <contour>
      <point x="1058" y="1124" type="line"/>
      <point x="-30" y="1124" type="line"/>
      <point x="-42" y="1269" type="line"/>
      <point x="1046" y="1269" type="line"/>
    </contour>
    <contour>
      <point x="943" y="651.5" type="line"/>
      <point x="943" y="495.5" type="line"/>
      <point x="270.5" y="495.5" type="line"/>
      <point x="270.5" y="651.5" type="line"/>
    </contour>
    <contour>
      <point x="398" y="1177.5" type="line"/>
      <point x="398" y="542" type="line"/>
      <point x="210" y="542" type="line"/>
      <point x="210" y="1177.5" type="line"/>
    </contour>
    <contour>
      <point x="221" y="165" type="line"/>
      <point x="169" y="299.5"/>
      <point x="133.5" y="420"/>
      <point x="118" y="584.5" type="curve"/>
      <point x="210.5" y="640.5" type="line"/>
      <point x="398" y="640.5" type="line"/>
      <point x="398" y="165" type="line"/>
    </contour>
  </outline>
</glyph>
<glyph name="Ra.dv" format="2">
  <advance width="809"/>
  <unicode hex="0930"/>
  <anchor x="378.75" y="23" name="bottom2"/>
  <anchor x="845.5" y="23" name="bottom3"/>
  <anchor x="432" y="42.5" name="bottom5"/>
  <anchor x="453" y="1238" name="top"/>
  <outline>
    <contour>
      <point x="860.5" y="1124" type="line"/>
      <point x="-30" y="1124" type="line"/>
      <point x="-41.5" y="1269" type="line"/>
      <point x="848.5" y="1269" type="line"/>
    </contour>
    <contour>
      <point x="697.5" y="0" type="line"/>
      <point x="474.162" y="0" type="line"/>
      <point x="168.193" y="478.5" type="line"/>
      <point x="54.5" y="486.5" type="line"/>
      <point x="54.5" y="648" type="line"/>
      <point x="298.5" y="584.5" type="line"/>
      <point x="298.5" y="530.506" type="line"/>
      <point x="390.856" y="446"/>
      <point x="433.788" y="400.782"/>
      <point x="508.502" y="289.5" type="curve" smooth="yes"/>
      <point x="697.5" y="8" type="line"/>
    </contour>
    <contour>
      <point x="574" y="1159.5" type="line"/>
      <point x="653.282" y="1101.62"/>
      <point x="691" y="997.609"/>
      <point x="691" y="875.779" type="curve" smooth="yes"/>
      <point x="691" y="865.774" type="line" smooth="yes"/>
      <point x="691" y="623.084"/>
      <point x="555.724" y="500.798"/>
      <point x="262.493" y="494.313" type="curve" smooth="yes"/>
      <point x="170.5" y="492.5" type="line"/>
      <point x="54.5" y="648" type="line"/>
      <point x="208.78" y="648" type="line" smooth="yes"/>
      <point x="412.118" y="648"/>
      <point x="497.5" y="726.088"/>
      <point x="497.5" y="881.5" type="curve" smooth="yes"/>
      <point x="497.5" y="891" type="line" smooth="yes"/>
      <point x="497.5" y="1011.02"/>
      <point x="456.143" y="1102.35"/>
      <point x="368.5" y="1159.5" type="curve"/>
    </contour>
  </outline>
  <guideline angle="90" x="205" y="0"/>
  <guideline angle="0" x="0" y="1262"/>
  <guideline angle="0" x="0" y="30"/>
</glyph>
<glyph name="LlaNukta.dv" format="2">
  <advance width="1539"/>
  <unicode hex="0934"/>
  <anchor x="800" y="-458" name="bottom"/>
  <anchor x="758" y="-318" name="bottom2"/>
  <anchor x="1175" y="-221" name="bottom3"/>
  <anchor x="788.5" y="43.5" name="bottom5"/>
  <anchor x="1091.25" y="1238" name="top"/>
  <outline>
    <contour>
      <point x="900.75" y="1124" type="line"/>
      <point x="888.75" y="1268.75" type="line"/>
      <point x="1359.75" y="1268.75" type="line"/>
      <point x="1371.75" y="1124" type="line"/>
    </contour>
    <contour>
      <point x="1185" y="1174.75" type="line"/>
      <point x="1185" y="950.5" type="line"/>
      <point x="1002.75" y="951.5" type="line"/>
      <point x="1002.75" y="1174.75" type="line"/>
    </contour>
    <contour>
      <point x="1580.5" y="1123.5" type="line"/>
      <point x="-29.5" y="1123.5" type="line"/>
      <point x="-41.5" y="1268.75" type="line"/>
      <point x="1568.5" y="1268.75" type="line"/>
    </contour>
    <contour>
      <point x="1185.5" y="852.25" type="line"/>
      <point x="1002.25" y="852.25" type="line"/>
      <point x="1002.25" y="1163" type="line"/>
      <point x="1185.5" y="1163" type="line"/>
    </contour>
    <contour>
      <point x="1433.75" y="419.75" type="line" smooth="yes"/>
      <point x="1433.75" y="124.426"/>
      <point x="1322.34" y="1.50002"/>
      <point x="1095.32" y="1.50002" type="curve" smooth="yes"/>
      <point x="937.492" y="1.50002"/>
      <point x="845.702" y="77.6381"/>
      <point x="810.5" y="177.5" type="curve"/>
      <point x="785" y="177.5" type="line"/>
      <point x="807.5" y="329.75" type="line"/>
      <point x="840.75" y="329.5" type="line"/>
      <point x="861.163" y="228.323"/>
      <point x="936.709" y="163.25"/>
      <point x="1049.57" y="163.25" type="curve" smooth="yes"/>
      <point x="1185.09" y="163.25"/>
      <point x="1240.5" y="233.888"/>
      <point x="1240.5" y="427" type="curve" smooth="yes"/>
      <point x="1240.5" y="478.724" type="line" smooth="yes"/>
      <point x="1240.5" y="669.821"/>
      <point x="1181.46" y="732"/>
      <point x="1061.19" y="732" type="curve" smooth="yes"/>
      <point x="947.705" y="732"/>
      <point x="892.087" y="672.147"/>
      <point x="873.225" y="533.812" type="curve" smooth="yes"/>
      <point x="835.77" y="259.109" type="line"/>
      <point x="818.162" y="235.891" type="line"/>
      <point x="788.173" y="90.1166"/>
      <point x="691.198" y="0"/>
      <point x="482.743" y="0" type="curve" smooth="yes"/>
      <point x="240.135" y="0"/>
      <point x="109.25" y="124.5"/>
      <point x="109.25" y="417.75" type="curve" smooth="yes"/>
      <point x="109.25" y="479.5" type="line" smooth="yes"/>
      <point x="109.25" y="768.25"/>
      <point x="238.903" y="889.25"/>
      <point x="462.507" y="889.25" type="curve" smooth="yes"/>
      <point x="624.357" y="889.25"/>
      <point x="700.969" y="817.961"/>
      <point x="733.5" y="717.75" type="curve"/>
      <point x="750.75" y="717.75" type="line"/>
      <point x="718.75" y="573.5" type="line"/>
      <point x="692" y="573.25" type="line"/>
      <point x="671.756" y="671.398"/>
      <point x="613.695" y="728.5"/>
      <point x="499.014" y="728.5" type="curve" smooth="yes"/>
      <point x="368.272" y="728.5"/>
      <point x="303.5" y="662.813"/>
      <point x="303.5" y="469.943" type="curve" smooth="yes"/>
      <point x="303.5" y="416.83" type="line" smooth="yes"/>
      <point x="303.5" y="223.815"/>
      <point x="367.033" y="157.5"/>
      <point x="483.275" y="157.5" type="curve" smooth="yes"/>
      <point x="598.99" y="157.5"/>
      <point x="643.334" y="215.464"/>
      <point x="659.573" y="345.401" type="curve" smooth="yes"/>
      <point x="694.581" y="625.525" type="line"/>
      <point x="720.442" y="651.73" type="line"/>
      <point x="754.746" y="805.544"/>
      <point x="873.658" y="889.75"/>
      <point x="1067.37" y="889.75" type="curve" smooth="yes"/>
      <point x="1320.99" y="889.75"/>
      <point x="1433.75" y="752.654"/>
      <point x="1433.75" y="479" type="curve" smooth="yes"/>
    </contour>
    <contour>
      <point x="758.95" y="-340.88" type="curve" smooth="yes"/>
      <point x="680.74" y="-340.88"/>
      <point x="642.43" y="-295.3"/>
      <point x="642.43" y="-221.71" type="curve"/>
      <point x="642.43" y="-220.154"/>
      <point x="642.43" y="-215.239"/>
      <point x="642.43" y="-213.54" type="curve"/>
      <point x="642.43" y="-138.7"/>
      <point x="680.74" y="-93.6201"/>
      <point x="758.95" y="-93.6201" type="curve" smooth="yes"/>
      <point x="837.16" y="-93.6201"/>
      <point x="874.97" y="-139.2"/>
      <point x="874.97" y="-213.54" type="curve"/>
      <point x="874.97" y="-215.09"/>
      <point x="874.97" y="-220.007"/>
      <point x="874.97" y="-221.71" type="curve"/>
      <point x="874.97" y="-295.55"/>
      <point x="836.91" y="-340.88"/>
    </contour>
  </outline>
</glyph>
<glyph name="Sha.dv" format="2">
  <advance width="1501"/>
  <unicode hex="0936"/>
  <anchor x="1236.25" y="23" name="bottom"/>
  <anchor x="1229.25" y="23" name="bottom2"/>
  <anchor x="1330.25" y="23" name="bottom3"/>
  <anchor x="1235.25" y="42.5" name="bottom5"/>
  <anchor x="1235.25" y="1238" name="top"/>
  <outline>
    <contour>
      <point x="1330.25" y="1174.5" type="line"/>
      <point x="1330.25" y="0" type="line"/>
      <point x="1141.25" y="0" type="line"/>
      <point x="1141.25" y="1174.5" type="line"/>
    </contour>
    <contour>
      <point x="1048" y="1123.5" type="line"/>
      <point x="1036" y="1268.75" type="line"/>
      <point x="1531" y="1268.75" type="line"/>
      <point x="1543" y="1123.5" type="line"/>
    </contour>
    <contour>
      <point x="981.5" y="1269" type="line"/>
      <point x="1480" y="1269" type="line"/>
      <point x="1492" y="1124" type="line"/>
      <point x="993.5" y="1124" type="line"/>
    </contour>
    <contour>
      <point x="837" y="0" type="line"/>
      <point x="592.832" y="0" type="line"/>
      <point x="246.357" y="388" type="line"/>
      <point x="96" y="398.5" type="line"/>
      <point x="96" y="560.5" type="line"/>
      <point x="392.5" y="482" type="line"/>
      <point x="392.5" y="421.044" type="line"/>
      <point x="498.998" y="358.719"/>
      <point x="555.321" y="310.756"/>
      <point x="636.658" y="224.371" type="curve" smooth="yes"/>
      <point x="837" y="11.5967" type="line"/>
    </contour>
    <contour>
      <point x="888.5" y="897.812" type="curve" smooth="yes"/>
      <point x="888.5" y="859.498" type="line" smooth="yes"/>
      <point x="888.5" y="539.11"/>
      <point x="713.004" y="404.5"/>
      <point x="366.974" y="404.5" type="curve" smooth="yes"/>
      <point x="310.952" y="404.5"/>
      <point x="257.899" y="405.5"/>
      <point x="200.604" y="410.444" type="curve"/>
      <point x="96" y="561.5" type="line"/>
      <point x="177.102" y="556.5"/>
      <point x="236.62" y="554.5"/>
      <point x="305.454" y="554.5" type="curve" smooth="yes"/>
      <point x="578.157" y="554.5"/>
      <point x="697" y="636.471"/>
      <point x="697" y="871.667" type="curve" smooth="yes"/>
      <point x="697" y="908.309" type="line" smooth="yes"/>
      <point x="697" y="1072"/>
      <point x="636" y="1139.5"/>
      <point x="508.761" y="1139.5" type="curve" smooth="yes"/>
      <point x="387.421" y="1139.5"/>
      <point x="325" y="1081.81"/>
      <point x="325" y="950.815" type="curve" smooth="yes"/>
      <point x="325" y="944.232" type="line" smooth="yes"/>
      <point x="325" y="870.637"/>
      <point x="341" y="807.075"/>
      <point x="374.5" y="747.5" type="curve"/>
      <point x="189" y="747.5" type="line"/>
      <point x="150" y="809"/>
      <point x="137.5" y="878.5"/>
      <point x="137.5" y="953.5" type="curve" smooth="yes"/>
      <point x="137.5" y="963" type="line" smooth="yes"/>
      <point x="137.5" y="1181.15"/>
      <point x="266.983" y="1293.5"/>
      <point x="507.024" y="1293.5" type="curve" smooth="yes"/>
      <point x="764" y="1293.5"/>
      <point x="888.5" y="1160"/>
    </contour>
  </outline>
</glyph>
<glyph name="Sa.dv" format="2">
  <advance width="1372"/>
  <unicode hex="0938"/>
  <anchor x="1106.75" y="23" name="bottom"/>
  <anchor x="1099.75" y="23" name="bottom2"/>
  <anchor x="1200.75" y="23" name="bottom3"/>
  <anchor x="1105.75" y="42.5" name="bottom5"/>
  <anchor x="1105.75" y="1238" name="top"/>
  <outline>
    <contour>
      <point x="1200.75" y="1174.5" type="line"/>
      <point x="1200.75" y="0" type="line"/>
      <point x="1011.75" y="0" type="line"/>
      <point x="1011.75" y="1174.5" type="line"/>
    </contour>
    <contour>
      <point x="918.5" y="1123.5" type="line"/>
      <point x="906.5" y="1268.75" type="line"/>
      <point x="1401.5" y="1268.75" type="line"/>
      <point x="1413.5" y="1123.5" type="line"/>
    </contour>
    <contour>
      <point x="1307" y="1124" type="line"/>
      <point x="-29.5" y="1124" type="line"/>
      <point x="-41.5" y="1269" type="line"/>
      <point x="1295.5" y="1269" type="line"/>
    </contour>
    <contour>
      <point x="510" y="654" type="line"/>
      <point x="1048.5" y="654" type="line"/>
      <point x="1048.5" y="497.5" type="line"/>
      <point x="545" y="497.5" type="line"/>
    </contour>
    <contour>
      <point x="674" y="0" type="line"/>
      <point x="455.5" y="0" type="line"/>
      <point x="167.74" y="480" type="line"/>
      <point x="54.5" y="485.5" type="line"/>
      <point x="54.5" y="648" type="line"/>
      <point x="303.5" y="608.5" type="line"/>
      <point x="303.5" y="532.5" type="line"/>
      <point x="386.909" y="452.5"/>
      <point x="425.388" y="397.552"/>
      <point x="503.5" y="275" type="curve" smooth="yes"/>
      <point x="674" y="7.5" type="line"/>
    </contour>
    <contour>
      <point x="507" y="1159.5" type="line"/>
      <point x="589.675" y="1100.62"/>
      <point x="628" y="1003.61"/>
      <point x="628" y="868.779" type="curve" smooth="yes"/>
      <point x="628" y="856.5" type="line" smooth="yes"/>
      <point x="628" y="626.482"/>
      <point x="512.104" y="510.52"/>
      <point x="233.977" y="501.172" type="curve" smooth="yes"/>
      <point x="154.5" y="498.5" type="line"/>
      <point x="54.5" y="648" type="line"/>
      <point x="147.477" y="648" type="line" smooth="yes"/>
      <point x="359.093" y="648"/>
      <point x="434.5" y="710"/>
      <point x="434.5" y="879.5" type="curve" smooth="yes"/>
      <point x="434.5" y="889" type="line" smooth="yes"/>
      <point x="434.5" y="1013.02"/>
      <point x="392.629" y="1103.35"/>
      <point x="301.5" y="1159.5" type="curve"/>
    </contour>
  </outline>
</glyph>
<glyph name="Ha.dv" format="2">
  <advance width="1100"/>
  <unicode hex="0939"/>
  <anchor x="642" y="-96" name="bottom"/>
  <anchor x="524.5" y="-173.25" name="bottom2"/>
  <anchor x="979.25" y="-173.25" name="bottom3"/>
  <anchor x="280" y="-142" name="bottom4"/>
  <anchor x="581" y="-153.25" name="bottom5"/>
  <anchor x="846.001" y="1237.9" name="top"/>
  <outline>
    <contour>
      <point x="655.501" y="1123.9" type="line"/>
      <point x="643.501" y="1268.65" type="line"/>
      <point x="1114.5" y="1268.65" type="line"/>
      <point x="1126.5" y="1123.9" type="line"/>
    </contour>
    <contour>
      <point x="939.751" y="1174.65" type="line"/>
      <point x="939.751" y="950.403" type="line"/>
      <point x="757.501" y="951.403" type="line"/>
      <point x="757.501" y="1174.65" type="line"/>
    </contour>
    <contour>
      <point x="1142" y="1123.5" type="line"/>
      <point x="-24.2493" y="1123.5" type="line"/>
      <point x="-35.9993" y="1268.75" type="line"/>
      <point x="1130" y="1268.75" type="line"/>
    </contour>
    <contour>
      <point x="755.25" y="1168.25" type="line"/>
      <point x="939.5" y="1168.25" type="line"/>
      <point x="939.5" y="775.75" type="line"/>
      <point x="755.25" y="823.5" type="line"/>
    </contour>
    <contour>
      <point x="236.25" y="443.75" type="line"/>
      <point x="157.174" y="503.051"/>
      <point x="112.25" y="572.915"/>
      <point x="112.25" y="663.75" type="curve" smooth="yes"/>
      <point x="112.25" y="674.25" type="line" smooth="yes"/>
      <point x="112.25" y="850.084"/>
      <point x="237.596" y="952.5"/>
      <point x="563.25" y="952.5" type="curve" smooth="yes"/>
      <point x="675.637" y="952.5"/>
      <point x="812.849" y="940"/>
      <point x="939.5" y="916.5" type="curve"/>
      <point x="939.5" y="772.5" type="line"/>
      <point x="826.592" y="790"/>
      <point x="713.804" y="798.25"/>
      <point x="599.25" y="798.25" type="curve" smooth="yes"/>
      <point x="382.103" y="798.25"/>
      <point x="306.75" y="746.437"/>
      <point x="306.75" y="649.495" type="curve" smooth="yes"/>
      <point x="306.75" y="641.975" type="line" smooth="yes"/>
      <point x="306.75" y="593.25"/>
      <point x="327.5" y="556"/>
      <point x="365.75" y="518.25" type="curve"/>
    </contour>
    <contour>
      <point x="879.001" y="-174" type="line"/>
      <point x="811.501" y="-194.5"/>
      <point x="735.501" y="-206.25"/>
      <point x="635.751" y="-206.25" type="curve" smooth="yes"/>
      <point x="344.251" y="-206.25"/>
      <point x="123.501" y="-79.3878"/>
      <point x="123.501" y="187.942" type="curve" smooth="yes"/>
      <point x="123.501" y="198.947" type="line" smooth="yes"/>
      <point x="123.501" y="331.91"/>
      <point x="179.001" y="430.965"/>
      <point x="284.751" y="489.746" type="curve"/>
      <point x="306.251" y="502.4" type="line"/>
      <point x="372.13" y="542.858"/>
      <point x="473.663" y="568.25"/>
      <point x="592.001" y="568.25" type="curve" smooth="yes"/>
      <point x="869.83" y="568.25"/>
      <point x="1000.75" y="453.136"/>
      <point x="1000.75" y="257.25" type="curve" smooth="yes"/>
      <point x="1000.75" y="220.842"/>
      <point x="996.001" y="184.544"/>
      <point x="986.751" y="147.5" type="curve"/>
      <point x="813.251" y="147.5" type="line"/>
      <point x="813.251" y="210.5" type="line" smooth="yes"/>
      <point x="813.251" y="352.894"/>
      <point x="740.695" y="409.5"/>
      <point x="575.712" y="409.5" type="curve" smooth="yes"/>
      <point x="410.647" y="409.5"/>
      <point x="318.251" y="341.565"/>
      <point x="318.251" y="196.893" type="curve" smooth="yes"/>
      <point x="318.251" y="189.225" type="line" smooth="yes"/>
      <point x="318.251" y="24.6768"/>
      <point x="459.705" y="-45.5"/>
      <point x="657.501" y="-45.5" type="curve" smooth="yes"/>
      <point x="745.198" y="-45.5"/>
      <point x="820.474" y="-34.5"/>
      <point x="895.001" y="-16.5" type="curve"/>
    </contour>
  </outline>
  <guideline angle="0" x="0" y="467"/>
  <guideline angle="0" x="0" y="320"/>
  <guideline angle="0" x="0" y="-111"/>
  <guideline angle="0" x="0" y="-90"/>
  <guideline angle="90" x="749.001" y="0"/>
</glyph>
<glyph name="uni093A" format="2">
  <unicode hex="093A"/>
  <anchor x="-266" y="1238" name="_top"/>
  <outline>
    <contour>
      <point x="-350.75" y="1695" type="line"/>
      <point x="-182.25" y="1695" type="line"/>
      <point x="-182.25" y="1245" type="line"/>
      <point x="-350.75" y="1245" type="line"/>
    </contour>
  </outline>
</glyph>
<glyph name="Nukta.dv" format="2">
  <unicode hex="093C"/>
  <anchor x="-475.75" y="101.5" name="_bottom4"/>
  <outline>
    <contour>
      <point x="-475.75" y="-242.63" type="curve" smooth="yes"/>
      <point x="-553.96" y="-242.63"/>
      <point x="-592.27" y="-197.05"/>
      <point x="-592.27" y="-123.46" type="curve"/>
      <point x="-592.27" y="-121.904"/>
      <point x="-592.27" y="-116.989"/>
      <point x="-592.27" y="-115.29" type="curve"/>
      <point x="-592.27" y="-40.4502"/>
      <point x="-553.96" y="4.62984"/>
      <point x="-475.75" y="4.62984" type="curve" smooth="yes"/>
      <point x="-397.54" y="4.62984"/>
      <point x="-359.73" y="-40.9502"/>
      <point x="-359.73" y="-115.29" type="curve"/>
      <point x="-359.73" y="-116.84"/>
      <point x="-359.73" y="-121.757"/>
      <point x="-359.73" y="-123.46" type="curve"/>
      <point x="-359.73" y="-197.3"/>
      <point x="-397.79" y="-242.63"/>
    </contour>
  </outline>
</glyph>
<glyph name="Avagraha.dv" format="2">
  <advance width="1008"/>
  <unicode hex="093D"/>
  <outline>
    <contour>
      <point x="80.25" y="306.5" type="line"/>
      <point x="200.727" y="211.789"/>
      <point x="333.935" y="146.789"/>
      <point x="490.25" y="146.5" type="curve" smooth="yes"/>
      <point x="637.556" y="146.228"/>
      <point x="722" y="216.61"/>
      <point x="722" y="341.529" type="curve" smooth="yes"/>
      <point x="722" y="349.088" type="line" smooth="yes"/>
      <point x="722" y="472.315"/>
      <point x="671.965" y="530.249"/>
      <point x="445.513" y="613.385" type="curve" smooth="yes"/>
      <point x="197.033" y="704.609"/>
      <point x="105.5" y="792.966"/>
      <point x="105.5" y="965.31" type="curve" smooth="yes"/>
      <point x="105.5" y="973.516" type="line" smooth="yes"/>
      <point x="105.5" y="1160.82"/>
      <point x="227.832" y="1268.5"/>
      <point x="474.685" y="1268.5" type="curve" smooth="yes"/>
      <point x="847" y="1268.5" type="line"/>
      <point x="863.5" y="1118.25" type="line"/>
      <point x="493.902" y="1118.25" type="line" smooth="yes"/>
      <point x="359.326" y="1118.25"/>
      <point x="299.25" y="1068.9"/>
      <point x="299.25" y="975.488" type="curve" smooth="yes"/>
      <point x="299.25" y="969.303" type="line" smooth="yes"/>
      <point x="299.25" y="873.07"/>
      <point x="358.413" y="830.463"/>
      <point x="572.019" y="752.219" type="curve" smooth="yes"/>
      <point x="828.937" y="658.109"/>
      <point x="919" y="541.488"/>
      <point x="919" y="353.661" type="curve" smooth="yes"/>
      <point x="919" y="341.356" type="line" smooth="yes"/>
      <point x="919" y="103.286"/>
      <point x="768.005" y="-14.5"/>
      <point x="504.25" y="-14.5" type="curve" smooth="yes"/>
      <point x="324.672" y="-14.5"/>
      <point x="198.632" y="31.5702"/>
      <point x="91.5" y="111.292" type="curve"/>
    </contour>
  </outline>
</glyph>
<glyph name="matraA.dv" format="2">
  <advance width="530"/>
  <unicode hex="093E"/>
  <outline>
    <contour>
      <point x="360" y="0" type="line"/>
      <point x="170.25" y="0" type="line"/>
      <point x="170.25" y="1174.5" type="line"/>
      <point x="360" y="1174.5" type="line"/>
    </contour>
    <contour>
      <point x="571.75" y="1123.5" type="line"/>
      <point x="-29.5" y="1123.5" type="line"/>
      <point x="-44.5" y="1268.75" type="line"/>
      <point x="559.75" y="1268.75" type="line"/>
    </contour>
  </outline>
</glyph>
<glyph name="matraI.dv" format="2">
  <advance width="530"/>
  <unicode hex="093F"/>
  <outline>
    <contour>
      <point x="360" y="0" type="line"/>
      <point x="170.25" y="0" type="line"/>
      <point x="170.25" y="1174.5" type="line"/>
      <point x="360" y="1174.5" type="line"/>
    </contour>
    <contour>
      <point x="571.75" y="1123.5" type="line"/>
      <point x="-29.5" y="1123.5" type="line"/>
      <point x="-44.5" y="1268.75" type="line"/>
      <point x="559.75" y="1268.75" type="line"/>
    </contour>
    <contour>
      <point x="735.417" y="1758.25" type="curve" smooth="yes"/>
      <point x="1011.65" y="1758.25"/>
      <point x="1260.6" y="1669.64"/>
      <point x="1430.99" y="1540" type="curve"/>
      <point x="1457.25" y="1350.25" type="line"/>
      <point x="1448.54" y="1347.25" type="line"/>
      <point x="1232.62" y="1511.25"/>
      <point x="988.575" y="1600.5"/>
      <point x="742.345" y="1600.5" type="curve" smooth="yes"/>
      <point x="482.449" y="1600.5"/>
      <point x="357.25" y="1490.02"/>
      <point x="357.25" y="1288.57" type="curve" smooth="yes"/>
      <point x="357.25" y="1238.25" type="line"/>
      <point x="172.5" y="1238.25" type="line"/>
      <point x="172.5" y="1296" type="line" smooth="yes"/>
      <point x="172.5" y="1589.01"/>
      <point x="347.305" y="1758.25"/>
    </contour>
  </outline>
  <guideline angle="90" x="1431" y="0"/>
  <guideline angle="0" x="0" y="1522"/>
</glyph>
<glyph name="matraIi.dv" format="2">
  <advance width="530"/>
  <unicode hex="0940"/>
  <outline>
    <contour>
      <point x="360" y="0" type="line"/>
      <point x="170.25" y="0" type="line"/>
      <point x="170.25" y="1174.5" type="line"/>
      <point x="360" y="1174.5" type="line"/>
    </contour>
    <contour>
      <point x="571.75" y="1123.5" type="line"/>
      <point x="-29.5" y="1123.5" type="line"/>
      <point x="-44.5" y="1268.75" type="line"/>
      <point x="559.75" y="1268.75" type="line"/>
    </contour>
    <contour>
      <point x="-10.7209" y="1779.75" type="curve" smooth="yes"/>
      <point x="229.176" y="1779.75"/>
      <point x="351.75" y="1656.84"/>
      <point x="351.75" y="1380.75" type="curve" smooth="yes"/>
      <point x="351.75" y="1248" type="line"/>
      <point x="171.75" y="1248" type="line"/>
      <point x="171.75" y="1378.92" type="line" smooth="yes"/>
      <point x="171.75" y="1562.02"/>
      <point x="113.566" y="1625.25"/>
      <point x="-4.51041" y="1625.25" type="curve" smooth="yes"/>
      <point x="-118.824" y="1625.25"/>
      <point x="-178.5" y="1568.11"/>
      <point x="-178.5" y="1442.34" type="curve" smooth="yes"/>
      <point x="-178.5" y="1351.5" type="line"/>
      <point x="-347.75" y="1372.25" type="line"/>
      <point x="-355.667" y="1417.38"/>
      <point x="-359" y="1454.5"/>
      <point x="-359" y="1490.75" type="curve" smooth="yes"/>
      <point x="-359" y="1670"/>
      <point x="-236.234" y="1779.75"/>
    </contour>
  </outline>
</glyph>
<glyph name="matraU.dv" format="2">
  <unicode hex="0941"/>
  <anchor x="-270" y="23" name="_bottom"/>
  <outline>
    <contour>
      <point x="-707.088" y="-176.25" type="line"/>
      <point x="-624.433" y="-344.988"/>
      <point x="-520.172" y="-434.75"/>
      <point x="-354.649" y="-434.75" type="curve" smooth="yes"/>
      <point x="-226.19" y="-434.75"/>
      <point x="-171.25" y="-378.758"/>
      <point x="-171.25" y="-282.205" type="curve" smooth="yes"/>
      <point x="-171.25" y="-273.969" type="line" smooth="yes"/>
      <point x="-171.25" y="-181.503"/>
      <point x="-211.079" y="-136.5"/>
      <point x="-310.524" y="-136.5" type="curve" smooth="yes"/>
      <point x="-382.488" y="-136.5"/>
      <point x="-453.273" y="-160.083"/>
      <point x="-521" y="-192.75" type="curve"/>
      <point x="-506" y="-31.1118" type="line"/>
      <point x="-445.863" y="-0.606844"/>
      <point x="-380.688" y="18"/>
      <point x="-291" y="18" type="curve" smooth="yes"/>
      <point x="-91.4438" y="18"/>
      <point x="10.5" y="-93.3422"/>
      <point x="10.5" y="-269.795" type="curve" smooth="yes"/>
      <point x="10.5" y="-282" type="line" smooth="yes"/>
      <point x="10.5" y="-476.626"/>
      <point x="-104.986" y="-587.5"/>
      <point x="-350.341" y="-587.5" type="curve" smooth="yes"/>
      <point x="-626.206" y="-587.5"/>
      <point x="-798.006" y="-441.5"/>
      <point x="-897.75" y="-176.25" type="curve"/>
    </contour>
  </outline>
</glyph>
<glyph name="matraRu.dv" format="2">
  <unicode hex="0943"/>
  <anchor x="-265" y="23" name="_bottom"/>
  <outline>
    <contour>
      <point x="-312.5" y="-586" type="curve" smooth="yes"/>
      <point x="-543.916" y="-586"/>
      <point x="-675.25" y="-477.07"/>
      <point x="-675.25" y="-280.701" type="curve" smooth="yes"/>
      <point x="-675.25" y="-266.395" type="line" smooth="yes"/>
      <point x="-675.25" y="-79.3042"/>
      <point x="-555.608" y="23"/>
      <point x="-316.494" y="23" type="curve" smooth="yes"/>
      <point x="-171.302" y="23" type="line"/>
      <point x="-171.302" y="-124" type="line"/>
      <point x="-289.302" y="-124" type="line" smooth="yes"/>
      <point x="-432.694" y="-124"/>
      <point x="-489" y="-166.162"/>
      <point x="-489" y="-270.022" type="curve" smooth="yes"/>
      <point x="-489" y="-279.535" type="line" smooth="yes"/>
      <point x="-489" y="-378.55"/>
      <point x="-427.148" y="-431"/>
      <point x="-291.181" y="-431" type="curve" smooth="yes"/>
      <point x="-196.086" y="-431"/>
      <point x="-113.55" y="-402.082"/>
      <point x="-37.5" y="-353.75" type="curve"/>
      <point x="-51.0086" y="-521.227" type="line"/>
      <point x="-115.666" y="-562.951"/>
      <point x="-197.7" y="-586"/>
    </contour>
  </outline>
  <guideline angle="0" x="0" y="5936"/>
  <guideline angle="90" x="-186" y="0"/>
  <guideline angle="0" x="0" y="9"/>
  <guideline angle="90" x="-151" y="0"/>
  <guideline angle="0" x="0" y="15"/>
  <guideline angle="90" x="-396" y="0"/>
</glyph>
<glyph name="matraRuu.dv" format="2">
  <unicode hex="0944"/>
  <anchor x="-265" y="23" name="_bottom"/>
  <outline>
    <contour>
      <point x="-171.478" y="22.75" type="line"/>
      <point x="-171.478" y="-117" type="line"/>
      <point x="-315.972" y="-117" type="line" smooth="yes"/>
      <point x="-430.641" y="-117"/>
      <point x="-483.75" y="-141.618"/>
      <point x="-483.75" y="-205.867" type="curve" smooth="yes"/>
      <point x="-483.75" y="-209.703" type="line" smooth="yes"/>
      <point x="-483.75" y="-263.599"/>
      <point x="-425.662" y="-295.75"/>
      <point x="-311.684" y="-295.75" type="curve" smooth="yes"/>
      <point x="-218.003" y="-295.75"/>
      <point x="-141.555" y="-280.5"/>
      <point x="-70" y="-244.25" type="curve"/>
      <point x="-82.25" y="-401.583" type="line"/>
      <point x="-146.176" y="-434.629"/>
      <point x="-229.024" y="-450"/>
      <point x="-329.75" y="-450" type="curve" smooth="yes"/>
      <point x="-541.833" y="-450"/>
      <point x="-670.25" y="-358.469"/>
      <point x="-670.25" y="-209.289" type="curve" smooth="yes"/>
      <point x="-670.25" y="-201.738" type="line" smooth="yes"/>
      <point x="-670.25" y="-54.8711"/>
      <point x="-565.236" y="22.6181"/>
      <point x="-354.25" y="22.6888" type="curve" smooth="yes"/>
    </contour>
    <contour>
      <point x="-354.25" y="-444.25" type="line"/>
      <point x="-437.303" y="-447.188"/>
      <point x="-477.5" y="-476.337"/>
      <point x="-477.5" y="-525.361" type="curve" smooth="yes"/>
      <point x="-477.5" y="-529.584" type="line" smooth="yes"/>
      <point x="-477.5" y="-585.595"/>
      <point x="-423.421" y="-619.5"/>
      <point x="-304.42" y="-619.5" type="curve" smooth="yes"/>
      <point x="-215.292" y="-619.5"/>
      <point x="-136.162" y="-599.851"/>
      <point x="-62.75" y="-563" type="curve"/>
      <point x="-74.8226" y="-721.724" type="line"/>
      <point x="-139.51" y="-756.899"/>
      <point x="-227.611" y="-774.5"/>
      <point x="-330" y="-774.5" type="curve" smooth="yes"/>
      <point x="-544.808" y="-774.5"/>
      <point x="-663.5" y="-692.505"/>
      <point x="-663.5" y="-570.229" type="curve" smooth="yes"/>
      <point x="-663.5" y="-564.331" type="line" smooth="yes"/>
      <point x="-663.5" y="-489.114"/>
      <point x="-617.806" y="-440.209"/>
      <point x="-530" y="-420.75" type="curve"/>
      <point x="-530" y="-390.75" type="line"/>
    </contour>
  </outline>
</glyph>
<glyph name="Chandra.dv" format="2">
  <unicode hex="0945"/>
  <anchor x="-265.25" y="1238" name="_top"/>
  <outline>
    <contour>
      <point x="74" y="1759.75" type="line"/>
      <point x="75.75" y="1738"/>
      <point x="76" y="1726.75"/>
      <point x="76" y="1716.25" type="curve" smooth="yes"/>
      <point x="76" y="1507.75"/>
      <point x="-40.1865" y="1411"/>
      <point x="-265.256" y="1411" type="curve" smooth="yes"/>
      <point x="-489.302" y="1411"/>
      <point x="-606" y="1507.75"/>
      <point x="-606" y="1716.25" type="curve" smooth="yes"/>
      <point x="-606" y="1726"/>
      <point x="-606" y="1737.5"/>
      <point x="-604" y="1759.75" type="curve"/>
      <point x="-440.75" y="1759.75" type="line"/>
      <point x="-440.75" y="1756.26"/>
      <point x="-440.75" y="1731.63"/>
      <point x="-440.75" y="1729.61" type="curve" smooth="yes"/>
      <point x="-440.75" y="1604.53"/>
      <point x="-385.743" y="1550.5"/>
      <point x="-265.249" y="1550.5" type="curve" smooth="yes"/>
      <point x="-144.755" y="1550.5"/>
      <point x="-89.25" y="1605.01"/>
      <point x="-89.25" y="1729.61" type="curve" smooth="yes"/>
      <point x="-89.25" y="1731.83"/>
      <point x="-89.25" y="1757.04"/>
      <point x="-89.25" y="1759.75" type="curve"/>
    </contour>
  </outline>
</glyph>
<glyph name="matraShortE.dv" format="2">
  <unicode hex="0946"/>
  <anchor x="-264" y="1238" name="_top"/>
  <outline>
    <contour>
      <point x="-847.75" y="1785.01" type="curve" smooth="yes"/>
      <point x="-846.75" y="1669.73"/>
      <point x="-801.319" y="1620.71"/>
      <point x="-655.486" y="1619.75" type="curve" smooth="yes"/>
      <point x="-504.178" y="1618.75" type="line" smooth="yes"/>
      <point x="-269.429" y="1617.2"/>
      <point x="-181" y="1508.66"/>
      <point x="-181" y="1308.12" type="curve" smooth="yes"/>
      <point x="-181" y="1237.5" type="line"/>
      <point x="-351.25" y="1237.5" type="line"/>
      <point x="-351.25" y="1298.75" type="line" smooth="yes"/>
      <point x="-351.25" y="1409.26"/>
      <point x="-392.246" y="1462.29"/>
      <point x="-527.078" y="1463.31" type="curve" smooth="yes"/>
      <point x="-687.808" y="1464.54" type="line" smooth="yes"/>
      <point x="-913.83" y="1466.26"/>
      <point x="-1017.5" y="1557.27"/>
      <point x="-1017.5" y="1722.22" type="curve" smooth="yes"/>
      <point x="-1017.5" y="1753.02"/>
      <point x="-1014" y="1781.5"/>
      <point x="-1006" y="1810" type="curve"/>
      <point x="-848" y="1810" type="line"/>
      <point x="-847.979" y="1807.21"/>
      <point x="-847.776" y="1787.93"/>
    </contour>
  </outline>
</glyph>
<glyph name="matraE.dv" format="2">
  <unicode hex="0947"/>
  <anchor x="-265.25" y="1238" name="_top"/>
  <outline>
    <contour>
      <point x="-985" y="1776.25" type="line"/>
      <point x="-736.604" y="1776.25" type="line"/>
      <point x="-624.334" y="1669.67"/>
      <point x="-299.175" y="1361.51"/>
      <point x="-191.75" y="1260.75" type="curve"/>
      <point x="-191.75" y="1238" type="line"/>
      <point x="-369.5" y="1238" type="line"/>
      <point x="-369.5" y="1275.5" type="line"/>
      <point x="-528.55" y="1358.59"/>
      <point x="-621.302" y="1421.92"/>
      <point x="-752.75" y="1542.5" type="curve" smooth="yes"/>
      <point x="-985" y="1755.54" type="line"/>
    </contour>
  </outline>
</glyph>
<glyph name="matraAi.dv" format="2">
  <unicode hex="0948"/>
  <anchor x="-265.25" y="1238" name="_top"/>
  <outline>
    <contour>
      <point x="-823.667" y="1650.25" type="line"/>
      <point x="-350.75" y="1354.75" type="line"/>
      <point x="-342.5" y="1363.75" type="line"/>
      <point x="-464.488" y="1500.98"/>
      <point x="-521.356" y="1578.44"/>
      <point x="-586.298" y="1688.92" type="curve" smooth="yes"/>
      <point x="-692.25" y="1869.18" type="line"/>
      <point x="-692.25" y="1888" type="line"/>
      <point x="-491.859" y="1888" type="line"/>
      <point x="-183.75" y="1260.75" type="line"/>
      <point x="-183.75" y="1238" type="line"/>
      <point x="-368.25" y="1238" type="line"/>
      <point x="-368.25" y="1277.5" type="line"/>
      <point x="-561.645" y="1324.99"/>
      <point x="-706.494" y="1381.24"/>
      <point x="-829" y="1460.32" type="curve" smooth="yes"/>
      <point x="-1078.75" y="1621.53" type="line"/>
      <point x="-1078.75" y="1650.25" type="line"/>
    </contour>
  </outline>
  <guideline angle="90" x="-169" y="0"/>
  <guideline angle="0" x="0" y="1262"/>
</glyph>
<glyph name="matraAChandra.dv" format="2">
  <advance width="530"/>
  <unicode hex="0949"/>
  <outline>
    <contour>
      <point x="360" y="0" type="line"/>
      <point x="170.25" y="0" type="line"/>
      <point x="170.25" y="1174.5" type="line"/>
      <point x="360" y="1174.5" type="line"/>
    </contour>
    <contour>
      <point x="571.75" y="1123.5" type="line"/>
      <point x="-29.5" y="1123.5" type="line"/>
      <point x="-44.5" y="1268.75" type="line"/>
      <point x="559.75" y="1268.75" type="line"/>
    </contour>
    <contour>
      <point x="346.5" y="1759.75" type="line"/>
      <point x="348.25" y="1738"/>
      <point x="348.5" y="1726.75"/>
      <point x="348.5" y="1716.25" type="curve" smooth="yes"/>
      <point x="348.5" y="1507.75"/>
      <point x="232.314" y="1411"/>
      <point x="7.24406" y="1411" type="curve" smooth="yes"/>
      <point x="-216.802" y="1411"/>
      <point x="-333.5" y="1507.75"/>
      <point x="-333.5" y="1716.25" type="curve" smooth="yes"/>
      <point x="-333.5" y="1726"/>
      <point x="-333.5" y="1737.5"/>
      <point x="-331.5" y="1759.75" type="curve"/>
      <point x="-168.25" y="1759.75" type="line"/>
      <point x="-168.25" y="1756.26"/>
      <point x="-168.25" y="1731.63"/>
      <point x="-168.25" y="1729.61" type="curve" smooth="yes"/>
      <point x="-168.25" y="1604.53"/>
      <point x="-113.243" y="1550.5"/>
      <point x="7.25101" y="1550.5" type="curve" smooth="yes"/>
      <point x="127.745" y="1550.5"/>
      <point x="183.25" y="1605.01"/>
      <point x="183.25" y="1729.61" type="curve" smooth="yes"/>
      <point x="183.25" y="1731.83"/>
      <point x="183.25" y="1757.04"/>
      <point x="183.25" y="1759.75" type="curve"/>
    </contour>
  </outline>
</glyph>
<glyph name="matraShortO.dv" format="2">
  <advance width="530"/>
  <unicode hex="094A"/>
  <outline>
    <contour>
      <point x="-321.324" y="1787.37" type="curve" smooth="yes"/>
      <point x="-320.318" y="1671.49"/>
      <point x="-274.655" y="1622.23"/>
      <point x="-128.079" y="1621.26" type="curve" smooth="yes"/>
      <point x="24" y="1620.26" type="line" smooth="yes"/>
      <point x="259.946" y="1618.7"/>
      <point x="348.826" y="1509.61"/>
      <point x="348.826" y="1308.04" type="curve" smooth="yes"/>
      <point x="348.826" y="1237.06" type="line"/>
      <point x="177.708" y="1237.06" type="line"/>
      <point x="177.708" y="1298.62" type="line" smooth="yes"/>
      <point x="177.708" y="1409.69"/>
      <point x="136.503" y="1462.99"/>
      <point x="0.983536" y="1464.03" type="curve" smooth="yes"/>
      <point x="-160.567" y="1465.26" type="line" smooth="yes"/>
      <point x="-387.742" y="1466.99"/>
      <point x="-491.94" y="1558.46"/>
      <point x="-491.94" y="1724.26" type="curve" smooth="yes"/>
      <point x="-491.94" y="1755.21"/>
      <point x="-488.422" y="1783.83"/>
      <point x="-480.381" y="1812.48" type="curve"/>
      <point x="-321.575" y="1812.48" type="line"/>
      <point x="-321.555" y="1809.68"/>
      <point x="-321.35" y="1790.29"/>
    </contour>
    <contour>
      <point x="360" y="0" type="line"/>
      <point x="170.25" y="0" type="line"/>
      <point x="170.25" y="1174.5" type="line"/>
      <point x="360" y="1174.5" type="line"/>
    </contour>
    <contour>
      <point x="571.75" y="1123.5" type="line"/>
      <point x="-29.5" y="1123.5" type="line"/>
      <point x="-44.5" y="1268.75" type="line"/>
      <point x="559.75" y="1268.75" type="line"/>
    </contour>
  </outline>
</glyph>
<glyph name="matraAu.dv" format="2">
  <advance width="530"/>
  <unicode hex="094C"/>
  <outline>
    <contour>
      <point x="360" y="0" type="line"/>
      <point x="170.25" y="0" type="line"/>
      <point x="170.25" y="1174.5" type="line"/>
      <point x="360" y="1174.5" type="line"/>
    </contour>
    <contour>
      <point x="571.75" y="1123.5" type="line"/>
      <point x="-29.5" y="1123.5" type="line"/>
      <point x="-44.5" y="1268.75" type="line"/>
      <point x="559.75" y="1268.75" type="line"/>
    </contour>
    <contour>
      <point x="-291.417" y="1650.25" type="line"/>
      <point x="181.5" y="1354.75" type="line"/>
      <point x="189.75" y="1363.75" type="line"/>
      <point x="67.7624" y="1500.98"/>
      <point x="10.8943" y="1578.44"/>
      <point x="-54.048" y="1688.92" type="curve" smooth="yes"/>
      <point x="-160" y="1869.18" type="line"/>
      <point x="-160" y="1888" type="line"/>
      <point x="40.3907" y="1888" type="line"/>
      <point x="348.5" y="1260.75" type="line"/>
      <point x="348.5" y="1238" type="line"/>
      <point x="164" y="1238" type="line"/>
      <point x="164" y="1277.5" type="line"/>
      <point x="-29.3951" y="1324.99"/>
      <point x="-174.244" y="1381.24"/>
      <point x="-296.75" y="1460.32" type="curve" smooth="yes"/>
      <point x="-546.5" y="1621.53" type="line"/>
      <point x="-546.5" y="1650.25" type="line"/>
    </contour>
  </outline>
</glyph>
<glyph name="Halant.dv" format="2">
  <unicode hex="094D"/>
  <anchor x="-270.25" y="23" name="_bottom2"/>
  <outline>
    <contour>
      <point x="-383" y="-133.5" type="line"/>
      <point x="-166.25" y="-133.5" type="line"/>
      <point x="153" y="-562.5" type="line"/>
      <point x="153" y="-571.75" type="line"/>
      <point x="-33.75" y="-571.75" type="line"/>
      <point x="-383" y="-154.25" type="line"/>
    </contour>
  </outline>
</glyph>
<glyph name="uni094E" format="2">
  <advance width="530"/>
  <unicode hex="094E"/>
  <outline>
    <contour>
      <point x="361" y="1174.5" type="line"/>
      <point x="361" y="0" type="line"/>
      <point x="170.75" y="0" type="line"/>
      <point x="170.75" y="1174.5" type="line"/>
    </contour>
    <contour>
      <point x="171.25" y="1124" type="line"/>
      <point x="170.75" y="1268.75" type="line"/>
      <point x="559.25" y="1268.75" type="line"/>
      <point x="571.75" y="1124" type="line"/>
    </contour>
  </outline>
</glyph>
<glyph name="uni094F" format="2">
  <advance width="530"/>
  <unicode hex="094F"/>
  <outline>
    <contour>
      <point x="-518.75" y="1605" type="curve" smooth="yes"/>
      <point x="-518.75" y="1630.68"/>
      <point x="-514.596" y="1656.23"/>
      <point x="-507.5" y="1677.5" type="curve"/>
      <point x="-360.5" y="1677.5" type="line"/>
      <point x="-360.5" y="1655.81" type="line" smooth="yes"/>
      <point x="-360.5" y="1569.42"/>
      <point x="-312.529" y="1541.28"/>
      <point x="-177.96" y="1528.2" type="curve" smooth="yes"/>
      <point x="-55.0492" y="1516.25" type="line" smooth="yes"/>
      <point x="115.528" y="1499.67"/>
      <point x="184.876" y="1456.28"/>
      <point x="227.25" y="1384" type="curve"/>
      <point x="233.5" y="1385.5" type="line"/>
      <point x="225.733" y="1499.32"/>
      <point x="181.99" y="1551.2"/>
      <point x="41.5195" y="1604.7" type="curve" smooth="yes"/>
      <point x="-66.25" y="1645.74" type="line" smooth="yes"/>
      <point x="-205.493" y="1698.77"/>
      <point x="-259" y="1754.99"/>
      <point x="-259" y="1861.72" type="curve" smooth="yes"/>
      <point x="-259" y="1890.11"/>
      <point x="-254.102" y="1917.31"/>
      <point x="-245.75" y="1941.25" type="curve"/>
      <point x="-96.25" y="1940.25" type="line"/>
      <point x="-96.25" y="1920.8" type="line" smooth="yes"/>
      <point x="-96.25" y="1838.46"/>
      <point x="-65.7145" y="1804.31"/>
      <point x="38.75" y="1761.75" type="curve" smooth="yes"/>
      <point x="130.171" y="1724.5" type="line" smooth="yes"/>
      <point x="303.2" y="1654"/>
      <point x="349" y="1550.9"/>
      <point x="349" y="1346.11" type="curve" smooth="yes"/>
      <point x="349" y="1245" type="line"/>
      <point x="171.25" y="1245" type="line"/>
      <point x="171.25" y="1265.25" type="line" smooth="yes"/>
      <point x="171.25" y="1320.21"/>
      <point x="133.827" y="1360.65"/>
      <point x="-54.25" y="1376" type="curve" smooth="yes"/>
      <point x="-201.25" y="1388" type="line" smooth="yes"/>
      <point x="-426.346" y="1406.38"/>
      <point x="-518.75" y="1474.31"/>
    </contour>
    <contour>
      <point x="360" y="0" type="line"/>
      <point x="170.25" y="0" type="line"/>
      <point x="170.25" y="1174.5" type="line"/>
      <point x="360" y="1174.5" type="line"/>
    </contour>
    <contour>
      <point x="571.75" y="1123.5" type="line"/>
      <point x="-29.5" y="1123.5" type="line"/>
      <point x="-44.5" y="1268.75" type="line"/>
      <point x="559.75" y="1268.75" type="line"/>
    </contour>
  </outline>
</glyph>
<glyph name="Om.dv" format="2">
  <advance width="1768"/>
  <unicode hex="0950"/>
  <outline>
    <contour>
      <point x="1202.77" y="1395.5" type="curve" smooth="yes"/>
      <point x="1133.46" y="1395.5"/>
      <point x="1104.82" y="1438.7"/>
      <point x="1104.82" y="1507.89" type="curve" smooth="yes"/>
      <point x="1104.82" y="1517.81" type="line" smooth="yes"/>
      <point x="1104.82" y="1585.58"/>
      <point x="1133.46" y="1629.02"/>
      <point x="1202.77" y="1629.02" type="curve" smooth="yes"/>
      <point x="1273.07" y="1629.02"/>
      <point x="1300.43" y="1585.58"/>
      <point x="1300.43" y="1517.81" type="curve" smooth="yes"/>
      <point x="1300.43" y="1507.89" type="line" smooth="yes"/>
      <point x="1300.43" y="1438.7"/>
      <point x="1273.07" y="1395.5"/>
    </contour>
    <contour>
      <point x="1557.75" y="1499.25" type="line"/>
      <point x="1560.5" y="1473.75"/>
      <point x="1560.5" y="1461.25"/>
      <point x="1560.5" y="1451.75" type="curve" smooth="yes"/>
      <point x="1560.5" y="1254.35"/>
      <point x="1438.84" y="1152.25"/>
      <point x="1201.87" y="1152.25" type="curve" smooth="yes"/>
      <point x="968.393" y="1152.25"/>
      <point x="844.5" y="1254.67"/>
      <point x="844.5" y="1451.25" type="curve" smooth="yes"/>
      <point x="844.5" y="1460.63"/>
      <point x="844.5" y="1473.76"/>
      <point x="847.5" y="1499.25" type="curve"/>
      <point x="1000.5" y="1499.25" type="line"/>
      <point x="1000.5" y="1469.05" type="line" smooth="yes"/>
      <point x="1000.5" y="1344.69"/>
      <point x="1063.95" y="1286.5"/>
      <point x="1201.82" y="1286.5" type="curve" smooth="yes"/>
      <point x="1339.69" y="1286.5"/>
      <point x="1405" y="1345.78"/>
      <point x="1405" y="1469.5" type="curve" smooth="yes"/>
      <point x="1405" y="1499.75" type="line"/>
    </contour>
    <contour>
      <point x="1080.5" y="343.5" type="line"/>
      <point x="1135.66" y="313.634"/>
      <point x="1195.77" y="296"/>
      <point x="1263.25" y="296" type="curve" smooth="yes"/>
      <point x="1397.07" y="296"/>
      <point x="1471.75" y="367.921"/>
      <point x="1471.75" y="568.75" type="curve" smooth="yes"/>
      <point x="1471.75" y="613" type="line" smooth="yes"/>
      <point x="1471.75" y="793.439"/>
      <point x="1423.64" y="870"/>
      <point x="1316" y="870" type="curve" smooth="yes"/>
      <point x="1227.22" y="870"/>
      <point x="1186.74" y="825.522"/>
      <point x="1137.75" y="699.5" type="curve" smooth="yes"/>
      <point x="1117" y="646.117" type="line" smooth="yes"/>
      <point x="1064.3" y="510.533"/>
      <point x="1007.57" y="468.75"/>
      <point x="891" y="468.75" type="curve" smooth="yes"/>
      <point x="811.75" y="468.75"/>
      <point x="749.5" y="498.937"/>
      <point x="690.75" y="547.75" type="curve"/>
      <point x="643.25" y="646.25" type="line"/>
      <point x="695.282" y="631.048"/>
      <point x="748.823" y="615"/>
      <point x="808.5" y="615" type="curve" smooth="yes"/>
      <point x="891.598" y="615"/>
      <point x="927.476" y="639.398"/>
      <point x="964.25" y="733.94" type="curve" smooth="yes"/>
      <point x="984.5" y="786" type="line" smooth="yes"/>
      <point x="1049.41" y="952.876"/>
      <point x="1142.33" y="1027.25"/>
      <point x="1319.5" y="1027.25" type="curve" smooth="yes"/>
      <point x="1554.73" y="1027.25"/>
      <point x="1663.5" y="894.5"/>
      <point x="1663.5" y="611.75" type="curve" smooth="yes"/>
      <point x="1663.5" y="550" type="line" smooth="yes"/>
      <point x="1663.5" y="264.5"/>
      <point x="1529.92" y="138"/>
      <point x="1295.25" y="138" type="curve" smooth="yes"/>
      <point x="1210.5" y="138"/>
      <point x="1145.99" y="154.451"/>
      <point x="1094.25" y="181.826" type="curve"/>
    </contour>
    <contour>
      <point x="54" y="280.5" type="line"/>
      <point x="163.961" y="215.5"/>
      <point x="276.461" y="177"/>
      <point x="415" y="177" type="curve" smooth="yes"/>
      <point x="579.978" y="177"/>
      <point x="660" y="237.219"/>
      <point x="660" y="376" type="curve" smooth="yes"/>
      <point x="660" y="379.333"/>
      <point x="660" y="392.667"/>
      <point x="660" y="396" type="curve" smooth="yes"/>
      <point x="660" y="523.658"/>
      <point x="580.511" y="578.35"/>
      <point x="381.5" y="584" type="curve" smooth="yes"/>
      <point x="223" y="588.5" type="line"/>
      <point x="223" y="738" type="line"/>
      <point x="372" y="741.996" type="line" smooth="yes"/>
      <point x="575.028" y="747.441"/>
      <point x="646.5" y="802.12"/>
      <point x="646.5" y="926.254" type="curve"/>
      <point x="646.5" y="926.254"/>
      <point x="646.5" y="940.749"/>
      <point x="646.5" y="940.749" type="curve"/>
      <point x="646.5" y="1066.6"/>
      <point x="583.091" y="1127.5"/>
      <point x="415.5" y="1127.5" type="curve" smooth="yes"/>
      <point x="302.193" y="1127.5"/>
      <point x="201.332" y="1101"/>
      <point x="99" y="1050.5" type="curve"/>
      <point x="110.5" y="1218.5" type="line"/>
      <point x="195.989" y="1258.65"/>
      <point x="307.004" y="1285"/>
      <point x="440" y="1285" type="curve" smooth="yes"/>
      <point x="714.349" y="1285"/>
      <point x="836" y="1170.15"/>
      <point x="836" y="961.063" type="curve"/>
      <point x="836" y="959.421"/>
      <point x="836" y="944.642"/>
      <point x="836" y="943" type="curve"/>
      <point x="836" y="794.702"/>
      <point x="764.75" y="687.88"/>
      <point x="580.5" y="667" type="curve"/>
      <point x="581" y="659" type="line"/>
      <point x="764.616" y="644.022"/>
      <point x="850.5" y="501.426"/>
      <point x="850.5" y="362" type="curve"/>
      <point x="850.5" y="360.143"/>
      <point x="850.5" y="350.857"/>
      <point x="850.5" y="349" type="curve"/>
      <point x="850.5" y="127.15"/>
      <point x="717.629" y="17"/>
      <point x="433.5" y="17" type="curve" smooth="yes"/>
      <point x="282.6" y="17"/>
      <point x="159.053" y="48.1561"/>
      <point x="65" y="102" type="curve"/>
    </contour>
  </outline>
</glyph>
<glyph name="Udatta.dv" format="2">
  <unicode hex="0951"/>
  <anchor x="-265.25" y="1238" name="_top"/>
  <outline>
    <contour>
      <point x="-347.5" y="1457.75" type="line"/>
      <point x="-347.5" y="1944" type="line"/>
      <point x="-183.75" y="1944" type="line"/>
      <point x="-183.75" y="1457.75" type="line"/>
    </contour>
  </outline>
  <guideline angle="90" x="-169" y="0"/>
  <guideline angle="0" x="0" y="1262"/>
</glyph>
<glyph name="Anudatta.dv" format="2">
  <unicode hex="0952"/>
  <anchor x="-170.25" y="23" name="_bottom3"/>
  <outline>
    <contour>
      <point x="-980" y="-421.5" type="line"/>
      <point x="-993.25" y="-271.75" type="line"/>
      <point x="-170" y="-271.75" type="line"/>
      <point x="-156.75" y="-421.5" type="line"/>
    </contour>
  </outline>
  <guideline angle="90" x="-151" y="0"/>
  <guideline angle="0" x="0" y="9"/>
</glyph>
<glyph name="uni0953" format="2">
  <unicode hex="0953"/>
  <anchor x="-265.25" y="1238" name="_top"/>
  <outline>
    <contour>
      <point x="-379.5" y="1406.25" type="line"/>
      <point x="-681.25" y="1766.25" type="line"/>
      <point x="-681.25" y="1777.5" type="line"/>
      <point x="-464.75" y="1777.5" type="line"/>
      <point x="-196.75" y="1414" type="line"/>
      <point x="-196.75" y="1406.25" type="line"/>
    </contour>
  </outline>
</glyph>
<glyph name="uni0954" format="2">
  <unicode hex="0954"/>
  <anchor x="-265.25" y="1238" name="_top"/>
  <outline>
    <contour>
      <point x="-157" y="1406.25" type="line"/>
      <point x="-342.75" y="1406.25" type="line"/>
      <point x="-342.75" y="1414" type="line"/>
      <point x="-74.5" y="1777.75" type="line"/>
      <point x="142" y="1777.75" type="line"/>
      <point x="142" y="1766.5" type="line"/>
    </contour>
  </outline>
</glyph>
<glyph name="uni0955" format="2">
  <unicode hex="0955"/>
  <anchor x="-265.25" y="1238" name="_top"/>
  <outline>
    <contour>
      <point x="-113.75" y="1911.25" type="line"/>
      <point x="31.25" y="1910.75" type="line"/>
      <point x="33.05" y="1889.73"/>
      <point x="33" y="1879.15"/>
      <point x="33" y="1870.34" type="curve" smooth="yes"/>
      <point x="33" y="1700.6"/>
      <point x="-64.25" y="1612.75"/>
      <point x="-270" y="1612.75" type="curve" smooth="yes"/>
      <point x="-475" y="1612.75"/>
      <point x="-572.552" y="1699.6"/>
      <point x="-573" y="1869.34" type="curve" smooth="yes"/>
      <point x="-573.025" y="1878.95"/>
      <point x="-572.5" y="1890.56"/>
      <point x="-570.75" y="1910.75" type="curve"/>
      <point x="-426.25" y="1911.25" type="line"/>
      <point x="-426.25" y="1885.75" type="line" smooth="yes"/>
      <point x="-426.25" y="1781.73"/>
      <point x="-375.7" y="1739.75"/>
      <point x="-270.444" y="1739.75" type="curve" smooth="yes"/>
      <point x="-164.975" y="1739.75"/>
      <point x="-113.75" y="1781.49"/>
      <point x="-113.75" y="1885.51" type="curve" smooth="yes"/>
    </contour>
    <contour>
      <point x="-577" y="1386.25" type="line"/>
      <point x="-577" y="1520" type="line"/>
      <point x="29.5" y="1520" type="line"/>
      <point x="29.5" y="1386.25" type="line"/>
    </contour>
  </outline>
</glyph>
<glyph name="uni0956" format="2">
  <unicode hex="0956"/>
  <anchor x="-265.25" y="42.5" name="_bottom5"/>
  <outline>
    <contour>
      <point x="-264.5" y="-403" type="curve" smooth="yes"/>
      <point x="-420.828" y="-403"/>
      <point x="-551.986" y="-375.894"/>
      <point x="-648.761" y="-327.903" type="curve"/>
      <point x="-657.74" y="-162.25" type="line"/>
      <point x="-547.194" y="-215.099"/>
      <point x="-412.505" y="-244.75"/>
      <point x="-265" y="-244.75" type="curve" smooth="yes"/>
      <point x="-117.495" y="-244.75"/>
      <point x="16.7038" y="-215.608"/>
      <point x="127.75" y="-162.25" type="curve"/>
      <point x="118.797" y="-327.903" type="line"/>
      <point x="20.255" y="-376.434"/>
      <point x="-108.57" y="-403"/>
    </contour>
  </outline>
</glyph>
<glyph name="uni0957" format="2">
  <unicode hex="0957"/>
  <anchor x="-265.25" y="42.5" name="_bottom5"/>
  <outline>
    <contour>
      <point x="-264.5" y="-389.5" type="curve" smooth="yes"/>
      <point x="-419.828" y="-389.5"/>
      <point x="-551.986" y="-362.274"/>
      <point x="-648.761" y="-315.403" type="curve"/>
      <point x="-657.74" y="-147.75" type="line"/>
      <point x="-547.194" y="-200.292"/>
      <point x="-414.505" y="-229.75"/>
      <point x="-265" y="-229.75" type="curve" smooth="yes"/>
      <point x="-115.495" y="-229.75"/>
      <point x="16.7038" y="-200.792"/>
      <point x="127.75" y="-147.75" type="curve"/>
      <point x="118.797" y="-315.403" type="line"/>
      <point x="22.255" y="-362.774"/>
      <point x="-109.57" y="-389.5"/>
    </contour>
    <contour>
      <point x="-264.5" y="-695" type="curve" smooth="yes"/>
      <point x="-419.828" y="-695"/>
      <point x="-551.986" y="-667.774"/>
      <point x="-648.761" y="-620.903" type="curve"/>
      <point x="-657.74" y="-453.25" type="line"/>
      <point x="-547.194" y="-506.292"/>
      <point x="-415.005" y="-535.25"/>
      <point x="-265" y="-535.25" type="curve" smooth="yes"/>
      <point x="-114.995" y="-535.25"/>
      <point x="16.7038" y="-506.792"/>
      <point x="127.75" y="-453.25" type="curve"/>
      <point x="118.797" y="-620.903" type="line"/>
      <point x="20.255" y="-668.274"/>
      <point x="-109.57" y="-695"/>
    </contour>
  </outline>
  <guideline angle="90" x="-169" y="0"/>
  <guideline angle="0" x="0" y="9"/>
</glyph>
<glyph name="KhaNukta.dv" format="2">
  <advance width="1641"/>
  <unicode hex="0959"/>
  <anchor x="1376" y="23" name="bottom"/>
  <anchor x="1369" y="23" name="bottom2"/>
  <anchor x="1470" y="23" name="bottom3"/>
  <anchor x="1375" y="42.5" name="bottom5"/>
  <anchor x="1375" y="1238" name="top"/>
  <outline>
    <contour>
      <point x="1470" y="1174.5" type="line"/>
      <point x="1470" y="0" type="line"/>
      <point x="1281" y="0" type="line"/>
      <point x="1281" y="1174.5" type="line"/>
    </contour>
    <contour>
      <point x="1187.75" y="1123.5" type="line"/>
      <point x="1175.75" y="1268.75" type="line"/>
      <point x="1670.75" y="1268.75" type="line"/>
      <point x="1682.75" y="1123.5" type="line"/>
    </contour>
    <contour>
      <point x="-16.5" y="1124" type="line"/>
      <point x="-28.5" y="1269" type="line"/>
      <point x="1570" y="1269" type="line"/>
      <point x="1582" y="1124" type="line"/>
    </contour>
    <contour>
      <point x="619" y="881.6" type="curve" smooth="yes"/>
      <point x="619" y="867.577" type="line" smooth="yes"/>
      <point x="619" y="627.988"/>
      <point x="498.57" y="527.286"/>
      <point x="248.773" y="523.459" type="curve" smooth="yes"/>
      <point x="153.5" y="522" type="line"/>
      <point x="68" y="667" type="line"/>
      <point x="171.906" y="667" type="line" smooth="yes"/>
      <point x="356.288" y="667"/>
      <point x="425.5" y="735.5"/>
      <point x="425.5" y="892" type="curve" smooth="yes"/>
      <point x="425.5" y="903.5" type="line" smooth="yes"/>
      <point x="425.5" y="1013.52"/>
      <point x="390.629" y="1110.35"/>
      <point x="300.5" y="1159.5" type="curve"/>
      <point x="507" y="1159.5" type="line"/>
      <point x="586.675" y="1107.62"/>
      <point x="619" y="1010.43"/>
    </contour>
    <contour>
      <point x="1193.92" y="71.3742" type="line"/>
      <point x="1122.68" y="38.1191"/>
      <point x="1016.43" y="20.7875"/>
      <point x="897.161" y="21.0233" type="curve" smooth="yes"/>
      <point x="544.44" y="21.7207"/>
      <point x="333.044" y="159.889"/>
      <point x="212.419" y="433.718" type="curve" smooth="yes"/>
      <point x="183" y="500.5" type="line"/>
      <point x="68" y="506.5" type="line"/>
      <point x="68" y="667" type="line"/>
      <point x="339" y="572" type="line"/>
      <point x="379" y="496.5" type="line" smooth="yes"/>
      <point x="494.399" y="278.684"/>
      <point x="654.886" y="187.226"/>
      <point x="915.508" y="186.53" type="curve" smooth="yes"/>
      <point x="1049.68" y="186.172"/>
      <point x="1181.72" y="212.025"/>
      <point x="1292" y="265.5" type="curve"/>
      <point x="1292" y="238.566" type="line"/>
    </contour>
    <contour>
      <point x="1042.16" y="361" type="curve" smooth="yes"/>
      <point x="856.697" y="361"/>
      <point x="745.5" y="462.659"/>
      <point x="745.5" y="658.026" type="curve" smooth="yes"/>
      <point x="745.5" y="674.472" type="line" smooth="yes"/>
      <point x="745.5" y="860.325"/>
      <point x="844.778" y="971"/>
      <point x="1050.9" y="971" type="curve" smooth="yes"/>
      <point x="1100" y="971"/>
      <point x="1140.52" y="966.312"/>
      <point x="1177.5" y="956" type="curve"/>
      <point x="1190.5" y="805.5" type="line"/>
      <point x="1156.3" y="812.625"/>
      <point x="1126.54" y="815.5"/>
      <point x="1093.29" y="815.5" type="curve" smooth="yes"/>
      <point x="991.18" y="815.5"/>
      <point x="938" y="769.349"/>
      <point x="938" y="673.692" type="curve" smooth="yes"/>
      <point x="938" y="663.494" type="line" smooth="yes"/>
      <point x="938" y="562.967"/>
      <point x="986.748" y="517.5"/>
      <point x="1104.16" y="517.5" type="curve" smooth="yes"/>
      <point x="1202.84" y="517.5"/>
      <point x="1260.94" y="550.948"/>
      <point x="1287" y="619" type="curve"/>
      <point x="1293" y="480" type="line"/>
      <point x="1270" y="480" type="line"/>
      <point x="1241.49" y="405.685"/>
      <point x="1168.81" y="361"/>
    </contour>
    <contour>
      <point x="181.853" y="-168.176" type="curve" smooth="yes"/>
      <point x="103.643" y="-168.176"/>
      <point x="65.3326" y="-122.596"/>
      <point x="65.3326" y="-49.0064" type="curve"/>
      <point x="65.3326" y="-47.4505"/>
      <point x="65.3326" y="-42.5354"/>
      <point x="65.3326" y="-40.8364" type="curve"/>
      <point x="65.3326" y="34.0036"/>
      <point x="103.643" y="79.0836"/>
      <point x="181.853" y="79.0836" type="curve" smooth="yes"/>
      <point x="260.063" y="79.0836"/>
      <point x="297.873" y="33.5036"/>
      <point x="297.873" y="-40.8364" type="curve"/>
      <point x="297.873" y="-42.3862"/>
      <point x="297.873" y="-47.3037"/>
      <point x="297.873" y="-49.0063" type="curve"/>
      <point x="297.873" y="-122.846"/>
      <point x="259.813" y="-168.176"/>
    </contour>
  </outline>
</glyph>
<glyph name="GaNukta.dv" format="2">
  <advance width="1196"/>
  <unicode hex="095A"/>
  <anchor x="930.75" y="23" name="bottom"/>
  <anchor x="923.75" y="23" name="bottom2"/>
  <anchor x="1024.75" y="23" name="bottom3"/>
  <anchor x="929.75" y="42.5" name="bottom5"/>
  <anchor x="929.75" y="1238" name="top"/>
  <outline>
    <contour>
      <point x="1184" y="1123.75" type="line"/>
      <point x="-28" y="1123.75" type="line"/>
      <point x="-40" y="1268.75" type="line"/>
      <point x="1172" y="1268.75" type="line"/>
    </contour>
    <contour>
      <point x="217.25" y="1146" type="curve"/>
      <point x="422.25" y="1146" type="line"/>
      <point x="503.678" y="1081.94"/>
      <point x="534.5" y="965.719"/>
      <point x="534.5" y="800.194" type="curve" smooth="yes"/>
      <point x="534.5" y="779.71" type="line" smooth="yes"/>
      <point x="534.5" y="476.956"/>
      <point x="410.611" y="352.75"/>
      <point x="181.268" y="352.75" type="curve" smooth="yes"/>
      <point x="136.856" y="352.75"/>
      <point x="95.8615" y="358.233"/>
      <point x="62" y="369" type="curve"/>
      <point x="50" y="541.25" type="line"/>
      <point x="76.6864" y="535.03"/>
      <point x="105.361" y="532.25"/>
      <point x="135.75" y="532.25" type="curve" smooth="yes"/>
      <point x="277.155" y="532.25"/>
      <point x="340.25" y="598.624"/>
      <point x="340.25" y="802.414" type="curve" smooth="yes"/>
      <point x="340.25" y="819.846" type="line" smooth="yes"/>
      <point x="340.25" y="970.764"/>
      <point x="306.25" y="1075.38"/>
    </contour>
    <contour>
      <point x="1024.75" y="1174.5" type="line"/>
      <point x="1024.75" y="0" type="line"/>
      <point x="835.75" y="0" type="line"/>
      <point x="835.75" y="1174.5" type="line"/>
    </contour>
    <contour>
      <point x="742.5" y="1123.5" type="line"/>
      <point x="730.5" y="1268.75" type="line"/>
      <point x="1225.5" y="1268.75" type="line"/>
      <point x="1237.5" y="1123.5" type="line"/>
    </contour>
    <contour>
      <point x="274" y="-57.13" type="curve" smooth="yes"/>
      <point x="195.79" y="-57.1302"/>
      <point x="157.48" y="-11.5502"/>
      <point x="157.48" y="62.0398" type="curve"/>
      <point x="157.48" y="63.5957"/>
      <point x="157.48" y="68.5108"/>
      <point x="157.48" y="70.2098" type="curve"/>
      <point x="157.48" y="145.05"/>
      <point x="195.79" y="190.13"/>
      <point x="274" y="190.13" type="curve" smooth="yes"/>
      <point x="352.21" y="190.13"/>
      <point x="390.02" y="144.55"/>
      <point x="390.02" y="70.2098" type="curve"/>
      <point x="390.02" y="68.66"/>
      <point x="390.02" y="63.7426"/>
      <point x="390.02" y="62.04" type="curve"/>
      <point x="390.02" y="-11.8"/>
      <point x="351.96" y="-57.13"/>
    </contour>
  </outline>
</glyph>
<glyph name="DdaNukta.dv" format="2">
  <advance width="1094"/>
  <unicode hex="095C"/>
  <anchor x="592" y="-496" name="bottom"/>
  <anchor x="550" y="-356" name="bottom2"/>
  <anchor x="946" y="-251" name="bottom3"/>
  <anchor x="562" y="15.75" name="bottom5"/>
  <anchor x="829.25" y="1238" name="top"/>
  <outline>
    <contour>
      <point x="638.75" y="1124" type="line"/>
      <point x="626.75" y="1268.75" type="line"/>
      <point x="1097.75" y="1268.75" type="line"/>
      <point x="1109.75" y="1124" type="line"/>
    </contour>
    <contour>
      <point x="923" y="1174.75" type="line"/>
      <point x="923" y="950.5" type="line"/>
      <point x="740.75" y="951.5" type="line"/>
      <point x="740.75" y="1174.75" type="line"/>
    </contour>
    <contour>
      <point x="1128.5" y="1124" type="line"/>
      <point x="-24.5" y="1124" type="line"/>
      <point x="-36.5" y="1269" type="line"/>
      <point x="1116.5" y="1269" type="line"/>
    </contour>
    <contour>
      <point x="739" y="1173" type="line"/>
      <point x="923.5" y="1173" type="line"/>
      <point x="923.5" y="782" type="line"/>
      <point x="891.771" y="789.653"/>
      <point x="771.685" y="818.617"/>
      <point x="739" y="826.5" type="curve"/>
    </contour>
    <contour>
      <point x="96.5" y="262" type="line"/>
      <point x="230.373" y="178.62"/>
      <point x="374.165" y="130.5"/>
      <point x="531.813" y="130.5" type="curve" smooth="yes"/>
      <point x="732.202" y="130.5"/>
      <point x="804" y="179.17"/>
      <point x="804" y="280.971" type="curve" smooth="yes"/>
      <point x="804" y="288.944" type="line" smooth="yes"/>
      <point x="804" y="375.04"/>
      <point x="752.281" y="429.5"/>
      <point x="597.144" y="429.5" type="curve" smooth="yes"/>
      <point x="491.487" y="429.5"/>
      <point x="393.793" y="407.5"/>
      <point x="298.355" y="368.5" type="curve"/>
      <point x="178.99" y="440.281"/>
      <point x="112" y="531.422"/>
      <point x="112" y="654.431" type="curve" smooth="yes"/>
      <point x="112" y="660.951" type="line" smooth="yes"/>
      <point x="112" y="841.108"/>
      <point x="226.333" y="956"/>
      <point x="549.375" y="956" type="curve" smooth="yes"/>
      <point x="684.663" y="956"/>
      <point x="796" y="944"/>
      <point x="923.5" y="921" type="curve"/>
      <point x="923.5" y="778.5" type="line"/>
      <point x="814.529" y="796"/>
      <point x="704.255" y="803.5"/>
      <point x="593.539" y="803.5" type="curve" smooth="yes"/>
      <point x="380.417" y="803.5"/>
      <point x="304" y="750.352"/>
      <point x="304" y="653.059" type="curve" smooth="yes"/>
      <point x="304" y="648.144" type="line" smooth="yes"/>
      <point x="304" y="603.042"/>
      <point x="319.815" y="567.661"/>
      <point x="353.056" y="539.5" type="curve"/>
      <point x="434.324" y="567.5"/>
      <point x="520.783" y="584.5"/>
      <point x="628.147" y="584.5" type="curve" smooth="yes"/>
      <point x="893.709" y="584.5"/>
      <point x="996" y="470"/>
      <point x="996" y="288.5" type="curve" smooth="yes"/>
      <point x="996" y="277.5" type="line" smooth="yes"/>
      <point x="996" y="82.1537"/>
      <point x="873.907" y="-27"/>
      <point x="545.502" y="-27" type="curve" smooth="yes"/>
      <point x="368.592" y="-27"/>
      <point x="219.589" y="11.5234"/>
      <point x="109.955" y="78.5074" type="curve"/>
    </contour>
    <contour>
      <point x="547.75" y="-387.13" type="curve" smooth="yes"/>
      <point x="469.54" y="-387.13"/>
      <point x="431.23" y="-341.55"/>
      <point x="431.23" y="-267.96" type="curve"/>
      <point x="431.23" y="-266.404"/>
      <point x="431.23" y="-261.489"/>
      <point x="431.23" y="-259.79" type="curve"/>
      <point x="431.23" y="-184.95"/>
      <point x="469.54" y="-139.87"/>
      <point x="547.75" y="-139.87" type="curve" smooth="yes"/>
      <point x="625.96" y="-139.87"/>
      <point x="663.77" y="-185.45"/>
      <point x="663.77" y="-259.79" type="curve"/>
      <point x="663.77" y="-261.34"/>
      <point x="663.77" y="-266.257"/>
      <point x="663.77" y="-267.96" type="curve"/>
      <point x="663.77" y="-341.8"/>
      <point x="625.71" y="-387.13"/>
    </contour>
  </outline>
</glyph>
